<?xml version="1.0" encoding="UTF-8" standalone="no"?>
<svg
   width="287.69"
   height="252.99001"
   viewBox="0 0 287.69 252.99"
   role="img"
   artist="Katerina Limpitsouni"
   source="https://undraw.co/"
   version="1.1"
   id="svg49"
   xmlns="http://www.w3.org/2000/svg"
   xmlns:svg="http://www.w3.org/2000/svg"
   xmlns:rdf="http://www.w3.org/1999/02/22-rdf-syntax-ns#"
   xmlns:cc="http://creativecommons.org/ns#"
   xmlns:dc="http://purl.org/dc/elements/1.1/">
  <defs
     id="defs49" />
  <title
     id="title1">factory</title>
  <rect
     x="-217.57109"
     y="-252.98997"
     width="147.45827"
     height="170.58897"
     transform="scale(-1)"
     fill="#3f3d56"
     id="rect28" />
  <rect
     x="-163.71989"
     y="-252.98997"
     width="39.755909"
     height="34.69606"
     transform="scale(-1)"
     fill="#e2e2e2"
     id="rect29" />
  <polygon
     points="579.092,459 579.092,247.93 560.301,248.6 560.301,206.01 516.931,206.01 516.931,250.15 498.141,250.82 498.141,459 "
     fill="#cbcbfb"
     id="polygon30"
     transform="translate(-498.141,-206.01)" />
  <polygon
     points="785.831,459 785.831,247.93 779.181,248.17 767.031,248.6 767.031,206.01 723.661,206.01 723.661,250.15 704.871,250.82 704.871,459 "
     fill="#cbcbfb"
     id="polygon32"
     transform="translate(-498.141,-206.01)" />
  <rect
     x="-185.84196"
     y="-122.99002"
     width="20"
     height="20"
     transform="scale(-1)"
     fill="#ffffff"
     id="rect32" />
  <rect
     x="-153.84196"
     y="-122.99002"
     width="20"
     height="20"
     transform="scale(-1)"
     fill="#ffffff"
     id="rect33" />
  <rect
     x="-121.84197"
     y="-122.99002"
     width="20"
     height="20"
     transform="scale(-1)"
     fill="#ffffff"
     id="rect34" />
  <rect
     x="-185.84196"
     y="-154.99002"
     width="20"
     height="20"
     transform="scale(-1)"
     fill="#ffffff"
     id="rect35" />
  <rect
     x="-153.84196"
     y="-154.99002"
     width="20"
     height="20"
     transform="scale(-1)"
     fill="#ffffff"
     id="rect36" />
  <rect
     x="-121.84197"
     y="-154.99002"
     width="20"
     height="20"
     transform="scale(-1)"
     fill="#ffffff"
     id="rect37" />
  <rect
     x="-185.84196"
     y="-186.99002"
     width="20"
     height="20"
     transform="scale(-1)"
     fill="#ffffff"
     id="rect38" />
  <rect
     x="-153.84196"
     y="-186.99002"
     width="20"
     height="20"
     transform="scale(-1)"
     fill="#ffffff"
     id="rect39" />
  <rect
     x="-121.84197"
     y="-186.99002"
     width="20"
     height="20"
     transform="scale(-1)"
     fill="#ffffff"
     id="rect40" />
  <rect
     x="-50.476543"
     y="-114.99002"
     width="20"
     height="20"
     transform="scale(-1)"
     fill="#ffffff"
     id="rect41" />
  <rect
     x="-50.476543"
     y="-146.99002"
     width="20"
     height="20"
     transform="scale(-1)"
     fill="#ffffff"
     id="rect42" />
  <rect
     x="-50.476543"
     y="-178.99002"
     width="20"
     height="20"
     transform="scale(-1)"
     fill="#ffffff"
     id="rect43" />
  <rect
     x="-50.476543"
     y="-210.99002"
     width="20"
     height="20"
     transform="scale(-1)"
     fill="#ffffff"
     id="rect44" />
  <rect
     x="-257.04034"
     y="-114.99002"
     width="20"
     height="20"
     transform="scale(-1)"
     fill="#ffffff"
     id="rect45" />
  <rect
     x="-257.04034"
     y="-146.99002"
     width="20"
     height="20"
     transform="scale(-1)"
     fill="#ffffff"
     id="rect46" />
  <rect
     x="-257.04034"
     y="-178.99002"
     width="20"
     height="20"
     transform="scale(-1)"
     fill="#ffffff"
     id="rect47" />
  <rect
     x="-257.04034"
     y="-210.99002"
     width="20"
     height="20"
     transform="scale(-1)"
     fill="#ffffff"
     id="rect48" />
  <metadata
     id="metadata49">
    <rdf:RDF>
      <cc:Work
         rdf:about="">
        <dc:title>factory</dc:title>
      </cc:Work>
    </rdf:RDF>
  </metadata>
</svg>
