<?xml version="1.0" encoding="UTF-8" standalone="no"?>
<svg
   width="573.60547"
   height="314.28732"
   viewBox="0 0 573.60547 314.28732"
   role="img"
   artist="Katerina Limpitsouni"
   source="https://undraw.co/"
   version="1.1"
   id="svg14"
   sodipodi:docname="documents.svg"
   inkscape:version="1.4.2 (f4327f4, 2025-05-13)"
   xmlns:inkscape="http://www.inkscape.org/namespaces/inkscape"
   xmlns:sodipodi="http://sodipodi.sourceforge.net/DTD/sodipodi-0.dtd"
   xmlns="http://www.w3.org/2000/svg"
   xmlns:svg="http://www.w3.org/2000/svg">
  <defs
     id="defs14" />
  <sodipodi:namedview
     id="namedview14"
     pagecolor="#ffffff"
     bordercolor="#000000"
     borderopacity="0.25"
     inkscape:showpageshadow="2"
     inkscape:pageopacity="0.0"
     inkscape:pagecheckerboard="0"
     inkscape:deskcolor="#d1d1d1"
     inkscape:zoom="1.577242"
     inkscape:cx="286.57619"
     inkscape:cy="75.131147"
     inkscape:window-width="1920"
     inkscape:window-height="991"
     inkscape:window-x="-9"
     inkscape:window-y="-9"
     inkscape:window-maximized="1"
     inkscape:current-layer="g14" />
  <g
     transform="translate(-860.91926,-1658.8481)"
     id="g14">
    <path
       d="m 1424.5351,1819.4112 v 149.1329 h -397.8594 a 79.449056,74.611508 0 0 1 -5.5213,-149.1329 q 2.7611,-0.091 5.5245,0 z"
       fill="#f2f2f2"
       id="path1"
       style="stroke-width:0.759269" />
    <path
       d="m 1434.31,1967.3962 a 6.1112709,5.7391637 0 0 1 -6.1112,5.7392 h -408.6059 a 83.677405,78.5824 0 0 1 0,-157.1648 h 408.6129 a 6.1112709,5.7391637 0 1 1 0,11.4717 h -408.6129 a 71.461127,67.109954 0 0 0 0,134.2192 h 408.6129 a 6.1112709,5.7391637 0 0 1 6.1042,5.7347 z"
       fill="#cbcbfb"
       id="path2"
       style="stroke-width:0.759269" />
    <path
       d="M 1424.5414,1853.8263 H 996.99768 a 1.2215266,1.1471495 0 0 1 -0.0227,-2.2942 h 427.56642 a 1.2214739,1.1471 0 0 1 0,2.2942 z"
       fill="#cccccc"
       id="path3"
       style="stroke-width:0.759269" />
    <path
       d="M 1424.5414,1881.3588 H 996.99768 a 1.2215266,1.1471495 0 1 1 -0.0227,-2.2942 h 427.56642 a 1.2214739,1.1471 0 1 1 0,2.2942 z"
       fill="#cccccc"
       id="path4"
       style="stroke-width:0.759269" />
    <path
       d="M 1424.5414,1908.8899 H 996.99768 a 1.2215266,1.1471495 0 0 1 -0.0227,-2.2942 h 427.56642 a 1.2214739,1.1471 0 0 1 0,2.2942 z"
       fill="#cccccc"
       id="path5"
       style="stroke-width:0.759269" />
    <path
       d="M 1424.5414,1936.4224 H 996.99768 a 1.2215266,1.1471495 0 1 1 -0.0227,-2.2942 h 427.56642 a 1.2214739,1.1471 0 0 1 0,2.2942 z"
       fill="#cccccc"
       id="path6"
       style="stroke-width:0.759269" />
    <path
       d="m 1349.5373,1662.292 v 149.1321 H 951.67791 a 79.44911,74.61156 0 0 1 -5.52444,-149.1329 q 2.76104,-0.09 5.52444,0 z"
       fill="#f2f2f2"
       id="path7"
       style="stroke-width:0.759269" />
    <path
       d="m 1359.3138,1810.2771 a 6.1112709,5.7391637 0 0 1 -6.1113,5.7391 H 944.59667 a 83.677405,78.5824 0 1 1 0,-157.1648 h 408.61053 a 6.1112709,5.7391637 0 1 1 0,11.4717 H 944.59667 a 71.461127,67.109954 0 0 0 0,134.2192 h 408.61053 a 6.1112709,5.7391637 0 0 1 6.1113,5.7392 z"
       fill="#cbcbfb"
       id="path8"
       style="stroke-width:0.759269" />
    <path
       d="M 1349.5389,1696.7064 H 921.99515 a 1.2215266,1.1471495 0 1 1 -0.0227,-2.2942 h 427.56645 a 1.2214739,1.1471 0 1 1 0,2.2942 z"
       fill="#cccccc"
       id="path9"
       style="stroke-width:0.759269" />
    <path
       d="M 1349.5389,1724.2382 H 921.99515 a 1.2215266,1.1471495 0 1 1 -0.0227,-2.2942 h 427.56645 a 1.2214739,1.1471 0 1 1 0,2.2942 z"
       fill="#cccccc"
       id="path10"
       style="stroke-width:0.759269" />
    <path
       d="M 1349.5389,1751.77 H 921.99515 a 1.2215266,1.1471495 0 1 1 -0.0227,-2.2942 h 427.56645 a 1.2214739,1.1471 0 1 1 0,2.2942 z"
       fill="#cccccc"
       id="path11"
       style="stroke-width:0.759269" />
    <path
       d="M 1349.5389,1779.3025 H 921.99515 a 1.2215266,1.1471495 0 1 1 -0.0227,-2.2942 h 427.56645 a 1.2214739,1.1471 0 1 1 0,2.2942 z"
       fill="#cccccc"
       id="path12"
       style="stroke-width:0.759269" />
  </g>
</svg>
