<?xml version="1.0" encoding="UTF-8" standalone="no"?>
<svg
   width="297.70831"
   height="264.67422"
   viewBox="0 0 297.70832 264.67422"
   role="img"
   artist="Katerina Limpitsouni"
   source="https://undraw.co/"
   version="1.1"
   id="svg62"
   sodipodi:docname="form.svg"
   inkscape:version="1.4.2 (f4327f4, 2025-05-13)"
   xmlns:inkscape="http://www.inkscape.org/namespaces/inkscape"
   xmlns:sodipodi="http://sodipodi.sourceforge.net/DTD/sodipodi-0.dtd"
   xmlns="http://www.w3.org/2000/svg"
   xmlns:svg="http://www.w3.org/2000/svg">
  <defs
     id="defs62" />
  <sodipodi:namedview
     id="namedview62"
     pagecolor="#ffffff"
     bordercolor="#000000"
     borderopacity="0.25"
     inkscape:showpageshadow="2"
     inkscape:pageopacity="0.0"
     inkscape:pagecheckerboard="0"
     inkscape:deskcolor="#d1d1d1"
     inkscape:zoom="1.2672169"
     inkscape:cx="217.01099"
     inkscape:cy="50.109811"
     inkscape:window-width="1920"
     inkscape:window-height="991"
     inkscape:window-x="-9"
     inkscape:window-y="-9"
     inkscape:window-maximized="1"
     inkscape:current-layer="svg62" />
  <path
     d="m 645.25035,473.28244 -278.75,0.30731 c -0.65759,-0.003 -1.18787,-0.53931 -1.18445,-1.1969 0.003,-0.65271 0.53168,-1.18103 1.18445,-1.18445 l 278.75,-0.30731 c 0.65759,-0.002 1.19238,0.52924 1.19446,1.18683 0.002,0.65759 -0.52917,1.19238 -1.18677,1.19452 z"
     fill="#cacaca"
     id="path2" />
  <path
     d="m 94.57836,0 c -3.39874,0.004 -6.15295,2.75818 -6.15668,6.15692 v 107.8909 c 0.004,3.39874 2.75793,6.15305 6.15668,6.15692 H 247.1867 c 3.39874,-0.004 6.15295,-2.75818 6.15668,-6.15692 V 6.15692 C 253.33938,2.75818 250.58545,0.00387 247.1867,0 Z"
     fill="#e6e6e6"
     id="path18" />
  <path
     d="M 192.30254,114.9541 H 98.89055 c -3.65799,-0.004 -6.62234,-2.96857 -6.62634,-6.62656 V 10.47143 c 0.004,-3.65799 2.96835,-6.62244 6.62634,-6.62656 h 143.9848 c 3.65808,0.004 6.6225,2.96851 6.62659,6.62656 v 47.28311 c -0.0357,31.57559 -25.62384,57.16379 -57.1994,57.19955 z"
     fill="#ffffff"
     id="path19" />
  <path
     d="m 155.71135,30.92575 h -22.19794 c -1.17072,0 -2.11981,-0.94907 -2.11981,-2.11981 0,-1.17074 0.9491,-2.11981 2.11981,-2.11981 h 22.19788 c 1.17072,0 2.11981,0.94907 2.11981,2.11981 0,1.17074 -0.9491,2.11981 -2.11981,2.11981 z"
     fill="#cbcbfb"
     id="path20" />
  <path
     d="m 205.47167,39.59583 h -71.95819 c -1.17072,0 -2.11981,-0.94907 -2.11981,-2.11981 0,-1.17074 0.9491,-2.11981 2.11981,-2.11981 h 71.95819 c 1.17072,0 2.11981,0.94907 2.11981,2.11981 0,1.17074 -0.9491,2.11981 -2.11981,2.11981 z"
     fill="#e6e6e6"
     id="path21" />
  <path
     d="m 205.47167,49.54788 h -71.95819 c -1.17072,0 -2.11981,-0.94907 -2.11981,-2.11981 0,-1.17074 0.9491,-2.11981 2.11981,-2.11981 h 71.95819 c 1.17072,0 2.11981,0.94907 2.11981,2.11981 0,1.17074 -0.9491,2.11981 -2.11981,2.11981 z"
     fill="#e6e6e6"
     id="path22" />
  <path
     d="m 205.47167,59.49994 h -71.95819 c -1.17072,0 -2.11981,-0.94907 -2.11981,-2.11981 0,-1.17074 0.9491,-2.11981 2.11981,-2.11981 h 71.95819 c 1.17072,0 2.11981,0.94907 2.11981,2.11981 0,1.17074 -0.9491,2.11981 -2.11981,2.11981 z"
     fill="#e6e6e6"
     id="path23" />
  <path
     d="m 205.47167,69.452 h -71.95819 c -1.17072,0 -2.11981,-0.94907 -2.11981,-2.11981 0,-1.17074 0.9491,-2.11981 2.11981,-2.11981 h 71.95819 c 1.17072,0 2.11981,0.94907 2.11981,2.11981 0,1.17074 -0.9491,2.11981 -2.11981,2.11981 z"
     fill="#e6e6e6"
     id="path24" />
  <path
     d="m 263.16735,75.32703 h -30.12396 c -5.99072,0 -10.84717,4.85645 -10.84717,10.84717 v 0 c 0,5.99072 -4.85645,10.8472 -10.84717,10.8472 H 110.91939 c -5.99072,0 -10.8472,-4.85645 -10.8472,-10.84717 v -3e-5 L 98.08644,75.17808 98.21553,75.32701 98.08644,75.17808 79.88203,51.96955 C 78.67341,50.40372 76.80125,49.4943 74.82331,49.51218 H 40.6832 c -3.54883,0.004 -6.42465,2.88007 -6.42889,6.42889 l -0.70493,19.237 H 20.64261 C 9.24201,75.17807 0,84.42007 0,95.82068 v 134.44495 c 0,10.1171 8.20151,18.31863 18.3186,18.31863 h 244.84872 c 10.11108,-0.0125 18.30389,-8.20752 18.3136,-18.3186 v -136.625 c 0,-10.11432 -8.19928,-18.31363 -18.3136,-18.31363 v 0 z"
     fill="#e6e6e6"
     id="path25"
     style="fill:#cbcbfb;fill-opacity:1" />
  <path
     d="M 98.09639,74.68164 H 34.25432 v -19.237 c 0.004,-3.54883 2.88007,-6.42465 6.42889,-6.42889 h 34.14014 c 1.97794,-0.0179 3.8501,0.89154 5.05872,2.45737 l 18.21432,23.20853 z"
     fill="#cccccc"
     id="path26" />
  <path
     d="M 130.78502,233.79035 H 24.18538 c -7.02594,-0.008 -12.7196,-5.7016 -12.72754,-12.72754 v -29.1532 c 0.008,-7.02594 5.7016,-12.7196 12.72754,-12.72754 h 127.94455 c 7.02594,0.008 12.7196,5.7016 12.72754,12.72754 v 7.80826 c -0.0213,18.80887 -15.26355,34.05115 -34.07245,34.07248 z"
     fill="#ffffff"
     id="path27" />
  <path
     d="M 54.87117,201.17264 H 28.55989 c -3.56427,0 -6.4537,-2.88943 -6.4537,-6.4537 0,-3.56427 2.88943,-6.4537 6.4537,-6.4537 h 26.31128 c 3.56427,-0.005 6.45743,2.8811 6.46204,6.44537 0.005,3.5643 -2.8811,6.45743 -6.4454,6.46204 h -0.0166 z"
     fill="#cbcbfb"
     id="path28" />
  <path
     d="M 144.23021,221.52664 H 28.55989 c -3.56427,0 -6.4537,-2.88943 -6.4537,-6.4537 0,-3.56427 2.88943,-6.4537 6.4537,-6.4537 h 115.67032 c 3.56427,-0.005 6.45746,2.8811 6.46204,6.44537 0.005,3.5643 -2.8811,6.45743 -6.44537,6.46204 h -0.0167 z"
     fill="#cbcbfb"
     id="path29" />
  <path
     d="m 271.54448,264.67423 c -14.44989,0 -26.16382,-11.71393 -26.16382,-26.16382 0,-14.44989 11.71393,-26.16382 26.16382,-26.16382 14.44989,0 26.16382,11.71393 26.16382,26.16382 v 0 c 0,14.44989 -11.71393,26.16382 -26.16382,26.16382 z"
     fill="#cbcbfb"
     id="path48"
     sodipodi:nodetypes="ssssss"
     style="fill:#fa595f;fill-opacity:1" />
  <path
     d="m 281.86803,235.92954 h -7.74261 v -7.74271 c 0,-1.42542 -1.15552,-2.58093 -2.58093,-2.58093 -1.42541,0 -2.58093,1.15552 -2.58093,2.58093 v 7.74271 h -7.74274 c -1.42542,0 -2.58087,1.15552 -2.58087,2.58093 0,1.42541 1.15546,2.58087 2.58087,2.58087 h 7.74274 v 7.74274 c 0,1.42542 1.15552,2.58093 2.58093,2.58093 1.42541,0 2.58093,-1.15552 2.58093,-2.58093 v -7.74274 h 7.74261 c 1.42542,0 2.58087,-1.15552 2.58087,-2.58087 0,-1.42535 -1.15546,-2.58093 -2.58087,-2.58093 z"
     fill="#ffffff"
     id="path49"
     sodipodi:nodetypes="scssscssscssscsss"
     style="fill:#ffffff;fill-opacity:1" />
</svg>
