<?xml version="1.0" encoding="UTF-8" standalone="no"?>
<svg
   id="Calque_1"
   data-name="Calque 1"
   viewBox="0 0 1920 832.53427"
   version="1.1"
   sodipodi:docname="metriz_illus.svg"
   width="1920"
   height="832.5343"
   inkscape:version="1.4.2 (f4327f4, 2025-05-13)"
   xmlns:inkscape="http://www.inkscape.org/namespaces/inkscape"
   xmlns:sodipodi="http://sodipodi.sourceforge.net/DTD/sodipodi-0.dtd"
   xmlns="http://www.w3.org/2000/svg"
   xmlns:svg="http://www.w3.org/2000/svg">
  <sodipodi:namedview
     id="namedview287"
     pagecolor="#ffffff"
     bordercolor="#000000"
     borderopacity="0.25"
     inkscape:showpageshadow="2"
     inkscape:pageopacity="0.0"
     inkscape:pagecheckerboard="0"
     inkscape:deskcolor="#d1d1d1"
     inkscape:zoom="1.3939605"
     inkscape:cx="1352.9795"
     inkscape:cy="762.93412"
     inkscape:window-width="1920"
     inkscape:window-height="991"
     inkscape:window-x="-9"
     inkscape:window-y="-9"
     inkscape:window-maximized="1"
     inkscape:current-layer="g287" />
  <defs
     id="defs1">
    <style
       id="style1">
      .cls-1 {
        fill: #003280;
      }

      .cls-2 {
        fill: #f0f0f8;
      }

      .cls-3, .cls-4, .cls-5 {
        fill: #fff;
      }

      .cls-6 {
        fill: #ffecd8;
      }

      .cls-7 {
        fill: #ecedff;
      }

      .cls-8 {
        fill: #ffcb98;
      }

      .cls-9 {
        fill: #fbe0b5;
      }

      .cls-10 {
        fill: #e5e5e5;
      }

      .cls-11 {
        fill: #fbb03b;
      }

      .cls-12, .cls-13, .cls-14 {
        fill: #efeff8;
      }

      .cls-15 {
        fill: #8cb2ff;
      }

      .cls-16 {
        fill: #8da6c4;
      }

      .cls-17 {
        fill: #cecfda;
      }

      .cls-18 {
        fill: #cad9ff;
      }

      .cls-19 {
        fill: #ddebf9;
      }

      .cls-20 {
        fill: #dddff0;
      }

      .cls-21 {
        fill: #c8e0ff;
      }

      .cls-22 {
        fill: #d6d6d6;
      }

      .cls-23, .cls-24 {
        fill: #d9e7ff;
      }

      .cls-25 {
        fill: #110045;
      }

      .cls-26 {
        fill: #1c1468;
      }

      .cls-27, .cls-28 {
        fill: #191558;
      }

      .cls-29 {
        fill: #5366ac;
      }

      .cls-30 {
        fill: #5b69c2;
      }

      .cls-4, .cls-5 {
        font-family: ArialMT, Arial;
        font-size: 12px;
      }

      .cls-4, .cls-5, .cls-13, .cls-14 {
        isolation: isolate;
      }

      .cls-28, .cls-24, .cls-31, .cls-32, .cls-33, .cls-34, .cls-35, .cls-36 {
        stroke-miterlimit: 10;
      }

      .cls-28, .cls-24, .cls-31, .cls-32, .cls-34, .cls-35, .cls-36 {
        stroke: #191558;
      }

      .cls-28, .cls-31 {
        stroke-width: 4px;
      }

      .cls-5 {
        letter-spacing: -.02em;
      }

      .cls-13 {
        opacity: .92;
      }

      .cls-14 {
        opacity: .81;
      }

      .cls-24, .cls-35 {
        stroke-width: 7px;
      }

      .cls-31, .cls-32, .cls-33, .cls-34, .cls-35, .cls-36 {
        fill: none;
      }

      .cls-33 {
        stroke: #000;
      }

      .cls-34 {
        stroke-width: 11px;
      }

      .cls-37 {
        opacity: .75;
      }

      .cls-36 {
        stroke-width: 9px;
      }
    </style>
  </defs>
  <g
     id="g287"
     style="opacity:0.922349"
     transform="matrix(0.39314418,0,0,0.39314418,-84.799409,-30.999669)">
    <g
       id="g18"
       transform="translate(0,1.9591126)"
       style="opacity:0.5;fill:#eeefff;fill-opacity:0.551515">
      <path
         class="cls-15"
         d="m 4927.1,1991.6 c 0.4,-26.2 40.1,-53.9 77.1,-67 30.8,-10.9 46.6,-35.6 44,-40.1 -18.7,-33.2 -141,7.6 -128.1,-21.1 7.8,-17.3 49.4,-40.8 128.8,-93.8 -33.5,-7 -48.4,-0.1 -170.1,9.3 -72.7,5.6 -45.9,2.4 -185.9,8.9 -16.8,0.8 -147.1,23.4 -176.9,16.5 -24.4,-5.7 -135.7,13.9 -140.5,9.6 -59.5,-53.9 -200.1,30.8 -386.4,30.8 -42.1,0 -94.5,-10.7 -145.5,-27.5 v 258.9 c 0,92.9 75.3,168.3 168.3,168.3 H 5099.4 V 2122 c -91.6,-27.3 -173,-88.7 -172.3,-130.4 z"
         id="path1"
         style="fill:#eeefff;fill-opacity:0.551515" />
      <path
         class="cls-21"
         d="m 4410.1,1417.2 c 154.5,-26.6 309.5,-60.9 391.8,-109.3 46.7,-27.5 96.7,-48.9 144.4,-74.5 11.2,-6 20.3,-11 28,-15 -8.8,-5.8 -17.9,-12.1 -27.7,-19.1 -18.6,-13.3 -46.1,-33 -76.9,-60.6 -68.4,-61.3 -65.5,-83.2 -121.1,-121.1 -48.5,-33 -78.9,-35.5 -95.5,-34.9 -6.2,0.2 -28.4,1.4 -53.6,14 -40.6,20.3 -57.5,54.3 -76.9,83.9 -21.5,32.7 -57.8,66.1 -130.5,132.8 -82.2,75.5 -90,88.8 -117.4,109.5 -40.1,30.3 -210.3,100.1 -259.4,147.5 125.1,-37.3 266.1,-60.5 394.8,-53.2 z"
         id="path2"
         style="fill:#eeefff;fill-opacity:0.551515" />
      <path
         class="cls-16"
         d="m 5099.4,1294 v -65.3 c -35.8,-19.4 -53,-27.2 -78.6,-25.6 -15.9,1 -26.9,5.2 -46.5,15.3 23.2,15.4 43.3,27.4 63.2,39.1 23.7,14 44.2,26.1 61.9,36.5 z"
         id="path3"
         style="fill:#eeefff;fill-opacity:0.551515" />
      <path
         class="cls-16"
         d="m 5060.8,1541.7 c -26.5,15.1 -56.4,28.5 -89.1,40.2 45.4,16.7 84.4,34.6 98.8,50.4 2.3,2.5 14.2,16.5 25.6,14 1.2,-0.3 2.3,-0.7 3.3,-1.3 v -127.6 c -20.4,13.8 -36,22.9 -38.6,24.3 z"
         id="path4"
         style="fill:#eeefff;fill-opacity:0.551515" />
      <path
         class="cls-16"
         d="m 4801.9,1307.9 c -82.3,48.4 -237.3,82.7 -391.8,109.3 15.1,0.9 30.1,2.1 44.8,3.9 127.6,15 230.2,56.6 301.7,93.6 h 342.8 v -220.8 c -17.7,-10.4 -38.2,-22.4 -61.9,-36.5 -19.9,-11.7 -40,-23.6 -63.2,-39.1 -7.7,4 -16.8,8.9 -28,15 -47.7,25.7 -97.7,47.1 -144.4,74.6 z"
         id="path5"
         style="fill:#eeefff;fill-opacity:0.551515" />
      <path
         class="cls-16"
         d="m 4971.7,1581.9 c 32.6,-11.7 62.6,-25.1 89.1,-40.2 2.6,-1.4 18.2,-10.5 38.6,-24.2 v -2.8 h -342.8 c 3.8,1.9 7.5,3.9 11.1,5.8 0,0 114.5,28.5 204,61.4 z"
         id="path6"
         style="fill:#eeefff;fill-opacity:0.551515" />
      <path
         class="cls-23"
         d="m 3857.5,1615.9 c -236.5,-7.9 109.2,-94.7 106.8,-111.6 -0.9,-6.7 13.7,-13.3 39.8,-19.9 2.2,-4.4 6,-9.1 11.1,-14 -206.9,61.6 -370.7,161.4 -364.9,224.6 3.9,42.4 95.9,96.2 193.2,128.2 V 1683 c 0.1,-23.9 5.1,-46.6 14,-67.1 z"
         id="path7"
         style="fill:#eeefff;fill-opacity:0.551515" />
      <path
         class="cls-23"
         d="m 4375.5,1819.9 c 4.8,4.3 116.1,-15.3 140.5,-9.6 29.8,6.9 160.1,-15.7 176.9,-16.5 140,-6.5 113.2,-3.3 185.9,-8.9 121.7,-9.4 136.6,-16.3 170.1,-9.3 15.4,-10.3 32.2,-21.6 50.5,-34.3 v -78.4 c -43.7,1 -82.3,-38.6 -163.2,-69.3 -228.6,70.1 -562.6,68.2 -764.5,10.1 -153.9,10.9 -253.3,14.1 -314.2,12.1 -9,20.6 -13.9,43.3 -13.9,67.1 v 140.2 c 51,16.8 103.4,27.5 145.5,27.5 186.3,0.1 326.9,-84.6 386.4,-30.7 z"
         id="path8"
         style="fill:#eeefff;fill-opacity:0.551515" />
      <path
         class="cls-23"
         d="m 4004.1,1484.4 c 73.9,-18.8 239.6,-38.5 406,-67.2 -128.7,-7.3 -269.7,15.9 -394.8,53.2 -5.1,4.9 -8.9,9.6 -11.2,14 z"
         id="path9"
         style="fill:#eeefff;fill-opacity:0.551515" />
      <path
         class="cls-23"
         d="m 4624.8,1564.2 c -187.2,18.4 -335.9,31.3 -453.1,39.6 201.8,58.1 535.9,60 764.5,-10.1 -66.5,-25.2 -161.5,-44.3 -311.4,-29.5 z"
         id="path10"
         style="fill:#eeefff;fill-opacity:0.551515" />
      <path
         class="cls-23"
         d="m 4011.9,1514.7 h 0.5 c -4,-5.7 -7.2,-11.6 -9.6,-17.7 -1.5,-3.8 -1,-8 1.3,-12.6 -26.2,6.6 -40.8,13.2 -39.8,19.9 2.4,16.9 -343.2,103.6 -106.8,111.6 26,-59.5 85.4,-101.2 154.4,-101.2 z"
         id="path11"
         style="fill:#eeefff;fill-opacity:0.551515" />
      <path
         class="cls-23"
         d="m 4012.4,1514.7 h -0.5 c -69,0 -128.4,41.7 -154.4,101.2 60.9,2 160.3,-1.1 314.2,-12.1 -76.3,-22 -133.7,-51.9 -159.3,-89.1 z"
         id="path12"
         style="fill:#eeefff;fill-opacity:0.551515" />
      <path
         class="cls-23"
         d="m 5096.1,1646.3 c -11.4,2.5 -23.3,-11.5 -25.6,-14 -14.3,-15.9 -53.3,-33.7 -98.8,-50.4 -11.5,4.1 -23.4,8.1 -35.5,11.8 80.9,30.6 119.5,70.3 163.2,69.3 v -17.9 c -1,0.5 -2.1,0.9 -3.3,1.2 z"
         id="path13"
         style="fill:#eeefff;fill-opacity:0.551515" />
      <path
         class="cls-23"
         d="m 4002.8,1497 c 2.4,6.1 5.6,12 9.6,17.7 h 744.3 c -71.5,-37 -174.2,-78.6 -301.7,-93.6 -14.7,-1.7 -29.7,-3 -44.8,-3.9 -166.3,28.7 -332.1,48.4 -406,67.2 -2.4,4.6 -2.9,8.8 -1.4,12.6 z"
         id="path14"
         style="fill:#eeefff;fill-opacity:0.551515" />
      <path
         class="cls-23"
         d="m 4767.7,1520.5 c -3.6,-1.9 -7.3,-3.9 -11.1,-5.8 h -744.3 c 25.7,37.2 83.1,67.1 159.4,89.1 117.1,-8.3 265.8,-21.2 453.1,-39.6 149.9,-14.8 244.9,4.3 311.4,29.5 12.2,-3.7 24,-7.7 35.5,-11.8 -89.5,-32.9 -204,-61.4 -204,-61.4 z"
         id="path15"
         style="fill:#eeefff;fill-opacity:0.551515" />
      <path
         class="cls-23"
         d="m 5048.9,1775.6 c -79.5,53 -121,76.5 -128.8,93.8 -12.9,28.7 109.4,-12.1 128.1,21.1 2.6,4.5 -13.2,29.2 -44,40.1 -37,13.1 -76.7,40.8 -77.1,67 -0.7,41.7 80.7,103.1 172.3,130.4 v -338.5 c -23.4,-6.9 -38.2,-11.3 -50.5,-13.9 z"
         id="path16"
         style="fill:#eeefff;fill-opacity:0.551515" />
      <path
         class="cls-23"
         d="m 5099.4,1741.3 c -18.3,12.6 -35.1,24 -50.5,34.3 12.3,2.6 27,7 50.5,13.9 z"
         id="path17"
         style="fill:#eeefff;fill-opacity:0.551515" />
      <path
         class="cls-2"
         d="m 3326.1,1483.5 c 202.7,-74 769,182 896.8,274.2 22,15.8 75.4,58.1 152.6,64.7 61.9,5.3 77.1,-19.7 149.1,-16.3 62.3,3 48.5,17.2 177,46.6 22,5 76,24.3 184,62.9 8.6,3.1 26.9,9.8 28,21 1.7,18.2 -43.3,36.4 -62.9,44.3 -83.4,33.6 -144.7,25.8 -149.1,46.6 -1.3,6.4 5.3,13.6 18.6,28 28.9,31.2 47.4,33.3 74.5,62.9 20.1,22 21,33 21,37.3 0,13.6 -8.2,24.8 -21,37.3 -11,10.8 -26.5,26 -49.8,38.6 0,0 -14.5,7.7 -29.4,12.6 -50.7,16.9 -1763.7,-6.7 -1857.2,2.6 -350,34.8 -278.1,-490.8 467.8,-763.3 z"
         id="path18"
         style="fill:#eeefff;fill-opacity:0.551515" />
    </g>
    <g
       id="g78"
       style="opacity:0.5;fill:#eeefff;fill-opacity:0.551515"
       transform="translate(0,345.92896)">
      <path
         class="cls-7"
         d="M 2390.9,2189.7 H 1166.2 V 778.2 c 0,-6.1 4.9,-11 11,-11 h 1202.6 c 6.1,0 11,4.9 11,11 v 1411.5 z"
         id="path19"
         style="fill:#eeefff;fill-opacity:0.551515"
         sodipodi:nodetypes="ccsssscc" />
      <path
         class="cls-17"
         d="m 1284.6,885.2 h -43.3 c -0.9,0 -1.6,-0.7 -1.6,-1.6 v -61.2 c 0,-0.9 0.7,-1.6 1.6,-1.6 h 43.2 c 0.9,0 1.6,0.7 1.6,1.6 v 61.2 c 0.1,0.9 -0.6,1.6 -1.5,1.6 z"
         id="path20"
         style="fill:#eeefff;fill-opacity:0.551515"
         sodipodi:nodetypes="ssssssscs" />
      <path
         class="cls-17"
         d="m 1340.4,885.2 h -43.2 c -0.9,0 -1.6,-0.7 -1.6,-1.6 v -61.2 c 0,-0.9 0.7,-1.6 1.6,-1.6 h 43.2 c 0.9,0 1.6,0.7 1.6,1.6 v 61.2 c 0,0.9 -0.7,1.6 -1.6,1.6 z"
         id="path21"
         style="fill:#eeefff;fill-opacity:0.551515"
         sodipodi:nodetypes="sssssssss" />
      <path
         class="cls-17"
         d="m 1395,885.2 h -43.2 c -0.9,0 -1.6,-0.7 -1.6,-1.6 v -61.2 c 0,-0.9 0.7,-1.6 1.6,-1.6 h 43.2 c 0.9,0 1.6,0.7 1.6,1.6 v 61.2 c 0,0.9 -0.7,1.6 -1.6,1.6 z"
         id="path22"
         style="fill:#eeefff;fill-opacity:0.551515"
         sodipodi:nodetypes="sssssssss" />
      <path
         class="cls-17"
         d="m 1230.8,961.2 h -43.2 c -0.9,0 -1.6,-0.7 -1.6,-1.6 v -61.2 c 0,-0.9 0.7,-1.6 1.6,-1.6 h 43.2 c 0.9,0 1.6,0.7 1.6,1.6 v 61.2 c 0.1,0.9 -0.7,1.6 -1.6,1.6 z"
         id="path23"
         style="fill:#eeefff;fill-opacity:0.551515"
         sodipodi:nodetypes="ssssssscs" />
      <path
         class="cls-9"
         d="m 1284.6,961.2 h -43.3 c -0.9,0 -1.6,-0.7 -1.6,-1.6 v -61.2 c 0,-0.9 0.7,-1.6 1.6,-1.6 h 43.2 c 0.9,0 1.6,0.7 1.6,1.6 v 61.2 c 0.1,0.9 -0.6,1.6 -1.5,1.6 z"
         id="path24"
         style="fill:#eeefff;fill-opacity:0.551515"
         sodipodi:nodetypes="ssssssscs" />
      <path
         class="cls-17"
         d="m 1340.4,961.2 h -43.2 c -0.9,0 -1.6,-0.7 -1.6,-1.6 v -61.2 c 0,-0.9 0.7,-1.6 1.6,-1.6 h 43.2 c 0.9,0 1.6,0.7 1.6,1.6 v 61.2 c 0,0.9 -0.7,1.6 -1.6,1.6 z"
         id="path25"
         style="fill:#eeefff;fill-opacity:0.551515"
         sodipodi:nodetypes="sssssssss" />
      <path
         class="cls-17"
         d="m 1395,961.2 h -43.2 c -0.9,0 -1.6,-0.7 -1.6,-1.6 v -61.2 c 0,-0.9 0.7,-1.6 1.6,-1.6 h 43.2 c 0.9,0 1.6,0.7 1.6,1.6 v 61.2 c 0,0.9 -0.7,1.6 -1.6,1.6 z"
         id="path26"
         style="fill:#eeefff;fill-opacity:0.551515"
         sodipodi:nodetypes="sssssssss" />
      <path
         class="cls-17"
         d="m 1230.8,1037.2 h -43.2 c -0.9,0 -1.6,-0.7 -1.6,-1.6 v -61.2 c 0,-0.9 0.7,-1.6 1.6,-1.6 h 43.2 c 0.9,0 1.6,0.7 1.6,1.6 v 61.2 c 0.1,0.9 -0.7,1.6 -1.6,1.6 z"
         id="path27"
         style="fill:#eeefff;fill-opacity:0.551515"
         sodipodi:nodetypes="ssssssscs" />
      <path
         class="cls-17"
         d="m 1284.6,1037.2 h -43.3 c -0.9,0 -1.6,-0.7 -1.6,-1.6 v -61.2 c 0,-0.9 0.7,-1.6 1.6,-1.6 h 43.2 c 0.9,0 1.6,0.7 1.6,1.6 v 61.2 c 0.1,0.9 -0.6,1.6 -1.5,1.6 z"
         id="path28"
         style="fill:#eeefff;fill-opacity:0.551515"
         sodipodi:nodetypes="ssssssscs" />
      <path
         class="cls-17"
         d="m 1340.4,1037.2 h -43.2 c -0.9,0 -1.6,-0.7 -1.6,-1.6 v -61.2 c 0,-0.9 0.7,-1.6 1.6,-1.6 h 43.2 c 0.9,0 1.6,0.7 1.6,1.6 v 61.2 c 0,0.9 -0.7,1.6 -1.6,1.6 z"
         id="path29"
         style="fill:#eeefff;fill-opacity:0.551515"
         sodipodi:nodetypes="sssssssss" />
      <path
         class="cls-17"
         d="m 1395,1037.2 h -43.2 c -0.9,0 -1.6,-0.7 -1.6,-1.6 v -61.2 c 0,-0.9 0.7,-1.6 1.6,-1.6 h 43.2 c 0.9,0 1.6,0.7 1.6,1.6 v 61.2 c 0,0.9 -0.7,1.6 -1.6,1.6 z"
         id="path30"
         style="fill:#eeefff;fill-opacity:0.551515"
         sodipodi:nodetypes="sssssssss" />
      <path
         class="cls-17"
         d="m 1230.8,1113.2 h -43.2 c -0.9,0 -1.6,-0.7 -1.6,-1.6 v -61.2 c 0,-0.9 0.7,-1.6 1.6,-1.6 h 43.2 c 0.9,0 1.6,0.7 1.6,1.6 v 61.2 c 0.1,0.9 -0.7,1.6 -1.6,1.6 z"
         id="path31"
         style="fill:#eeefff;fill-opacity:0.551515"
         sodipodi:nodetypes="ssssssscs" />
      <path
         class="cls-17"
         d="m 1284.6,1113.2 h -43.3 c -0.9,0 -1.6,-0.7 -1.6,-1.6 v -61.2 c 0,-0.9 0.7,-1.6 1.6,-1.6 h 43.2 c 0.9,0 1.6,0.7 1.6,1.6 v 61.2 c 0.1,0.9 -0.6,1.6 -1.5,1.6 z"
         id="path32"
         style="fill:#eeefff;fill-opacity:0.551515"
         sodipodi:nodetypes="ssssssscs" />
      <path
         class="cls-7"
         d="M 2958,2189.7 H 2586.5 V 452.2 c 0,-5.4 4.9,-9.7 11,-9.7 H 2947 c 6.1,0 11,4.3 11,9.7 z"
         id="path33"
         style="fill:#eeefff;fill-opacity:0.551515"
         sodipodi:nodetypes="ccssssc" />
      <path
         class="cls-9"
         d="m 1340.4,1113.2 h -43.2 c -0.9,0 -1.6,-0.7 -1.6,-1.6 v -61.2 c 0,-0.9 0.7,-1.6 1.6,-1.6 h 43.2 c 0.9,0 1.6,0.7 1.6,1.6 v 61.2 c 0,0.9 -0.7,1.6 -1.6,1.6 z"
         id="path34"
         style="fill:#eeefff;fill-opacity:0.551515"
         sodipodi:nodetypes="sssssssss" />
      <path
         class="cls-17"
         d="m 1395,1113.2 h -43.2 c -0.9,0 -1.6,-0.7 -1.6,-1.6 v -61.2 c 0,-0.9 0.7,-1.6 1.6,-1.6 h 43.2 c 0.9,0 1.6,0.7 1.6,1.6 v 61.2 c 0,0.9 -0.7,1.6 -1.6,1.6 z"
         id="path35"
         style="fill:#eeefff;fill-opacity:0.551515"
         sodipodi:nodetypes="sssssssss" />
      <path
         class="cls-20"
         d="M 1823.7,2189.7 H 1355.8 V 584.8 c 0,-6.1 4.9,-11 11,-11 h 445.9 c 6.1,0 11,4.9 11,11 z"
         id="path36"
         style="fill:#eeefff;fill-opacity:0.551515"
         sodipodi:nodetypes="ccssssc" />
      <path
         class="cls-17"
         d="m 2357.6,855.8 h -170.3 c -0.9,0 -1.6,-0.7 -1.6,-1.6 v -44.9 c 0,-0.9 0.7,-1.6 1.6,-1.6 h 170.3 c 0.9,0 1.6,0.7 1.6,1.6 v 44.9 c 0,0.9 -0.7,1.6 -1.6,1.6 z"
         id="path37"
         style="fill:#eeefff;fill-opacity:0.551515"
         sodipodi:nodetypes="sssssssss" />
      <path
         class="cls-17"
         d="m 2357.6,926 h -170.3 c -0.9,0 -1.6,-0.7 -1.6,-1.6 v -44.9 c 0,-0.9 0.7,-1.6 1.6,-1.6 h 170.3 c 0.9,0 1.6,0.7 1.6,1.6 v 44.9 c 0,0.9 -0.7,1.6 -1.6,1.6 z"
         id="path38"
         style="fill:#eeefff;fill-opacity:0.551515"
         sodipodi:nodetypes="sssssssss" />
      <path
         class="cls-17"
         d="m 2357.6,996.3 h -170.3 c -0.9,0 -1.6,-0.7 -1.6,-1.6 v -44.9 c 0,-0.9 0.7,-1.6 1.6,-1.6 h 170.3 c 0.9,0 1.6,0.7 1.6,1.6 v 44.9 c 0,0.9 -0.7,1.6 -1.6,1.6 z"
         id="path39"
         style="fill:#eeefff;fill-opacity:0.551515"
         sodipodi:nodetypes="sssssssss" />
      <path
         class="cls-17"
         d="m 2357.6,1161 h -170.3 c -0.9,0 -1.6,-0.7 -1.6,-1.6 v -44.9 c 0,-0.9 0.7,-1.6 1.6,-1.6 h 170.3 c 0.9,0 1.6,0.7 1.6,1.6 v 44.9 c 0,0.9 -0.7,1.6 -1.6,1.6 z"
         id="path40"
         style="fill:#eeefff;fill-opacity:0.551515"
         sodipodi:nodetypes="sssssssss" />
      <path
         class="cls-7"
         d="M 2195.3,2176.5 H 1823.8 V 354.3 c 0,-6.1 4.9,-11 11,-11 h 349.5 c 6.1,0 11,4.9 11,11 z"
         id="path41"
         style="fill:#eeefff;fill-opacity:0.551515"
         sodipodi:nodetypes="ccssssc" />
      <path
         class="cls-17"
         d="m 2163.2,456.2 h -67.5 c -0.9,0 -1.6,-0.7 -1.6,-1.6 v -44.9 c 0,-0.9 0.7,-1.6 1.6,-1.6 h 67.5 c 0.9,0 1.6,0.7 1.6,1.6 v 44.9 c 0,0.9 -0.7,1.6 -1.6,1.6 z"
         id="path42"
         style="fill:#eeefff;fill-opacity:0.551515"
         sodipodi:nodetypes="sssssssss" />
      <path
         class="cls-17"
         d="m 2163.2,530.8 h -67.5 c -0.9,0 -1.6,-0.7 -1.6,-1.6 v -44.9 c 0,-0.9 0.7,-1.6 1.6,-1.6 h 67.5 c 0.9,0 1.6,0.7 1.6,1.6 v 44.9 c 0,0.9 -0.7,1.6 -1.6,1.6 z"
         id="path43"
         style="fill:#eeefff;fill-opacity:0.551515"
         sodipodi:nodetypes="sssssssss" />
      <path
         class="cls-17"
         d="m 2163.2,605.4 h -67.5 c -0.9,0 -1.6,-0.7 -1.6,-1.6 v -44.9 c 0,-0.9 0.7,-1.6 1.6,-1.6 h 67.5 c 0.9,0 1.6,0.7 1.6,1.6 v 44.9 c 0,0.9 -0.7,1.6 -1.6,1.6 z"
         id="path44"
         style="fill:#eeefff;fill-opacity:0.551515"
         sodipodi:nodetypes="sssssssss" />
      <path
         class="cls-17"
         d="m 1459.4,653.5 h -67.5 c -0.9,0 -1.6,-0.7 -1.6,-1.6 V 607 c 0,-0.9 0.7,-1.6 1.6,-1.6 h 67.5 c 0.9,0 1.6,0.7 1.6,1.6 v 44.9 c 0,0.9 -0.7,1.6 -1.6,1.6 z"
         id="path45"
         style="fill:#eeefff;fill-opacity:0.551515"
         sodipodi:nodetypes="sssssssss" />
      <path
         class="cls-9"
         d="m 1459.4,720.3 h -67.5 c -0.9,0 -1.6,-0.7 -1.6,-1.6 v -44.9 c 0,-0.9 0.7,-1.6 1.6,-1.6 h 67.5 c 0.9,0 1.6,0.7 1.6,1.6 v 44.9 c 0,0.8 -0.7,1.6 -1.6,1.6 z"
         id="path46"
         style="fill:#eeefff;fill-opacity:0.551515"
         sodipodi:nodetypes="sssssssss" />
      <path
         class="cls-17"
         d="m 1459.4,787 h -67.5 c -0.9,0 -1.6,-0.7 -1.6,-1.6 v -44.9 c 0,-0.9 0.7,-1.6 1.6,-1.6 h 67.5 c 0.9,0 1.6,0.7 1.6,1.6 v 44.9 c 0,0.9 -0.7,1.6 -1.6,1.6 z"
         id="path47"
         style="fill:#eeefff;fill-opacity:0.551515"
         sodipodi:nodetypes="sssssssss" />
      <path
         class="cls-17"
         d="m 1544,653.5 h -67.5 c -0.9,0 -1.6,-0.7 -1.6,-1.6 V 607 c 0,-0.9 0.7,-1.6 1.6,-1.6 h 67.5 c 0.9,0 1.6,0.7 1.6,1.6 v 44.9 c 0,0.9 -0.7,1.6 -1.6,1.6 z"
         id="path48"
         style="fill:#eeefff;fill-opacity:0.551515"
         sodipodi:nodetypes="sssssssss" />
      <path
         class="cls-17"
         d="m 1230.8,885.2 h -43.2 c -0.9,0 -1.6,-0.7 -1.6,-1.6 v -61.2 c 0,-0.9 0.7,-1.6 1.6,-1.6 h 43.2 c 0.9,0 1.6,0.7 1.6,1.6 v 61.2 c 0.1,0.9 -0.7,1.6 -1.6,1.6 z"
         id="path49"
         style="fill:#eeefff;fill-opacity:0.551515"
         sodipodi:nodetypes="ssssssscs" />
      <path
         class="cls-17"
         d="m 1799.8,1161 h -67.5 c -0.9,0 -1.6,-0.7 -1.6,-1.6 v -44.9 c 0,-0.9 0.7,-1.6 1.6,-1.6 h 67.5 c 0.9,0 1.6,0.7 1.6,1.6 v 44.9 c 0,0.9 -0.7,1.6 -1.6,1.6 z"
         id="path50"
         style="fill:#eeefff;fill-opacity:0.551515"
         sodipodi:nodetypes="sssssssss" />
      <path
         class="cls-17"
         d="m 1799.8,1228.2 h -67.5 c -0.9,0 -1.6,-0.7 -1.6,-1.6 v -44.9 c 0,-0.9 0.7,-1.6 1.6,-1.6 h 67.5 c 0.9,0 1.6,0.7 1.6,1.6 v 44.9 c 0,0.9 -0.7,1.6 -1.6,1.6 z"
         id="path51"
         style="fill:#eeefff;fill-opacity:0.551515"
         sodipodi:nodetypes="sssssssss" />
      <path
         class="cls-17"
         d="m 1799.8,1295.4 h -67.5 c -0.9,0 -1.6,-0.7 -1.6,-1.6 v -44.9 c 0,-0.9 0.7,-1.6 1.6,-1.6 h 67.5 c 0.9,0 1.6,0.7 1.6,1.6 v 44.9 c 0,0.9 -0.7,1.6 -1.6,1.6 z"
         id="path52"
         style="fill:#eeefff;fill-opacity:0.551515"
         sodipodi:nodetypes="sssssssss" />
      <path
         class="cls-10"
         d="M 2219.9,2189.7 H 1848.3 V 1007.3 c 0,-6.1 4.9,-11 11,-11 h 349.5 c 6.1,0 11,4.9 11,11 v 1182.4 z"
         id="path53"
         style="fill:#eeefff;fill-opacity:0.551515"
         sodipodi:nodetypes="ccsssscc" />
      <path
         class="cls-22"
         d="m 1846.4,2189.7 h -371.5 v -848.6 c 0,-6.1 4.9,-11 11,-11 h 349.5 c 6.1,0 11,4.9 11,11 z"
         id="path54"
         style="fill:#eeefff;fill-opacity:0.551515"
         sodipodi:nodetypes="ccssssc" />
      <path
         class="cls-10"
         d="M 2854.8,2189.7 H 2442.3 V 777.5 c 0,-6.1 4.9,-11 11,-11 h 390.5 c 6.1,0 11,4.9 11,11 z"
         id="path55"
         style="fill:#eeefff;fill-opacity:0.551515"
         sodipodi:nodetypes="ccssssc" />
      <path
         class="cls-22"
         d="m 2576.7,2189.7 h -371.5 v -950.5 c 0,-6.1 4.9,-11 11,-11 h 349.5 c 6.1,0 11,4.9 11,11 z"
         id="path56"
         style="fill:#eeefff;fill-opacity:0.551515"
         sodipodi:nodetypes="ccssssc" />
      <path
         class="cls-29"
         d="m 2544.3,850.5 h -66.9 c -1.1,0 -1.9,-0.9 -1.9,-1.9 v -44.3 c 0,-1.1 0.9,-1.9 1.9,-1.9 h 66.9 c 1.1,0 1.9,0.9 1.9,1.9 v 44.3 c 0,1 -0.9,1.9 -1.9,1.9 z"
         id="path57"
         style="fill:#eeefff;fill-opacity:0.551515"
         sodipodi:nodetypes="sssssssss" />
      <path
         class="cls-11"
         d="m 2544.3,906.4 h -66.9 c -1.1,0 -1.9,-0.9 -1.9,-1.9 v -44.3 c 0,-1.1 0.9,-1.9 1.9,-1.9 h 66.9 c 1.1,0 1.9,0.9 1.9,1.9 v 44.3 c 0,1 -0.9,1.9 -1.9,1.9 z"
         id="path58"
         style="fill:#eeefff;fill-opacity:0.551515"
         sodipodi:nodetypes="sssssssss" />
      <path
         class="cls-29"
         d="m 2544.3,962.2 h -66.9 c -1.1,0 -1.9,-0.9 -1.9,-1.9 V 916 c 0,-1.1 0.9,-1.9 1.9,-1.9 h 66.9 c 1.1,0 1.9,0.9 1.9,1.9 v 44.3 c 0,1 -0.9,1.9 -1.9,1.9 z"
         id="path59"
         style="fill:#eeefff;fill-opacity:0.551515"
         sodipodi:nodetypes="sssssssss" />
      <path
         class="cls-29"
         d="m 2837,1163.6 h -66.9 c -1.1,0 -1.9,-0.9 -1.9,-1.9 v -44.3 c 0,-1.1 0.9,-1.9 1.9,-1.9 h 66.9 c 1.1,0 1.9,0.9 1.9,1.9 v 44.3 c 0,1 -0.8,1.9 -1.9,1.9 z"
         id="path60"
         style="fill:#eeefff;fill-opacity:0.551515"
         sodipodi:nodetypes="sssssssss" />
      <path
         class="cls-11"
         d="m 2837,1221.3 h -66.9 c -1.1,0 -1.9,-0.9 -1.9,-1.9 v -44.3 c 0,-1.1 0.9,-1.9 1.9,-1.9 h 66.9 c 1.1,0 1.9,0.9 1.9,1.9 v 44.3 c 0,1.1 -0.8,1.9 -1.9,1.9 z"
         id="path61"
         style="fill:#eeefff;fill-opacity:0.551515"
         sodipodi:nodetypes="sssssssss" />
      <path
         class="cls-11"
         d="m 2837,1279.1 h -66.9 c -1.1,0 -1.9,-0.9 -1.9,-1.9 v -44.3 c 0,-1.1 0.9,-1.9 1.9,-1.9 h 66.9 c 1.1,0 1.9,0.9 1.9,1.9 v 44.3 c 0,1 -0.8,1.9 -1.9,1.9 z"
         id="path62"
         style="fill:#eeefff;fill-opacity:0.551515"
         sodipodi:nodetypes="sssssssss" />
      <path
         class="cls-29"
         d="m 2837,1336.8 h -66.9 c -1.1,0 -1.9,-0.9 -1.9,-1.9 v -44.3 c 0,-1.1 0.9,-1.9 1.9,-1.9 h 66.9 c 1.1,0 1.9,0.9 1.9,1.9 v 44.3 c 0,1 -0.8,1.9 -1.9,1.9 z"
         id="path63"
         style="fill:#eeefff;fill-opacity:0.551515"
         sodipodi:nodetypes="sssssssss" />
      <path
         class="cls-29"
         d="m 2737.6,1411.1 h -66.9 c -1.1,0 -1.9,-0.9 -1.9,-1.9 v -44.3 c 0,-1.1 0.9,-1.9 1.9,-1.9 h 66.9 c 1.1,0 1.9,0.9 1.9,1.9 v 44.3 c 0,1 -0.8,1.9 -1.9,1.9 z"
         id="path64"
         style="fill:#eeefff;fill-opacity:0.551515"
         sodipodi:nodetypes="sssssssss" />
      <path
         class="cls-29"
         d="m 2737.6,1468.8 h -66.9 c -1.1,0 -1.9,-0.9 -1.9,-1.9 v -44.3 c 0,-1.1 0.9,-1.9 1.9,-1.9 h 66.9 c 1.1,0 1.9,0.9 1.9,1.9 v 44.3 c 0,1.1 -0.8,1.9 -1.9,1.9 z"
         id="path65"
         style="fill:#eeefff;fill-opacity:0.551515"
         sodipodi:nodetypes="sssssssss" />
      <path
         class="cls-29"
         d="m 2737.6,1526.6 h -66.9 c -1.1,0 -1.9,-0.9 -1.9,-1.9 v -44.3 c 0,-1.1 0.9,-1.9 1.9,-1.9 h 66.9 c 1.1,0 1.9,0.9 1.9,1.9 v 44.3 c 0,1 -0.8,1.9 -1.9,1.9 z"
         id="path66"
         style="fill:#eeefff;fill-opacity:0.551515"
         sodipodi:nodetypes="sssssssss" />
      <path
         class="cls-29"
         d="m 1660.4,1423.2 h -164.8 c -1.1,0 -1.9,-0.9 -1.9,-1.9 V 1377 c 0,-1.1 0.9,-1.9 1.9,-1.9 h 164.8 c 1.1,0 1.9,0.9 1.9,1.9 v 44.3 c 0,1.1 -0.9,1.9 -1.9,1.9 z"
         id="path67"
         style="fill:#eeefff;fill-opacity:0.551515"
         sodipodi:nodetypes="sssssssss" />
      <path
         class="cls-29"
         d="m 1660.4,1481 h -164.8 c -1.1,0 -1.9,-0.9 -1.9,-1.9 v -44.3 c 0,-1.1 0.9,-1.9 1.9,-1.9 h 164.8 c 1.1,0 1.9,0.9 1.9,1.9 v 44.3 c 0,1 -0.9,1.9 -1.9,1.9 z"
         id="path68"
         style="fill:#eeefff;fill-opacity:0.551515"
         sodipodi:nodetypes="sssssssss" />
      <path
         class="cls-29"
         d="m 1660.4,1538.7 h -164.8 c -1.1,0 -1.9,-0.9 -1.9,-1.9 v -44.3 c 0,-1.1 0.9,-1.9 1.9,-1.9 h 164.8 c 1.1,0 1.9,0.9 1.9,1.9 v 44.3 c 0,1.1 -0.9,1.9 -1.9,1.9 z"
         id="path69"
         style="fill:#eeefff;fill-opacity:0.551515"
         sodipodi:nodetypes="sssssssss" />
      <path
         class="cls-29"
         d="m 2364.2,1305.2 h -55.9 c -1.1,0 -1.9,-0.9 -1.9,-1.9 V 1259 c 0,-1.1 0.9,-1.9 1.9,-1.9 h 55.8 c 1.1,0 1.9,0.9 1.9,1.9 v 44.3 c 0.1,1.1 -0.8,1.9 -1.8,1.9 z"
         id="path70"
         style="fill:#eeefff;fill-opacity:0.551515"
         sodipodi:nodetypes="ssssssscs" />
      <path
         class="cls-29"
         d="m 2364.2,1363 h -55.9 c -1.1,0 -1.9,-0.9 -1.9,-1.9 v -44.3 c 0,-1.1 0.9,-1.9 1.9,-1.9 h 55.8 c 1.1,0 1.9,0.9 1.9,1.9 v 44.3 c 0.1,1 -0.8,1.9 -1.8,1.9 z"
         id="path71"
         style="fill:#eeefff;fill-opacity:0.551515"
         sodipodi:nodetypes="ssssssscs" />
      <path
         class="cls-29"
         d="m 2364.2,1420.7 h -55.9 c -1.1,0 -1.9,-0.9 -1.9,-1.9 v -44.3 c 0,-1.1 0.9,-1.9 1.9,-1.9 h 55.8 c 1.1,0 1.9,0.9 1.9,1.9 v 44.3 c 0.1,1.1 -0.8,1.9 -1.8,1.9 z"
         id="path72"
         style="fill:#eeefff;fill-opacity:0.551515"
         sodipodi:nodetypes="ssssssscs" />
      <path
         class="cls-29"
         d="m 2431.6,1305.2 h -55.8 c -1.1,0 -1.9,-0.9 -1.9,-1.9 V 1259 c 0,-1.1 0.9,-1.9 1.9,-1.9 h 55.8 c 1.1,0 1.9,0.9 1.9,1.9 v 44.3 c 0.1,1.1 -0.8,1.9 -1.9,1.9 z"
         id="path73"
         style="fill:#eeefff;fill-opacity:0.551515"
         sodipodi:nodetypes="ssssssscs" />
      <path
         class="cls-29"
         d="m 2431.6,1363 h -55.8 c -1.1,0 -1.9,-0.9 -1.9,-1.9 v -44.3 c 0,-1.1 0.9,-1.9 1.9,-1.9 h 55.8 c 1.1,0 1.9,0.9 1.9,1.9 v 44.3 c 0.1,1 -0.8,1.9 -1.9,1.9 z"
         id="path74"
         style="fill:#eeefff;fill-opacity:0.551515"
         sodipodi:nodetypes="ssssssscs" />
      <path
         class="cls-29"
         d="m 2431.6,1420.7 h -55.8 c -1.1,0 -1.9,-0.9 -1.9,-1.9 v -44.3 c 0,-1.1 0.9,-1.9 1.9,-1.9 h 55.8 c 1.1,0 1.9,0.9 1.9,1.9 v 44.3 c 0.1,1.1 -0.8,1.9 -1.9,1.9 z"
         id="path75"
         style="fill:#eeefff;fill-opacity:0.551515"
         sodipodi:nodetypes="ssssssscs" />
      <path
         class="cls-29"
         d="m 2296.5,1305.2 h -55.8 c -1.1,0 -1.9,-0.9 -1.9,-1.9 V 1259 c 0,-1.1 0.9,-1.9 1.9,-1.9 h 55.8 c 1.1,0 1.9,0.9 1.9,1.9 v 44.3 c 0,1.1 -0.9,1.9 -1.9,1.9 z"
         id="path76"
         style="fill:#eeefff;fill-opacity:0.551515"
         sodipodi:nodetypes="sssssssss" />
      <path
         class="cls-11"
         d="m 2296.5,1363 h -55.8 c -1.1,0 -1.9,-0.9 -1.9,-1.9 v -44.3 c 0,-1.1 0.9,-1.9 1.9,-1.9 h 55.8 c 1.1,0 1.9,0.9 1.9,1.9 v 44.3 c 0,1 -0.9,1.9 -1.9,1.9 z"
         id="path77"
         style="fill:#eeefff;fill-opacity:0.551515"
         sodipodi:nodetypes="sssssssss" />
      <path
         class="cls-29"
         d="m 2296.5,1420.7 h -55.8 c -1.1,0 -1.9,-0.9 -1.9,-1.9 v -44.3 c 0,-1.1 0.9,-1.9 1.9,-1.9 h 55.8 c 1.1,0 1.9,0.9 1.9,1.9 v 44.3 c 0,1.1 -0.9,1.9 -1.9,1.9 z"
         id="path78"
         style="fill:#eeefff;fill-opacity:0.551515"
         sodipodi:nodetypes="sssssssss" />
    </g>
    <path
       class="cls-19"
       d="M 1090.6,1698.7296 H 985.5 c -0.7,0 -1.2,-0.5 -1.2,-1.2 v -18.4 c 0,-0.7 0.5,-1.2 1.2,-1.2 h 105.1 c 0.7,0 1.2,0.5 1.2,1.2 v 18.4 c 0,0.6 -0.5,1.2 -1.2,1.2 z"
       id="path152"
       style="opacity:0.5;fill:#eeefff;fill-opacity:0.551515" />
    <path
       class="cls-19"
       d="m 1258.2,1698.7296 h -105.1 c -0.7,0 -1.2,-0.5 -1.2,-1.2 v -18.4 c 0,-0.7 0.5,-1.2 1.2,-1.2 h 105.1 c 0.7,0 1.2,0.5 1.2,1.2 v 18.4 c 0,0.6 -0.5,1.2 -1.2,1.2 z"
       id="path153"
       style="opacity:0.5;fill:#eeefff;fill-opacity:0.551515" />
    <g
       id="g158"
       style="opacity:0.5;fill:#eeefff;fill-opacity:0.551515"
       transform="translate(0,345.92896)">
      <rect
         class="cls-27"
         x="993.59998"
         y="1393"
         width="88.900002"
         height="23.4"
         id="rect153"
         style="fill:#eeefff;fill-opacity:0.551515" />
      <rect
         class="cls-27"
         x="993.59998"
         y="1436.5"
         width="88.900002"
         height="302"
         id="rect154"
         style="fill:#eeefff;fill-opacity:0.551515" />
      <rect
         class="cls-27"
         x="993.59998"
         y="1351.2"
         width="88.900002"
         height="25.1"
         id="rect155"
         style="fill:#eeefff;fill-opacity:0.551515" />
      <rect
         class="cls-27"
         x="1161.2"
         y="1351.2"
         width="88.900002"
         height="25.1"
         id="rect156"
         style="fill:#eeefff;fill-opacity:0.551515" />
      <rect
         class="cls-27"
         x="1161.2"
         y="1436.5"
         width="88.900002"
         height="302"
         id="rect157"
         style="fill:#eeefff;fill-opacity:0.551515" />
      <rect
         class="cls-27"
         x="1161.2"
         y="1393"
         width="88.900002"
         height="23.4"
         id="rect158"
         style="fill:#eeefff;fill-opacity:0.551515" />
    </g>
    <path
       class="cls-29"
       d="M 714.4,2206.2296 H 236.3 c -6.3,0 -20.9,4.9 -20.6,11.4 l 3.6,307.1 c 0.3,6.1 5.1,10.9 11,10.9 h 484.1 c 6.1,0 11,-5.1 11,-11.4 v -306.6 c 0,-6.3 -4.9,-11.4 -11,-11.4 z"
       id="path158"
       style="opacity:0.5;fill:#eeefff;fill-opacity:0.551515" />
    <polygon
       class="cls-19"
       points="815.3,1185.6 827.1,1409.2 443.2,1408.1 455,1185.6 "
       id="polygon158"
       style="opacity:0.5;fill:#eeefff;fill-opacity:0.551515"
       transform="translate(0,345.92896)" />
    <path
       class="cls-19"
       d="m 316.8,2206.2296 h 318.4 v -443.9 H 443.3 c -11.1,46.3 -22.1,92.5 -33.2,138.8 -24.4,101.7 -69,203.4 -93.3,305.1 z"
       id="path159"
       style="opacity:0.5;fill:#eeefff;fill-opacity:0.551515" />
    <polygon
       class="cls-19"
       points="829.9,1416.4 933.7,1860.3 635.1,1860.3 635.1,1416.4 "
       id="polygon159"
       style="opacity:0.5;fill:#eeefff;fill-opacity:0.551515"
       transform="translate(0,345.92896)" />
    <polygon
       class="cls-27"
       points="820.3,1280.7 823.2,1334.3 447.1,1333.8 450,1280.7 "
       id="polygon160"
       style="opacity:0.5;fill:#eeefff;fill-opacity:0.551515"
       transform="translate(0,345.92896)" />
    <polygon
       class="cls-27"
       points="826.1,1389.9 829.9,1416.4 442.7,1418.4 444.2,1389.9 "
       id="polygon161"
       style="opacity:0.5;fill:#eeefff;fill-opacity:0.551515"
       transform="translate(0,345.92896)" />
    <path
       class="cls-2"
       d="m 584.7,1469.5296 c 3.5,-14.2 2.9,-28 -1.7,-52.7 -2.3,-12.1 -3.4,-18.1 -4.2,-37.5 -0.6,-13.8 4.8,-39 -27,-58.5 -27,-16.6001 -40.4,-24.9001 -46.1,-31.2001 -22.1,-24.4001 -25.9,-56.2001 -28.1,-74.8002 -1.9,-15.9 -4.3,-36.2 3,-60.2001 12.4,-40.6001 44.1,-63.6001 65.2,-78.9001 11.6,-8.4 8,-4.1 43.1,-26.0001 29,-18 43.5,-27.1 60.2,-40.5001 23.5,-18.89998 38,-30.59998 49.1,-50.89998 3.5,-6.5 11.1,-21.8 15,-62.3 4.2,-43.2 -0.7,-64.5 -3,-149.5 -0.6,-21.5 -0.8,-38.7 7,-59.2 3.7,-9.7 12.6,-32.3 35.1,-46.7 16,-10.3 31.3,-11.6 43.1,-12.5 45.9,-3.4 82.1,17.2 95.2,24.9 42.6,25 64.3,60 75.2,77.9 20.1,33.2 27.5,63 30.1,74.8 4.7,21.4 11.1,51.2 2,87.2 -7.6,29.8 -22.2,50 -29.1,59.2 -16.9,22.7 -15.5,25.8 -42.5,47.99998 -12.1,10 -50.7,42.3001 -58.5,49.9001 -6.7,6.4 -20.2,17.2001 -26.2,21.9001 -11.7,9.2 -25.7,21.9 -36.5,35.5 -6.1,7.7 -12.6,19.2001 -33.7,55.2001 -7.9,13.5001 -9.6,25.8001 -13.2,37.3001 -6.1,19.2001 -6.2,22.9001 -9.6,33.5001 -8,25 -19.6,42.2001 -34.8,64.6001 -18.2,26.7001 -18.2,20.8 -31.8,41.6001 -9.5,14.5 -26.8,43.8 -37.8,84.5 -4.3,15.8 -7.9,35.7 -9.1,45.5"
       id="path161"
       style="opacity:0.5;fill:#eeefff;fill-opacity:0.551515" />
    <path
       class="cls-27"
       d="M 848.3,1531.1296 H 410.9 c -2,0 -3.6,-1.6 -3.6,-3.6 v -54.4 c 0,-2 1.6,-3.6 3.6,-3.6 h 437.4 c 2,0 3.6,1.6 3.6,3.6 v 54.4 c 0,2 -1.6,3.6 -3.6,3.6 z"
       id="path162"
       style="opacity:0.5;fill:#eeefff;fill-opacity:0.551515" />
    <path
       class="cls-27"
       d="m 689.4,2084.4296 h 648.8 c 3.1,0 5.6,2.5 5.6,5.6 v 440.1 c 0,3.1 -2.5,5.6 -5.6,5.6 H 689.4 c -3.1,0 -5.6,-2.5 -5.6,-5.6 v -440.1 c 0,-3.1 2.5,-5.6 5.6,-5.6 z"
       id="path163"
       style="opacity:0.5;fill:#eeefff;fill-opacity:0.551515" />
    <path
       class="cls-2"
       d="m 812.3,425.02893 c -1.5,-0.2 -8.2,-0.8 -16.8,1.1 -11.4,2.5 -19.2,7.9 -23.7,11.19999 -3.8,2.7 -16.7,12.5 -26.2,30.7 -9.2,17.7 -10.1,33.6 -10.5,40.9 -0.4,7.4 -0.9,21.1 4.9,37.3 2.5,6.9 9.7,26.4 28.3,38 3.7,2.3 8.8,5.4 16.1,6.5 13.1,1.9 23.6,-4.1 29.3,-7.6 14.7,-8.8 21.8,-21.4 27.2,-31.1 2.2,-3.9 10.4,-19 14,-41.2 2,-12.4 4.9,-31.9 -3.1,-53.2 -2.7,-7 -6.1,-15.7 -14.7,-22.79999 -9.8,-8.1 -20.7,-9.4 -24.8,-9.8 z"
       id="path164"
       style="opacity:0.5;fill:#eeefff;fill-opacity:0.551515" />
    <path
       class="cls-2"
       d="m 922.7,501.72892 c -5.7,-1.2 -10.3,1.1 -16.8,4.3 -16.9,8.5 -25.7,22.9 -30,30 -6.2,10.3 -12.2,20.3 -12.6,34.7 -0.1,4.8 -0.7,26.8 13.3,35.1 9,5.4 19.3,2.3 24.4,0.7 15.7,-4.7 24.3,-17.2 30.4,-26 3.7,-5.4 9.5,-14 11.9,-26.8 0.7,-3.6 2,-11 0.3,-20.3 -0.2,-1.5 -5.2,-28.3 -20.9,-31.7 z"
       id="path165"
       style="opacity:0.5;fill:#eeefff;fill-opacity:0.551515" />
    <path
       class="cls-2"
       d="m 989.4,565.32892 c -7.8,-1.1 -13.9,2.1 -16.8,3.6 -16.1,8.6 -21.1,27.9 -23.7,38 -3.1,11.8 -6,23.1 -0.3,34.7 1,2 6.4,12.6 18.5,17 13.5,4.8 25.3,-1.7 28.6,-3.6 11.9,-6.7 16.7,-17.6 18.9,-22.4 6.8,-15.4 4.3,-29.4 3.5,-33.3 -0.9,-4.5 -2.6,-12.9 -9.1,-21 -3,-3.6 -9.3,-11.6 -19.6,-13 z"
       id="path166"
       style="opacity:0.5;fill:#eeefff;fill-opacity:0.551515" />
    <path
       class="cls-2"
       d="m 1048.4,655.02892 c -4.7,-0.5 -9.6,0.5 -17.1,4.3 -10.7,5.6 -24.1,12.5 -30.4,28.6 -1.9,4.9 -6.1,15.8 -1.4,27.1 5.4,12.9 18.4,16.9 21.3,17.7 12.8,3.9 23.4,-1 26.5,-2.5 14.1,-6.7 19.5,-19.8 21,-23.5 5.2,-13.1 2.9,-24.7 2.1,-28.2 -1.2,-5.6 -2.9,-13.1 -9.4,-18.4 -5.3,-4.3 -10.9,-4.9 -12.6,-5.1 z"
       id="path167"
       style="opacity:0.5;fill:#eeefff;fill-opacity:0.551515" />
    <path
       class="cls-2"
       d="m 1063.4,753.82892 c -11.9,0.6 -20.1,7.8 -24.8,11.9 -6.1,5.4 -13.7,12 -15.7,23.5 -0.4,2.3 -2.6,14.7 5.2,24.2 6.3,7.7 15.2,8.8 19.9,9.4 12.8,1.6 22.5,-4.1 25.1,-5.8 10.7,-6.7 15.2,-16.4 16.1,-18.4 1.6,-3.7 7.4,-17 1,-29.7 -3.9,-7.8 -10.5,-11.4 -12.2,-12.3 -6.2,-3.2 -11.9,-3 -14.6,-2.8 z"
       id="path168"
       style="opacity:0.5;fill:#eeefff;fill-opacity:0.551515" />
    <g
       id="route"
       style="opacity:0.5;fill:#eeefff;fill-opacity:0.551515" />
    <g
       id="grue"
       class="cls-37"
       style="opacity:0.5;fill:#eeefff;fill-opacity:0.551515;stroke:#eeeeff;stroke-opacity:1"
       transform="translate(137.35417,345.92896)">
      <polyline
         class="cls-34"
         points="3593.3 439.6 2816.2 439.9 2845.2 396.6 2848.2 396.6 3351.8 396.8 3372 439.9"
         id="polyline169"
         style="fill:#eeefff;fill-opacity:0.551515;stroke:#eeeeff;stroke-opacity:1" />
      <polyline
         class="cls-34"
         points="2845.4 394.1 2845.4 433.1 2884 396.2"
         id="polyline170"
         style="fill:#eeefff;fill-opacity:0.551515;stroke:#eeeeff;stroke-opacity:1" />
      <polyline
         class="cls-34"
         points="2888.2 394.3 2888.2 433.4 2926.8 396.5"
         id="polyline171"
         style="fill:#eeefff;fill-opacity:0.551515;stroke:#eeeeff;stroke-opacity:1" />
      <polyline
         class="cls-34"
         points="2931 394.3 2931 433.4 2969.6 396.5"
         id="polyline172"
         style="fill:#eeefff;fill-opacity:0.551515;stroke:#eeeeff;stroke-opacity:1" />
      <polyline
         class="cls-34"
         points="2973.5 394.2 2973.5 433.3 3012.1 396.4"
         id="polyline173"
         style="fill:#eeefff;fill-opacity:0.551515;stroke:#eeeeff;stroke-opacity:1" />
      <polyline
         class="cls-34"
         points="3016.3 394.5 3016.3 433.5 3054.9 396.6"
         id="polyline174"
         style="fill:#eeefff;fill-opacity:0.551515;stroke:#eeeeff;stroke-opacity:1" />
      <polyline
         class="cls-34"
         points="3059.1 394.5 3059.1 433.5 3097.7 396.6"
         id="polyline175"
         style="fill:#eeefff;fill-opacity:0.551515;stroke:#eeeeff;stroke-opacity:1" />
      <polyline
         class="cls-34"
         points="3100.2 394.3 3100.2 431.5 3138.8 396.3"
         id="polyline176"
         style="fill:#eeefff;fill-opacity:0.551515;stroke:#eeeeff;stroke-opacity:1" />
      <polyline
         class="cls-34"
         points="3143 394.5 3143 432.3 3181.6 396.6"
         id="polyline177"
         style="fill:#eeefff;fill-opacity:0.551515;stroke:#eeeeff;stroke-opacity:1" />
      <polyline
         class="cls-34"
         points="3185.9 394.5 3185.9 431.5 3224.5 396.6"
         id="polyline178"
         style="fill:#eeefff;fill-opacity:0.551515;stroke:#eeeeff;stroke-opacity:1" />
      <polyline
         class="cls-34"
         points="3228.3 394.4 3228.3 431.5 3266.9 396.5"
         id="polyline179"
         style="fill:#eeefff;fill-opacity:0.551515;stroke:#eeeeff;stroke-opacity:1" />
      <polyline
         class="cls-34"
         points="3271.1 394.7 3271.1 431.5 3309.7 396.7"
         id="polyline180"
         style="fill:#eeefff;fill-opacity:0.551515;stroke:#eeeeff;stroke-opacity:1" />
      <polyline
         class="cls-34"
         points="3314 394.7 3314 431.5 3352.6 396.7"
         id="polyline181"
         style="fill:#eeefff;fill-opacity:0.551515;stroke:#eeeeff;stroke-opacity:1" />
      <line
         class="cls-31"
         x1="3412.6001"
         y1="281.5"
         x2="2915.8999"
         y2="394.10001"
         id="line181"
         style="fill:#eeefff;fill-opacity:0.551515;stroke:#eeeeff;stroke-opacity:1" />
      <line
         class="cls-31"
         x1="3196.8"
         y1="393"
         x2="3412.6001"
         y2="281.5"
         id="line182"
         style="fill:#eeefff;fill-opacity:0.551515;stroke:#eeeeff;stroke-opacity:1" />
      <line
         class="cls-31"
         x1="2995.6001"
         y1="526.09998"
         x2="2992.8"
         y2="1184.9"
         id="line183"
         style="fill:#eeefff;fill-opacity:0.551515;stroke:#eeeeff;stroke-opacity:1" />
      <line
         class="cls-31"
         x1="3027.1001"
         y1="523.09998"
         x2="3033.5"
         y2="1187.5"
         id="line184"
         style="fill:#eeefff;fill-opacity:0.551515;stroke:#eeeeff;stroke-opacity:1" />
      <polygon
         class="cls-28"
         points="2960.7,441.2 3060.2,441.2 3059.1,522.1 2959.7,522.1 "
         id="polygon184"
         style="fill:#eeefff;fill-opacity:0.551515;stroke:#eeeeff;stroke-opacity:1" />
      <path
         class="cls-28"
         d="m 3473.6,545.9 h -86.3 c -7.4,0 -13.4,-6 -13.4,-13.4 v -52.9 c 0,-7.4 6,-13.4 13.4,-13.4 h 86.3 c 7.4,0 13.4,6 13.4,13.4 v 52.9 c -0.1,7.4 -6,13.4 -13.4,13.4 z"
         id="path184"
         style="fill:#eeefff;fill-opacity:0.551515;stroke:#eeeeff;stroke-opacity:1" />
      <rect
         class="cls-28"
         x="3392.8"
         y="545.90002"
         width="75.199997"
         height="75.199997"
         id="rect184"
         style="fill:#eeefff;fill-opacity:0.551515;stroke:#eeeeff;stroke-opacity:1" />
      <path
         class="cls-28"
         d="m 3479.5,645.7 h -98.2 c -0.1,0 -0.2,0.1 -0.2,0.2 v 33.7 c 0,0.1 0.1,0.2 0.2,0.2 h 98.2 c 0.1,0 0.2,-0.1 0.2,-0.2 v -33.7 c 0.1,-0.1 0,-0.2 -0.2,-0.2 z"
         id="path185"
         style="fill:#eeefff;fill-opacity:0.551515;stroke:#eeeeff;stroke-opacity:1" />
      <path
         class="cls-28"
         d="m 3479.2,645.7 h -97.4 c -0.3,0 -0.5,-0.3 -0.4,-0.6 l 11.8,-23.7 c 0.1,-0.1 0.2,-0.2 0.4,-0.2 h 75.4 c 0.2,0 0.3,0.1 0.4,0.3 l 10.2,23.7 c 0.1,0.2 -0.1,0.5 -0.4,0.5 z"
         id="path186"
         style="fill:#eeefff;fill-opacity:0.551515;stroke:#eeeeff;stroke-opacity:1" />
      <path
         class="cls-28"
         d="m 3534.4,1556.4 h -205.5 v -15.5 c 0,-10 8.1,-18.1 18.1,-18.1 h 169.3 c 10,0 18.1,8.1 18.1,18.1 z"
         id="path187"
         style="fill:#eeefff;fill-opacity:0.551515;stroke:#eeeeff;stroke-opacity:1" />
      <path
         class="cls-28"
         d="m 3609.1,1584.7 h -355.8 c -3.1,0 -5.6,-2.5 -5.6,-5.6 v -16.3 c 0,-3.1 2.5,-5.6 5.6,-5.6 h 355.9 c 3.1,0 5.6,2.5 5.6,5.6 v 16.3 c 0,3.1 -2.6,5.6 -5.7,5.6 z"
         id="path188"
         style="fill:#eeefff;fill-opacity:0.551515;stroke:#eeeeff;stroke-opacity:1" />
      <polyline
         class="cls-34"
         points="3467.8 1447.9 3407.4 1447.9 3455 1393.3"
         id="polyline188"
         style="fill:#eeefff;fill-opacity:0.551515;stroke:#eeeeff;stroke-opacity:1" />
      <polyline
         class="cls-34"
         points="3467.8 1393.4 3407.4 1393.4 3455 1338.8"
         id="polyline189"
         style="fill:#eeefff;fill-opacity:0.551515;stroke:#eeeeff;stroke-opacity:1" />
      <polyline
         class="cls-34"
         points="3467.8 1338.9 3407.4 1338.9 3455 1284.3"
         id="polyline190"
         style="fill:#eeefff;fill-opacity:0.551515;stroke:#eeeeff;stroke-opacity:1" />
      <polyline
         class="cls-34"
         points="3467.8 1284.4 3407.4 1284.4 3455 1229.8"
         id="polyline191"
         style="fill:#eeefff;fill-opacity:0.551515;stroke:#eeeeff;stroke-opacity:1" />
      <polyline
         class="cls-34"
         points="3467.8 1229.9 3407.4 1229.9 3455 1175.3"
         id="polyline192"
         style="fill:#eeefff;fill-opacity:0.551515;stroke:#eeeeff;stroke-opacity:1" />
      <polyline
         class="cls-34"
         points="3467.8 1175.4 3407.4 1175.4 3455 1120.8"
         id="polyline193"
         style="fill:#eeefff;fill-opacity:0.551515;stroke:#eeeeff;stroke-opacity:1" />
      <polyline
         class="cls-34"
         points="3467.8 1120.9 3407.4 1120.9 3455 1066.4"
         id="polyline194"
         style="fill:#eeefff;fill-opacity:0.551515;stroke:#eeeeff;stroke-opacity:1" />
      <polyline
         class="cls-34"
         points="3467.8 1066.4 3407.4 1066.4 3455 1011.9"
         id="polyline195"
         style="fill:#eeefff;fill-opacity:0.551515;stroke:#eeeeff;stroke-opacity:1" />
      <polyline
         class="cls-34"
         points="3467.8 1011.9 3407.4 1011.9 3455 957.4"
         id="polyline196"
         style="fill:#eeefff;fill-opacity:0.551515;stroke:#eeeeff;stroke-opacity:1" />
      <polyline
         class="cls-34"
         points="3467.8 957.4 3407.4 957.4 3455 902.9"
         id="polyline197"
         style="fill:#eeefff;fill-opacity:0.551515;stroke:#eeeeff;stroke-opacity:1" />
      <polyline
         class="cls-34"
         points="3467.8 902.9 3407.4 902.9 3455 848.4"
         id="polyline198"
         style="fill:#eeefff;fill-opacity:0.551515;stroke:#eeeeff;stroke-opacity:1" />
      <polyline
         class="cls-34"
         points="3467.8 848.4 3407.4 848.4 3448 796.5"
         id="polyline199"
         style="fill:#eeefff;fill-opacity:0.551515;stroke:#eeeeff;stroke-opacity:1" />
      <polyline
         class="cls-34"
         points="3465.7 796.5 3409 796.5 3453.7 742"
         id="polyline200"
         style="fill:#eeefff;fill-opacity:0.551515;stroke:#eeeeff;stroke-opacity:1" />
      <polyline
         class="cls-34"
         points="3465.7 742 3409 742 3465.6 680.4"
         id="polyline201"
         style="fill:#eeefff;fill-opacity:0.551515;stroke:#eeeeff;stroke-opacity:1" />
      <line
         class="cls-34"
         x1="3401"
         y1="679.09998"
         x2="3401"
         y2="1522.2"
         id="line201"
         style="fill:#eeefff;fill-opacity:0.551515;stroke:#eeeeff;stroke-opacity:1" />
      <line
         class="cls-34"
         x1="3465.6001"
         y1="680.40002"
         x2="3471.1001"
         y2="1523.1"
         id="line202"
         style="fill:#eeefff;fill-opacity:0.551515;stroke:#eeeeff;stroke-opacity:1" />
      <line
         class="cls-34"
         x1="3401"
         y1="1522.2"
         x2="3467.8"
         y2="1447.9"
         id="line203"
         style="fill:#eeefff;fill-opacity:0.551515;stroke:#eeeeff;stroke-opacity:1" />
      <circle
         class="cls-28"
         cx="3430.3999"
         cy="274.79999"
         r="20"
         id="circle203"
         style="fill:#eeefff;fill-opacity:0.551515;stroke:#eeeeff;stroke-opacity:1" />
      <line
         class="cls-34"
         x1="3394.6001"
         y1="469.79999"
         x2="3427.7"
         y2="280.70001"
         id="line204"
         style="fill:#eeefff;fill-opacity:0.551515;stroke:#eeeeff;stroke-opacity:1" />
      <line
         class="cls-34"
         x1="3467"
         y1="474.60001"
         x2="3435.1001"
         y2="287.10001"
         id="line205"
         style="fill:#eeefff;fill-opacity:0.551515;stroke:#eeeeff;stroke-opacity:1" />
      <line
         class="cls-34"
         x1="3440.1001"
         y1="318.60001"
         x2="3415.3"
         y2="351.60001"
         id="line206"
         style="fill:#eeefff;fill-opacity:0.551515;stroke:#eeeeff;stroke-opacity:1" />
      <line
         class="cls-34"
         x1="3401"
         y1="433.5"
         x2="3451.7"
         y2="384.60001"
         id="line207"
         style="fill:#eeefff;fill-opacity:0.551515;stroke:#eeeeff;stroke-opacity:1" />
      <line
         class="cls-34"
         x1="3415.3"
         y1="351.60001"
         x2="3451.7"
         y2="384.60001"
         id="line208"
         style="fill:#eeefff;fill-opacity:0.551515;stroke:#eeeeff;stroke-opacity:1" />
      <path
         class="cls-28"
         d="m 3745.9,466.8 h -122.6 c -2.9,0 -5.2,-2.4 -5.2,-5.2 v -9.1 c 0,-2.9 2.4,-5.2 5.2,-5.2 h 122.6 c 2.9,0 5.2,2.4 5.2,5.2 v 9.1 c 0,2.8 -2.3,5.2 -5.2,5.2 z"
         id="path208"
         style="fill:#eeefff;fill-opacity:0.551515;stroke:#eeeeff;stroke-opacity:1" />
      <path
         class="cls-28"
         d="M 3704.2,513.3 H 3665 c -7.2,0 -13.1,-5.9 -13.1,-13.1 v -30.1 c 0,-7.2 5.9,-13.1 13.1,-13.1 h 39.2 c 7.2,0 13.1,5.9 13.1,13.1 v 30.1 c 0,7.2 -5.9,13.1 -13.1,13.1 z"
         id="path209"
         style="fill:#eeefff;fill-opacity:0.551515;stroke:#eeeeff;stroke-opacity:1" />
      <rect
         class="cls-28"
         x="2992.8999"
         y="1129.6"
         width="40.599998"
         height="57.900002"
         id="rect209"
         style="fill:#eeefff;fill-opacity:0.551515;stroke:#eeeeff;stroke-opacity:1" />
      <path
         class="cls-36"
         d="m 3035.4,1237.5 c 0.9,2.8 1.9,7.1 1.8,12.4 -0.2,5.8 -0.4,14 -6.4,18.5 -6.1,4.5 -15.4,3.1 -21.2,-1 -5,-3.6 -6.6,-8.8 -7.9,-12.7 -0.7,-2.3 -3.5,-11.7 0.4,-21.6 3.2,-8.2 7.9,-8.8 10.5,-17.1 1.6,-5.1 1.3,-9.7 0.8,-12.7"
         id="path210"
         style="fill:#eeefff;fill-opacity:0.551515;stroke:#eeeeff;stroke-opacity:1" />
      <path
         class="cls-28"
         d="m 3016.4,1187.5 h -4.8 c -2.3,0 -4.2,1.9 -4.2,4.2 v 7.3 c 0,2.3 1.9,4.2 4.2,4.2 h 4.8 c 2.3,0 4.2,-1.9 4.2,-4.2 v -7.3 c 0,-2.3 -1.9,-4.2 -4.2,-4.2 z"
         id="path211"
         style="fill:#eeefff;fill-opacity:0.551515;stroke:#eeeeff;stroke-opacity:1" />
      <rect
         class="cls-28"
         x="3593.7"
         y="418.29999"
         width="181.7"
         height="38.700001"
         id="rect211"
         style="fill:#eeefff;fill-opacity:0.551515;stroke:#eeeeff;stroke-opacity:1" />
      <line
         class="cls-31"
         x1="3450.5"
         y1="281.39999"
         x2="3735.5"
         y2="418.29999"
         id="line211"
         style="fill:#eeefff;fill-opacity:0.551515;stroke:#eeeeff;stroke-opacity:1" />
      <line
         class="cls-31"
         x1="3681.8"
         y1="433.5"
         x2="3450.5"
         y2="281.39999"
         id="line212"
         style="fill:#eeefff;fill-opacity:0.551515;stroke:#eeeeff;stroke-opacity:1" />
    </g>
    <g
       id="g213"
       style="opacity:0.5;fill:#eeefff;fill-opacity:0.551515"
       transform="translate(0,345.92896)">
      <path
         class="cls-19"
         d="m 3587.9,1056.3 c -19.7,0.3 -39.3,12 -73,55.1 -76.8,98.6 -99.7,198.3 -104.5,220.6 -13.1,60.3 -19.4,91.7 -5.9,130.7 21.7,62.9 76.4,91.7 84.8,96 33.4,17 63.9,17.6 96.6,18.4 11.7,0.3 44.2,0.3 84.8,-10.2 30.9,-8 46.3,-12 63.1,-24.5 41.5,-30.9 50.5,-82.4 53.2,-98 1.1,-6.4 4.7,-29.1 -2,-75.6 -4.2,-29 -15.1,-86 -49.3,-155.2 -32,-64.8 -64.4,-100.1 -80.8,-116.4 -39.5,-39.3 -58.9,-41 -67,-40.9 z"
         id="path212"
         style="fill:#eeefff;fill-opacity:0.551515" />
      <path
         class="cls-26"
         d="m 3663.2,1322.6 c 1.5,1 -8.3,19.1 -14.7,33.2 -14.1,31.1 -21.4,58.8 -25.7,114 -7.5,96.2 -8.4,140.1 -9.6,170.5 -0.2,4.7 1.3,22.8 1.4,34.4 0,0 -2.3,0.5 -6.4,0.7 -11,0.5 -20.8,0.3 -20.8,0.3 l -4.6,0.2 h -4.7 c -0.4,-2.2 -0.2,-8.7 -0.1,-9.6 1.7,-25 1.1,-41.8 3.2,-63.6 4.7,-48.7 0.5,-43.7 5,-67.9 2.5,-13.1 5.2,-22.6 5.5,-38.9 0.2,-13.2 -1.2,-22.7 -3.2,-35.1 -2.4,-15.1 -5.9,-36.3 -16.5,-61.3 0,0 -9.6,-22.6 -22,-34.7 -6,-5.8 -8.3,-7.1 -8.3,-7.1 -1.4,-0.7 -2.8,-1.4 -2.7,-1.9 0.1,-0.9 6.5,2.2 8.9,3.3 7.2,3.5 9.7,7.3 12.4,10.1 11.1,11.6 11.7,12.7 16.5,21.3 6.3,11.3 5.8,7.9 17.3,32.8 2.5,5.4 4.1,11.4 5.8,17.2 1.9,6.6 4.3,5.5 5.2,5.5 1.2,0 1.7,-8.7 2.8,-15.7 1.6,-10.9 5,-19.1 11.9,-35.6 8,-19.1 16,-33.1 19.3,-38.5 9.5,-16.2 22.5,-34.6 24.1,-33.6 z"
         id="path213"
         style="fill:#eeefff;fill-opacity:0.551515" />
    </g>
    <g
       id="g215"
       style="opacity:0.5;fill:#eeefff;fill-opacity:0.551515"
       transform="translate(0,345.92896)">
      <path
         class="cls-19"
         d="m 4851.9,1204.5 c -7,0.1 -14,4.3 -26,19.6 -27.4,35.1 -35.5,70.7 -37.2,78.6 -4.7,21.5 -6.9,32.7 -2.1,46.6 7.7,22.4 27.2,32.7 30.2,34.2 11.9,6 22.8,6.3 34.4,6.5 4.2,0.1 15.8,0.1 30.2,-3.6 11,-2.9 16.5,-4.3 22.5,-8.7 14.8,-11 18,-29.4 19,-34.9 0.4,-2.3 1.7,-10.4 -0.7,-26.9 -1.5,-10.3 -5.4,-30.6 -17.6,-55.3 -11.4,-23.1 -23,-35.7 -28.8,-41.5 -14.1,-14 -21,-14.6 -23.9,-14.6 z"
         id="path214"
         style="fill:#eeefff;fill-opacity:0.551515" />
      <path
         class="cls-26"
         d="m 4878.8,1299.4 c 0.5,0.3 -2.9,6.8 -5.2,11.8 -5,11.1 -7.6,20.9 -9.1,40.6 -2.7,34.3 -3,49.9 -3.4,60.7 -0.1,1.7 0.5,8.1 0.5,12.3 0,0 -0.8,0.2 -2.3,0.3 -3.9,0.2 -7.4,0.1 -7.4,0.1 l -1.6,0.1 h -1.7 c -0.1,-0.8 -0.1,-3.1 0,-3.4 0.6,-8.9 0.4,-14.9 1.1,-22.6 1.7,-17.4 0.2,-15.6 1.8,-24.2 0.9,-4.7 1.9,-8 2,-13.9 0.1,-4.7 -0.4,-8.1 -1.1,-12.5 -0.9,-5.4 -2.1,-12.9 -5.9,-21.8 0,0 -3.4,-8.1 -7.8,-12.3 -2.1,-2.1 -3,-2.5 -3,-2.5 -0.5,-0.3 -1,-0.5 -1,-0.7 0.1,-0.3 2.3,0.8 3.2,1.2 2.6,1.2 3.5,2.6 4.4,3.6 4,4.1 4.2,4.5 5.9,7.6 2.2,4 2,2.8 6.2,11.7 0.9,1.9 1.5,4.1 2.1,6.1 0.7,2.3 1.5,2 1.9,2 0.4,0 0.6,-3.1 1,-5.6 0.6,-3.9 1.8,-6.8 4.2,-12.7 2.9,-6.8 5.7,-11.8 6.9,-13.7 3.1,-6 7.7,-12.6 8.3,-12.2 z"
         id="path215"
         style="fill:#eeefff;fill-opacity:0.551515" />
    </g>
    <g
       id="g219"
       style="opacity:0.5;fill:#eeefff;fill-opacity:0.551515"
       transform="translate(0,345.92896)">
      <path
         class="cls-27"
         d="m 4418.3,1548.2 v 0 c -10,0 -24.9,-7.8 -24.9,-18.2 l 14.8,-683.2 c 0,-10.5 -1.7,-19.8 8.3,-19.8 h 1.6 c 7.5,0 7.2,7.3 7.7,17.6 l 18.5,688.4 c 0.3,10.5 -15.9,15.2 -26,15.2 z"
         id="path216"
         style="fill:#eeefff;fill-opacity:0.551515" />
      <path
         class="cls-27"
         d="m 4419,738.6 c 0,0 12.4,60.2 0,60.2 -12.4,0 -42.1,-27.6 -31.5,-76.5 9,-41.2 23.1,-93.1 35.6,-93.1 12.5,0 -2.6,66.8 -4.1,109.4 z"
         id="path217"
         style="fill:#eeefff;fill-opacity:0.551515" />
      <path
         class="cls-27"
         d="m 4464.7,846.1 c 0,0 -54.4,-24.6 -47.3,-35.1 7.2,-10.5 46.1,-19.4 78.3,18.1 27.1,31.5 59.6,73.7 52.3,84.2 -7.1,10.4 -50.8,-41.1 -83.3,-67.2 z"
         id="path218"
         style="fill:#eeefff;fill-opacity:0.551515" />
      <path
         class="cls-27"
         d="m 4349.6,822.6 c 0,0 54,-25.8 56.8,-13.3 2.7,12.5 -16.7,48.6 -65.2,48.6 -40.8,0 -92.7,-3 -95.5,-15.5 -2.7,-12.5 63.5,-12 103.9,-19.8 z"
         id="path219"
         style="fill:#eeefff;fill-opacity:0.551515" />
    </g>
    <g
       id="g223"
       style="opacity:0.5;fill:#eeefff;fill-opacity:0.551515">
      <path
         class="cls-27"
         d="m 4944.4,1420.3 v 0 c -4.1,0 -10.1,-3.4 -10.1,-8.1 l 6,-302.3 c 0,-4.6 -0.7,-8.8 3.4,-8.8 h 0.7 c 3,0 2.9,3.2 3.1,7.8 l 7.5,304.7 c 0,4.7 -6.5,6.7 -10.6,6.7 z"
         id="path220"
         style="fill:#eeefff;fill-opacity:0.551515" />
      <path
         class="cls-27"
         d="m 4944.6,1062.1 c 0,0 5,26.6 0,26.6 -5,0 -17.1,-12.2 -12.8,-33.9 3.6,-18.2 9.4,-41.2 14.4,-41.2 5.1,0.1 -0.9,29.6 -1.6,48.5 z"
         id="path221"
         style="fill:#eeefff;fill-opacity:0.551515" />
      <path
         class="cls-27"
         d="m 4963.2,1109.6 c 0,0 -22.1,-10.9 -19.2,-15.5 2.9,-4.6 18.7,-8.6 31.8,8 11,14 24.2,32.6 21.2,37.2 -2.9,4.7 -20.6,-18.1 -33.8,-29.7 z"
         id="path222"
         style="fill:#eeefff;fill-opacity:0.551515" />
      <path
         class="cls-27"
         d="m 4916.5,1099.2 c 0,0 21.9,-11.4 23,-5.9 1.1,5.5 -6.8,21.5 -26.4,21.5 -16.6,0 -37.7,-1.3 -38.8,-6.9 -1.1,-5.4 25.8,-5.2 42.2,-8.7 z"
         id="path223"
         style="fill:#eeefff;fill-opacity:0.551515" />
    </g>
    <g
       id="arbre"
       style="opacity:0.5;fill:#eeefff;fill-opacity:0.551515"
       transform="translate(0,345.92896)">
      <path
         class="cls-19"
         d="m 2044.9,1115.7 c -38.8,-1.4 -68.1,39.6 -105.8,93.9 -64,92.2 -91.4,177.3 -96.7,194.1 -19.8,63 -63.9,209.4 -18.1,353.8 12.9,40.6 27.8,65.2 45.3,84.5 42.3,46.6 95.6,57.9 133,65.8 44.8,9.5 116.2,24.6 190.5,-15.7 64.5,-34.9 94.1,-91.5 102.8,-109.6 10.9,-22.7 29.4,-70.4 24.2,-128.4 -3.7,-42 -19.6,-77 -51.4,-147.2 -8.8,-19.5 -16.5,-34.9 -24.2,-50.1 -31.9,-63.7 -42.3,-75.3 -57.4,-106.5 -35,-72.3 -14.3,-82.5 -45.3,-140.9 -14.7,-27.2 -49.1,-92 -96.9,-93.7 z"
         id="path286"
         style="fill:#eeefff;fill-opacity:0.551515" />
      <path
         class="cls-26"
         d="m 2172.3,1647.9 c 2.3,1.5 -12.7,29.4 -22.5,51 -21.7,47.7 -32.8,90.1 -39.4,174.7 -11.5,147.5 -12.9,214.8 -14.8,261.4 -0.3,7.3 1.9,34.9 2.1,52.8 0,0 -3.6,0.8 -9.9,1.1 -16.9,0.7 -32,0.5 -32,0.5 l -7.1,0.3 h -7.2 c -0.6,-3.4 -0.2,-13.3 -0.1,-14.7 2.6,-38.3 1.7,-64 4.9,-97.4 7.2,-74.7 0.8,-67 7.7,-104.1 3.8,-20.1 8,-34.6 8.4,-59.7 0.4,-20.2 -1.9,-34.9 -4.9,-53.9 -3.7,-23.1 -9.1,-55.7 -25.3,-93.9 0,0 -14.7,-34.6 -33.7,-53.1 -9.2,-9 -12.7,-10.9 -12.7,-10.9 -2.1,-1.1 -4.3,-2.1 -4.1,-3 0.2,-1.5 9.9,3.3 13.6,5.1 11,5.3 14.9,11.2 19,15.5 17,17.8 18,19.5 25.3,32.7 9.7,17.4 8.8,12.2 26.6,50.2 3.8,8.2 6.3,17.5 8.9,26.3 3,10.1 6.6,8.5 8,8.5 1.9,0 2.7,-13.3 4.2,-24 2.4,-16.7 7.7,-29.3 18.3,-54.6 12.3,-29.3 24.6,-50.7 29.5,-59 14.8,-25.1 34.7,-53.4 37.2,-51.8 z"
         id="path287"
         style="fill:#eeefff;fill-opacity:0.551515" />
    </g>
  </g>
</svg>
