<?xml version="1.0" encoding="UTF-8" standalone="no"?>
<svg
   width="466.19748"
   height="473.46707"
   viewBox="0 0 466.19748 473.46708"
   role="img"
   artist="Katerina Limpitsouni"
   source="https://undraw.co/"
   version="1.1"
   id="svg49"
   sodipodi:docname="publications.svg"
   inkscape:version="1.4.2 (f4327f4, 2025-05-13)"
   xmlns:inkscape="http://www.inkscape.org/namespaces/inkscape"
   xmlns:sodipodi="http://sodipodi.sourceforge.net/DTD/sodipodi-0.dtd"
   xmlns="http://www.w3.org/2000/svg"
   xmlns:svg="http://www.w3.org/2000/svg">
  <defs
     id="defs49" />
  <sodipodi:namedview
     id="namedview49"
     pagecolor="#ffffff"
     bordercolor="#000000"
     borderopacity="0.25"
     inkscape:showpageshadow="2"
     inkscape:pageopacity="0.0"
     inkscape:pagecheckerboard="0"
     inkscape:deskcolor="#d1d1d1"
     inkscape:zoom="85.82282"
     inkscape:cx="423.19747"
     inkscape:cy="249.07711"
     inkscape:window-width="1920"
     inkscape:window-height="991"
     inkscape:window-x="-9"
     inkscape:window-y="-9"
     inkscape:window-maximized="1"
     inkscape:current-layer="svg49" />
  <path
     d="M 240.03986,0.29444718 122.41466,26.757667 a 12.20139,12.20139 0 0 0 -9.215,14.56508 l 32.25406,143.364593 138.20269,-31.09275 a 6.05643,6.05643 0 0 0 2.99313,-1.65173 L 254.60494,9.5094772 A 12.20141,12.20141 0 0 0 240.03986,0.29444718 Z"
     fill="#e6e6e6"
     id="path12" />
  <path
     d="m 197.31272,20.035257 -64.46158,14.50252 a 11.11125,11.11125 0 0 0 -8.39446,13.26082 l 30.325,134.790133 122.744,-27.61485 -22.08437,-98.161793 a 48.695,48.695 0 0 0 -58.12859,-36.77683 z"
     fill="#ffffff"
     id="path13" />
  <path
     d="m 253.92119,147.70766 -80.92146,18.20566 a 2.70338,2.70338 0 1 0 1.18675,5.2749 l 80.92146,-18.20565 a 2.70339,2.70339 0 1 0 -1.18675,-5.27491 z"
     fill="#e4e4e4"
     id="path14" />
  <path
     d="m 251.57434,137.27626 -80.92148,18.20565 a 2.7061415,2.7061415 0 0 0 1.188,5.28029 l 80.92146,-18.20565 a 2.7061415,2.7061415 0 1 0 -1.188,-5.28029 z"
     fill="#e4e4e4"
     id="path15" />
  <path
     d="m 203.38539,137.16403 -35.07815,7.89186 a 2.7033739,2.7033739 0 1 0 1.18674,5.2749 l 35.07816,-7.89185 a 2.70339,2.70339 0 1 0 -1.18675,-5.27491 z"
     fill="#e4e4e4"
     id="path16" />
  <path
     d="m 244.31461,105.00778 -80.92147,18.20566 a 2.7061415,2.7061415 0 0 0 1.188,5.28029 l 80.92146,-18.20565 a 2.7061463,2.7061463 0 1 0 -1.188,-5.2803 z"
     fill="#e4e4e4"
     id="path17" />
  <path
     d="M 241.96897,94.581727 161.0475,112.78739 a 2.70338,2.70338 0 1 0 1.18675,5.2749 l 80.92146,-18.205653 a 2.70338,2.70338 0 1 0 -1.18674,-5.27491 z"
     fill="#e4e4e4"
     id="path18" />
  <path
     d="m 193.7788,94.464147 -35.07815,7.891863 a 2.7061415,2.7061415 0 0 0 1.188,5.28029 l 35.07815,-7.891863 a 2.7061415,2.7061415 0 1 0 -1.188,-5.28029 z"
     fill="#e4e4e4"
     id="path19" />
  <path
     d="m 234.70802,62.307897 -80.92147,18.20566 a 2.7061415,2.7061415 0 0 0 1.188,5.28029 l 80.92146,-18.20565 a 2.7061463,2.7061463 0 1 0 -1.188,-5.2803 z"
     fill="#e6e6e6"
     id="path20" />
  <path
     d="m 232.36238,51.881877 -80.92147,18.20566 a 2.7061415,2.7061415 0 0 0 1.188,5.28029 l 80.92146,-18.20565 a 2.7061463,2.7061463 0 1 0 -1.188,-5.2803 z"
     fill="#e6e6e6"
     id="path21" />
  <path
     d="m 184.17221,51.764267 -35.07815,7.89186 a 2.7061415,2.7061415 0 0 0 1.188,5.28029 l 35.07815,-7.89186 a 2.7061415,2.7061415 0 1 0 -1.188,-5.28029 z"
     fill="#e6e6e6"
     id="path22" />
  <path
     d="m 5.37659,166.63501 c -1.59652,0.002 -2.8903,1.29557 -2.89209,2.89209 v 299.04733 c 0.002,1.59661 1.29548,2.89057 2.89209,2.89258 h 374.9458 c 1.59651,-0.002 2.89006,-1.29607 2.8916,-2.89258 V 217.53052 c -0.002,-1.59652 -1.29509,-2.89052 -2.8916,-2.89258 H 165.12806 c -2.18452,0.002 -4.29101,-0.81201 -5.90674,-2.28223 l -48.37891,-43.95752 c -1.24795,-1.13579 -2.87508,-1.76459 -4.5625,-1.76318 z"
     fill="#3f3d56"
     id="path23"
     sodipodi:nodetypes="ccccccccccccc"
     style="fill:#9d9dfa;fill-opacity:1" />
  <path
     d="M 452.84024,88.418387 252.07732,2.1071772 A 22.11557,22.11557 0 0 0 223.05862,13.676457 L 117.86029,258.37146 353.74499,359.78207 a 10.97749,10.97749 0 0 0 6.14956,0.76065 l 104.515,-243.10564 A 22.11562,22.11562 0 0 0 452.84024,88.418387 Z"
     fill="#e6e6e6"
     id="path24" />
  <path
     d="M 369.13796,71.928397 259.11478,24.627667 a 20.13964,20.13964 0 0 0 -26.4269,10.5284 L 133.78133,265.2162 343.28101,355.28347 415.31035,187.74073 A 88.26188,88.26188 0 0 0 369.13796,71.928397 Z"
     fill="#ffffff"
     id="path25" />
  <path
     d="m 316.37362,319.50737 -138.117,-59.3787 a 4.9,4.9 0 1 0 -3.87063,9.00322 l 138.117,59.3787 a 4.9,4.9 0 1 0 3.87063,-9.00322 z"
     fill="#e4e4e4"
     id="path26" />
  <path
     d="m 324.028,301.70301 -138.117,-59.3787 a 4.905,4.905 0 0 0 -3.87458,9.01242 l 138.117,59.3787 a 4.9050016,4.9050016 0 1 0 3.87459,-9.01242 z"
     fill="#e4e4e4"
     id="path27" />
  <path
     d="m 253.43294,250.26886 -59.87148,-25.73971 a 4.9,4.9 0 1 0 -3.87063,9.00323 l 59.87148,25.73971 a 4.9,4.9 0 1 0 3.87063,-9.00323 z"
     fill="#e4e4e4"
     id="path28" />
  <path
     d="m 347.70601,246.62711 -138.117,-59.3787 a 4.905,4.905 0 0 0 -3.87459,9.01241 l 138.117,59.3787 a 4.905,4.905 0 1 0 3.87458,-9.01241 z"
     fill="#e4e4e4"
     id="path29" />
  <path
     d="m 355.35644,228.83195 -138.117,-59.3787 a 4.9,4.9 0 1 0 -3.87063,9.00322 l 138.117,59.3787 a 4.9,4.9 0 1 0 3.87063,-9.00322 z"
     fill="#e4e4e4"
     id="path30" />
  <path
     d="m 284.76534,177.3886 -59.87148,-25.73971 a 4.905,4.905 0 0 0 -3.87458,9.01242 l 59.87148,25.73971 a 4.905,4.905 0 1 0 3.87458,-9.01242 z"
     fill="#e4e4e4"
     id="path31" />
  <path
     d="m 379.03841,173.74684 -138.117,-59.37869 a 4.905,4.905 0 0 0 -3.87458,9.01241 l 138.117,59.3787 a 4.905,4.905 0 1 0 3.87458,-9.01242 z"
     fill="#cbcbff"
     id="path32" />
  <path
     d="m 386.68886,155.95173 -138.117,-59.378743 a 4.905,4.905 0 0 0 -3.87459,9.012413 l 138.117,59.3787 a 4.905,4.905 0 1 0 3.87459,-9.01237 z"
     fill="#cbcbff"
     id="path33" />
  <path
     d="M 316.09773,104.50834 256.22625,78.768627 a 4.905,4.905 0 0 0 -3.87458,9.01242 l 59.87148,25.739683 a 4.905,4.905 0 1 0 3.87458,-9.01242 z"
     fill="#cbcbff"
     id="path34" />
  <path
     d="m 167.03986,177.29445 -117.6252,26.46322 a 12.20139,12.20139 0 0 0 -9.215,14.56508 l 32.25406,143.36459 138.20269,-31.09275 a 6.05643,6.05643 0 0 0 2.99313,-1.65173 l -32.0446,-142.43338 a 12.20141,12.20141 0 0 0 -14.56508,-9.21503 z"
     fill="#e6e6e6"
     id="path35" />
  <path
     d="m 124.31272,197.03526 -64.46158,14.50252 a 11.11125,11.11125 0 0 0 -8.39446,13.26082 l 30.325,134.79013 122.74395,-27.61485 -22.08437,-98.16179 a 48.695,48.695 0 0 0 -58.12854,-36.77683 z"
     fill="#ffffff"
     id="path36" />
  <path
     d="m 180.92119,324.70766 -80.92146,18.20566 a 2.70338,2.70338 0 1 0 1.18675,5.2749 l 80.92146,-18.20565 a 2.70339,2.70339 0 1 0 -1.18675,-5.27491 z"
     fill="#e4e4e4"
     id="path37" />
  <path
     d="m 178.57434,314.27626 -80.92148,18.20565 a 2.7061415,2.7061415 0 0 0 1.188,5.28029 l 80.92146,-18.20565 a 2.7061415,2.7061415 0 1 0 -1.188,-5.28029 z"
     fill="#e4e4e4"
     id="path38" />
  <path
     d="m 130.38539,314.16403 -35.07815,7.89186 a 2.7033739,2.7033739 0 1 0 1.18674,5.2749 l 35.07816,-7.89185 a 2.70339,2.70339 0 1 0 -1.18675,-5.27491 z"
     fill="#e4e4e4"
     id="path39" />
  <path
     d="m 171.31461,282.00778 -80.92147,18.20566 a 2.7061415,2.7061415 0 0 0 1.188,5.28029 l 80.92146,-18.20565 a 2.7061463,2.7061463 0 1 0 -1.188,-5.2803 z"
     fill="#e4e4e4"
     id="path40" />
  <path
     d="M 168.96897,271.58173 88.0475,289.78739 a 2.70338,2.70338 0 1 0 1.18675,5.2749 l 80.92146,-18.20565 a 2.70338,2.70338 0 1 0 -1.18674,-5.27491 z"
     fill="#e4e4e4"
     id="path41" />
  <path
     d="m 120.7788,271.46415 -35.07815,7.89186 a 2.7061415,2.7061415 0 0 0 1.188,5.28029 l 35.07815,-7.89186 a 2.7061415,2.7061415 0 1 0 -1.188,-5.28029 z"
     fill="#e4e4e4"
     id="path42" />
  <path
     d="m 161.70802,239.3079 -80.92147,18.20566 a 2.7061415,2.7061415 0 0 0 1.188,5.28029 l 80.92146,-18.20565 a 2.7061463,2.7061463 0 1 0 -1.188,-5.2803 z"
     fill="#e6e6e6"
     id="path43" />
  <path
     d="m 159.36238,228.88188 -80.92147,18.20566 a 2.7061415,2.7061415 0 0 0 1.188,5.28029 l 80.92146,-18.20565 a 2.7061463,2.7061463 0 1 0 -1.188,-5.2803 z"
     fill="#e6e6e6"
     id="path44" />
  <path
     d="m 111.17221,228.76427 -35.07815,7.89186 a 2.7061415,2.7061415 0 0 0 1.188,5.28029 l 35.07815,-7.89186 a 2.7061415,2.7061415 0 1 0 -1.188,-5.28029 z"
     fill="#e6e6e6"
     id="path45" />
  <path
     d="M 2.89222,245.18088 C 1.2951729,245.18057 2.7059421e-4,246.475 0,248.07205 c 0,0.10846 0.089,222.82666 0.089,222.82666 0.16398028,1.46318 1.4016598,2.56924 2.874,2.56836 h 402.77248 c 1.47246,0.001 2.38406,-6.62804 2.54775,-8.09137 L 424.3861,248.39673 c 0.0923,-0.81815 0.1462,-1.83495 -0.40219,-2.44908 -0.54604,-0.61743 -1.64661,-0.77104 -2.47085,-0.76676 z"
     fill="#3f3d56"
     id="path46"
     style="fill:#cbcbfb;fill-opacity:1"
     sodipodi:nodetypes="cscccccccc" />
</svg>
