<?xml version="1.0" encoding="UTF-8" standalone="no"?>
<!-- Generator: Adobe Illustrator 27.0.1, SVG Export Plug-In . SVG Version: 6.00 Build 0)  -->

<svg
   version="1.1"
   id="a"
   x="0px"
   y="0px"
   viewBox="0 0 491.5 371.5"
   style="enable-background:new 0 0 491.5 371.5;"
   xml:space="preserve"
   sodipodi:docname="logo-sinese.svg"
   inkscape:version="1.4.2 (f4327f4, 2025-05-13)"
   xmlns:inkscape="http://www.inkscape.org/namespaces/inkscape"
   xmlns:sodipodi="http://sodipodi.sourceforge.net/DTD/sodipodi-0.dtd"
   xmlns:xlink="http://www.w3.org/1999/xlink"
   xmlns="http://www.w3.org/2000/svg"
   xmlns:svg="http://www.w3.org/2000/svg"><defs
   id="defs2" /><sodipodi:namedview
   id="namedview2"
   pagecolor="#ffffff"
   bordercolor="#000000"
   borderopacity="0.25"
   inkscape:showpageshadow="2"
   inkscape:pageopacity="0.0"
   inkscape:pagecheckerboard="0"
   inkscape:deskcolor="#d1d1d1"
   inkscape:zoom="2.0807537"
   inkscape:cx="245.58409"
   inkscape:cy="185.75"
   inkscape:window-width="1920"
   inkscape:window-height="991"
   inkscape:window-x="-9"
   inkscape:window-y="-9"
   inkscape:window-maximized="1"
   inkscape:current-layer="a" />
<style
   type="text/css"
   id="style1">
	.st0{fill:#191558;}
	.st1{clip-path:url(#SVGID_00000045592636042825727220000005466159754842384809_);}
</style>
<path
   id="path55"
   class="st0"
   d="M417.9,330.7c0.4,1.8,0.8,3.5,1.1,5.2h0.2l0.9-1.2c0.2,0.5,0.7,1,0.3,1.8c-0.1,0.1,0,0.3,0,0.5  c0.1,0.3,0.1,0.6,0.3,1.1l0.4-1l0.3,0.1l0.7,1.8l0.1-0.5c0.1,0,0.2,0,0.2,0.1c0.2,0.2,0.4,0.5,0.6,0.8c0.8,1,1.9,1.5,3,1.8  c1,0.3,2.1,0.4,3.2,0.6c0.1,0,0.2,0,0.3,0.1c0.2,0.3,0.5,0.5,0.9,0.5c0.3,0,0.6,0.5,1,0c0,0,0.2-0.1,0.3,0c0.7,0.5,0.9,0,1.1-0.5  l1,0.3l0.3-1.9c0.4,0.5,0.6,0.5,0.8-0.1c0.1-0.5,0.4-0.9,0.5-1.4l0.5,1c0.7-0.6,0.9-1.3,0.9-2.2c0-0.7,0-0.7,0.8-0.6  c-0.3-0.5-0.4-0.9,0.1-1.4c0.2-0.2,0-0.7,0.1-1c0.2-0.8,0.2-1.7,0.8-2.5c0.3-0.3,0-1.1,0-1.6c0-1.2-0.1-2.4-0.2-3.6  c0-0.7-0.2-1.4-0.2-2.1c0-0.5,0-0.9,0-1.4l0.3-0.1c0.3,0.7,0.6,1.5,0.9,2.2c1,2.4,2.1,4.8,2.9,7.3c1.6,4.8,3.8,9.3,5.8,13.9  c0.7,1.7,1.2,3.6,1.9,5.4c0.1,0.4,0,0.7-0.4,1c-0.4,0.3-0.8,0.7-0.9,1.2c-0.3,1.2-1.6,1.6-2.2,2.5c-0.1,0.1-0.4,0-0.5,0.1  c-0.3,0.2-0.6,0.4-0.7,0.7c0,0.2,0.2,0.7,0.5,0.8c0.4,0.1,0.9,0.2,1.3,0.1c0.7-0.2,1.3-0.5,1.9-0.9c1.2-0.6,2.4-1.2,3.6-1.7  c0.3-0.1,0.9-0.1,1.2,0.1c0.9,0.5,1.1,0.4,1.7-0.4c0.1-0.1,0.6-0.2,0.8-0.1c0.8,0.5,1.5,0.7,2.4,0.3c0.4-0.2,1,0,1.5,0  c0.3,0,0.5-0.2,0.8-0.2c-0.2-0.2-0.3-0.5-0.5-0.6c-1.2-0.7-2.3-1.3-3.2-2.4c-0.3-0.4-0.7-0.7-1.2-1c-0.7-0.4-1.1-1-1.2-1.8  c-0.5-2.9-1-5.7-1.5-8.5c-0.4-2.5-1-5-2.1-7.3c-0.9-1.8-1.5-3.8-2.2-5.7c-0.4-1-0.9-2-1.2-3c-0.1-0.3-0.2-0.7-0.1-1  c0.4-1,0-1.9-0.4-2.9c-0.7-1.3-1.3-2.6-2-4c-0.2-0.4-0.2-0.9-0.2-1.3c0-1.6-0.5-3.1-1.4-4.5c-0.2-0.3-0.4-0.7-0.4-1.1  c-0.3-2.3-1.1-4.5-2-6.6c-0.4-1-0.7-2-0.7-3.1c-0.1-2.2-0.1-4.5-1-6.6c-0.3-0.6-0.6-1.3-0.8-1.9c-0.3-1.2-0.7-2.3-0.8-3.5  c-0.1-4.8-1-9.5-3.1-13.9c-0.2-0.4-0.2-0.8,0.2-1.1c1-0.7,2.1-1.5,3.2-2.1c0.9-0.5,1.6-1,2.1-1.9c0.2-0.4,0.5-0.7,0.7-1.1  c0.2-0.2,0.3-0.5,0.6-0.5c1.3-0.5,2.6-1,3.9-1.5c0.8-0.3,1.2-1,1-1.8c0-0.2,0.2-0.5,0.4-0.6c1.1-0.7,2.3-1.4,3.4-2.1  c0.7-0.5,1.4-1,1.3-2.1c0-0.2,0.3-0.4,0.5-0.5c0.5-0.3,1-0.6,1.6-0.9c1.1-0.6,1.4-1.5,1.2-2.7c-0.2-0.8-0.4-1.5-0.6-2.2  c0-0.2,0-0.6,0.1-0.7c4.5-4,8.7-8.4,12.1-13.4c0.9-1.3,2.2-1.9,3.3-2.9c0.4-0.3,1.1-0.2,1.6-0.3c1.2-0.1,2.5-0.3,3.7-0.2  c1.5,0.1,3,0.5,4.6,0.8c1.1,0.2,2.1,0.2,3.1-0.3c0,0,0.1,0,0.1-0.1c1.9-0.8,2.2-1.4,2-3.4c-0.4-2.8-3-5.2-5.8-5.3  c-2.6-0.1-5.1-0.6-7.6-1.4c-3-1-2.8-0.7-4.7,1.7c-0.5,0.6-0.9,1.3-1.3,2c-0.4,0.8-0.7,1.6-1,2.4c-0.4,0.9-0.8,1.9-1.6,2.5  c-2.2,1.5-4.3,3-6.6,4.4c-3,1.9-5.5,4.2-7.7,6.9c-0.2,0.3-0.7,0.4-1,0.5c-0.6,0.3-1.2,0.5-1.7,0.9c-0.8,0.7-1.6,1.2-2.5,1.7  c-1.1,0.6-2.2,1.4-3.2,2.3c-1.9,1.8-4,3.1-6.4,4.1c-1.4,0.6-2.9,1.4-4,2.4c-1.4,1.2-3.1,2-4.6,3c-2.2,1.4-4.4,2.9-6.5,4.4  c-0.8,0.6-1.7,0.8-2.7,0.8c-2-0.1-4-0.2-6-0.2c-3.6-0.1-7.1,0.3-10.5,1.2c-1.9,0.5-3.7,0.8-5.7,0.7c-0.8,0-1.7,0.2-2.5,0.2  c-1,0-2-0.2-2.9-0.4c-1.6-0.3-3.3-0.4-5-0.4c-1.3,0-2.6,0.3-3.9,0.4c-0.5,0-1,0-1.5-0.2c-3.4-1.3-7-1.9-10.7-1.9  c-3.5-0.1-6.9,0-10.4-0.1c-0.5,0-1-0.3-1.5-0.5c-0.2-0.1-0.5-0.2-0.7-0.3c-0.1-0.1-0.3-0.1-0.4-0.2c-0.5-0.5-1-1-1.5-1.6  c-0.3-0.3-0.5-0.7-0.9-1c-0.7-0.6-1.4-1.4-2.2-1.8c-0.5-0.2-1.3,0.1-1.9,0.3c-1.5,0.6-2.9,1.5-4.4,2c-1,0.3-2,0.3-3.1,0.5  c-1.9,0.3-3.8,0.8-5.4,1.9c-1.2,0.8-2,1.8-2.5,3.1c-0.8,2.6,0.4,4,3.1,4.9c2.6,0.9,4.9-0.1,7.2-1c0.8-0.3,1.6-0.4,2.3-0.7  c1-0.4,2.1-0.4,3.2-0.5c1.4-0.2,2.7-0.1,4,0.2c1.3,0.3,2.7,0.1,3.9,0.5c2.3,0.6,4.5,1.5,6.9,2.1c3.2,0.8,6.4,1.5,9.6,2.1  c1.6,0.3,3.2,0.3,4.8,0.4c1.1,0.1,1.1,0.1,1.2,1.2c0,0.8,0.1,1.5,0.2,2.3c0,0.8,0.5,1.2,1.2,1.3c1.4,0.2,2.7,0.6,4.1,0.2  c0.2,0,0.4,0,0.6,0c1.6,0.8,3.3,0.7,4.9,0.6c0.5,0,0.8,0.1,0.9,0.6c0.1,0.4,0.4,0.5,0.8,0.5c0.9-0.1,1.8-0.1,2.7-0.3  c1-0.2,1.9-0.1,2.8,0.2c3.3,1.1,6.7,1.7,10.1,1.4c0.2,0,0.5,0.2,0.7,0.4c0.5,0.7,0.9,1.5,1.4,2.2c0.4,0.6,0.9,1.2,1.4,1.9  c1.1,1.4,0.9,3,0.6,4.7c-0.3,1.3-0.6,2.6-0.8,3.9c-0.1,1.1-0.2,2.2,0,3.2c0.2,1.1,0.1,2.2-0.1,3.2c-0.6,3-1.2,6-1.6,9.1  c-0.1,0.9,0.1,1.9,0.1,2.8c0,0.8,0,1.5,0,2.3c0,1.2-0.2,2.6,0.1,3.7c0.6,1.9,0.3,3.7-0.1,5.5c-0.2,1.2-0.6,2.4-0.1,3.6  c0.2,0.5-0.1,1.1-0.2,1.7c-0.1,1.5-0.4,3.1-0.4,4.6c0,1.6-0.2,3.1-0.6,4.6c-0.8,2.7-0.5,5.5-0.4,8.2c0.1,2.1,0.3,4.3,0.4,6.4  c0,0.8,0,1.6-0.1,2.4c0,0.2-0.2,0.5-0.4,0.6c-0.5,0.5-1.1,1-1.7,1.5c-0.5,0.5-1.2,0.8-1.9,0.7c-0.4,0-0.9-0.2-0.9,0.4  c0,0.6,0.5,0.7,0.9,0.7c1.9,0,3.7-0.1,5.5-0.2c0.6,0,1.1,0.1,1.7,0.2c0.8,0.1,1.6,0.2,2.4,0.1c1.7-0.2,3.5-0.5,5.2-0.8  c0.4-0.1,1-0.3,1.2-0.6c0.5-0.6,0.1-1.3-0.7-1.2c-1.8,0.1-3.5-0.7-5.2-1c-0.4-0.1-0.6-0.3-0.5-0.8c0.6-4.3,0.8-8.6,1.9-12.9  c0.8-3,1.1-6,1.3-9c0.1-1.4,0.3-2.7,0.6-4.1C417.1,332.1,417.5,331.5,417.9,330.7L417.9,330.7z M434.8,318.7L434.8,318.7  c-0.6-0.3-1.2-0.7-1.8-1.1c-0.1-0.1-0.2-0.2-0.3-0.4c0.2,0,0.5-0.1,0.5,0C433.8,317.7,434.3,318.2,434.8,318.7L434.8,318.7z   M419.8,333.9l-0.2,0.1l-0.2-1.4l0.3,0L419.8,333.9z"
   style="fill:#1e3a8a;fill-opacity:1" />
<g
   id="g73"
   transform="translate(-92.49,-32.82)"
   style="fill:#1e3a8a;fill-opacity:1">
	<path
   id="path57"
   class="st0"
   d="M278.8,224.7c-11.1,0.5-14.2-8.9-14.2-8.9C278.2,213.5,278.8,224.7,278.8,224.7z M268,225.1   c0,0-0.5,9.9,10.1,13.4C278.1,238.5,281.5,227.8,268,225.1z M257.6,235.5c0,0-0.5,9.9,10.1,13.4   C267.7,248.9,271.1,238.3,257.6,235.5z M254.1,240.9c0,0-4.9,8.6,3,16.5C257.1,257.4,264.9,249.4,254.1,240.9z M260.5,218.9   c0,0-4.6,8.8,3.5,16.4C264.1,235.3,271.6,227,260.5,218.9z M391.9,241c0,0,3.1,9.4,14.2,8.9C406.1,249.8,405.5,238.7,391.9,241z    M395.3,250.2c0,0-0.5,9.9,10.1,13.4C405.4,263.6,408.8,253,395.3,250.2z M462.9,188c0,0,3.1,9.4,14.2,8.9   C477.1,196.8,476.4,185.7,462.9,188z M466.3,197.3c0,0-0.5,9.9,10.1,13.4C476.4,210.6,479.8,200,466.3,197.3z M402.3,230.5   c0,0,3.1,9.4,14.2,8.9C416.6,239.4,415.9,228.2,402.3,230.5z M405.8,239.8c0,0-0.5,9.9,10.1,13.4   C415.8,253.2,419.2,242.6,405.8,239.8z M387.8,244c0,0-4.6,8.8,3.5,16.4C391.4,260.4,398.9,252.2,387.8,244z M450.8,197.4   c0,0,3.1,9.4,14.2,8.9C465,206.3,464.4,195.1,450.8,197.4z M454.2,206.7c0,0-0.5,9.9,10.1,13.4   C464.3,220.1,467.7,209.4,454.2,206.7z M446.7,200.5c0,0-4.6,8.8,3.5,16.4C450.3,216.9,457.8,208.6,446.7,200.5z M439.9,207.3   c0,0-5.8,11.1,4.5,20.7C444.4,228,453.9,217.6,439.9,207.3z M408.5,132.7c0,0,3.1,9.4,14.2,8.9C422.7,141.5,422,130.4,408.5,132.7z    M411.9,141.9c0,0-0.5,9.9,10.1,13.4C422,155.3,425.4,144.7,411.9,141.9z M404.4,135.8c0,0-4.6,8.8,3.5,16.4   C407.9,152.1,415.5,143.9,404.4,135.8z M385.6,89.3c0,0,4.6,8.8,15.5,6.5C401,95.8,398.6,84.9,385.6,89.3z M390.4,97.9   c0,0,1.1,9.8,12.1,11.6C402.5,109.6,404.2,98.5,390.4,97.9z M382,93c0,0-3.1,9.4,6.1,15.6C388.1,108.6,394.3,99.3,382,93z    M292.6,130.6c0,0,6.9,3,12.3-3.6C305,127,298.3,121.7,292.6,130.6z M299.6,133.4c0,0,5.4,5.3,12.8,1.1   C312.4,134.5,308.1,127.1,299.6,133.4z M292.3,134.5c0,0,2.6,7.1,11.1,6.4C303.4,140.8,302.6,132.3,292.3,134.5z M299.6,96.3   c0,0-1.4-7.4-9.9-8.2C289.7,88.1,289,96.6,299.6,96.3z M297.9,88.9c0,0,1.4-7.4-6.3-11.2C291.7,77.7,288,85.4,297.9,88.9z    M303,94.4c0,0,4.4-6.2-1-12.8C302,81.6,295.4,87.1,303,94.4z M312.3,89.1c0,0,6.9,3,12.3-3.6C324.6,85.6,317.9,80.2,312.3,89.1z    M319.3,91.9c0,0,5.4,5.3,12.8,1.1C332.1,93.1,327.8,85.7,319.3,91.9z M311.9,93c0,0,2.6,7.1,11.1,6.4   C323.1,99.4,322.2,90.9,311.9,93z M321.5,112.3c0,0,7.5-1,8.7-9.4C330.2,102.9,321.7,101.7,321.5,112.3z M328.9,109.8   c0,0,7.4,1.8,11.5-5.7C340.5,104.2,333,100.1,328.9,109.8z M323.2,115.8c0,0,5.9,4.7,12.8-0.3C336,115.5,330.9,108.6,323.2,115.8z    M346,143.9c0,0-2.2-6.3-9.8-5.8C336.2,138.1,336.8,145.7,346,143.9z M343.3,136.9c0,0,0.2-7.6-7.9-10.1   C335.3,126.8,332.9,135,343.3,136.9z M349.1,141.5c0,0,3.4-6.8-3-12.5C346.1,129,340.5,135.4,349.1,141.5z M239,95.8   c0,0-4.1,6.4,1.6,12.8C240.6,108.6,246.9,102.8,239,95.8z M225.1,91.6c0,0-6.1,4.4-3.2,12.4C222,104.1,230,101,225.1,91.6z    M225.2,91.8c0,0-7.1-2.6-12.1,4.3C213.1,96.1,220.1,101,225.2,91.8z M188.7,115c0,0,6.9-3.1,5.7-11.5   C194.4,103.4,185.9,104.8,188.7,115z M195.1,109.7c0,0,7.6,0,9.9-8.2C205,101.5,196.8,99.3,195.1,109.7z M184.5,108.8   c0,0-0.3-7.6-8.6-9.5C175.9,99.2,174.1,107.6,184.5,108.8z M188.7,114.8c0,0,6.4,4,12.7-1.7C201.4,113.1,195.6,106.8,188.7,114.8z    M188,131.2c0,0-7.4-1.6-11.4,5.9C176.6,137.1,184.2,141,188,131.2z M179.7,131.5c0,0-6.1-4.5-12.8,0.7   C166.9,132.3,172.2,139,179.7,131.5L179.7,131.5z M187.9,131.3c0,0-2.8-7-11.3-6.2C176.6,125.1,177.6,133.6,187.9,131.3z    M191.9,118.3c0,0,1.5,7.4,10,8C201.9,126.4,202.5,117.8,191.9,118.3z M212.2,106.7c0,0,1.5,7.4,10,8   C222.2,114.7,222.7,106.2,212.2,106.7z M235.2,94.9c0,0-7.4,1.5-8.1,10C227.1,104.9,235.7,105.4,235.2,94.9z M240.3,249.8   c0,0-0.3,9.9,10.3,13.2C250.6,263,253.8,252.3,240.3,249.8z M236,258.1c0,0-7,7-1.5,16.7C234.5,274.8,244.1,269.1,236,258.1   L236,258.1z M232.1,256.7c0,0-9.9-0.6-13.6,9.9C218.5,266.6,229.1,270.1,232.1,256.7z M234.4,252.8c0,0-6.2-7.7-16.4-3.2   C218,249.6,222.5,259.8,234.4,252.8z M237,241.8c0,0-6.2-7.7-16.4-3.2C220.6,238.6,225.1,248.7,237,241.8z M246.1,234.8   c0,0-4.7-5.7-12.3-2.4C233.8,232.3,237.2,240,246.1,234.8z M249.9,231.1c0,0-1.4-10.2-12.9-11.8   C237.1,219.3,235.6,230.8,249.9,231.1z M249.6,223.4c0,0,3.3-9.7-6.2-16.3C243.3,207.1,236.9,216.7,249.6,223.4z M235.6,215.2   c0,0,2.6-7.5-4.8-12.5C230.8,202.7,225.9,210.1,235.6,215.2z M234.7,225.6c0,0,2.6-7.5-4.8-12.5C229.9,213.1,225,220.5,234.7,225.6   z M223.4,219.3c0,0,7.1-6.5,2.2-16.2C225.6,203.1,216,208.1,223.4,219.3z M209.6,208.9c0,0,9.5,1.6,14.1-8.2   C223.7,200.7,213.9,196.2,209.6,208.9z M198.2,205.9c0,0-5.1,8.1,2.1,16.2C200.3,222.1,208.3,214.7,198.2,205.9z M186.2,215.8   c0,0-0.6,9.6,9.6,13.2C195.8,229,199.2,218.7,186.2,215.8z M178.6,227.7c0,0,5.1,8.2,15.5,5.1C194.1,232.8,190.9,222.4,178.6,227.7   z M183.2,240.5c0,0,7.1,6.5,16.3,0.8C199.5,241.3,193.7,232.1,183.2,240.5z M183,245.1c0,0,1.6,9.5,12.3,10.7   C195.3,255.8,196.4,245,183,245.1z M180.3,249c0,0-4.2,7.4,2.5,14.3C182.8,263.3,189.6,256.4,180.3,249z M171.1,256.8   c0,0-4.2,7.4,2.5,14.3C173.7,271.1,180.5,264.2,171.1,256.8z M167.6,263c0,0-5.7,2.6-4.6,9.7C163,272.7,170,271.5,167.6,263z    M169.6,254.1c0,0-8.5,0.1-11,9.4C158.6,263.5,168,265.8,169.6,254.1L169.6,254.1z M174.6,244.6c0,0-2.3-8.2-11.9-8.2   C162.7,236.4,162.8,246,174.6,244.6z M164.4,251c0,0,4.7-7.1-1.6-14.4C162.9,236.6,155.6,243,164.4,251z M147,260   c0,0,4.7-7.1-1.6-14.4C145.5,245.6,138.2,252,147,260z M134.8,259.4c0,0,7.7-3.6,6.1-13.1C140.9,246.3,131.4,248,134.8,259.4z    M124.9,251.1c0,0,8.4,1.3,12.4-7.5C137.3,243.7,128.5,239.8,124.9,251.1z M129.7,236.5c0,0,4.3,7.4,13.6,5   C143.3,241.6,140.8,232.2,129.7,236.5z M141,225.8c0,0-3.9,7.6,3.1,14.2C144.1,240,150.6,232.8,141,225.8z M158.4,217.8   c0,0-6.8,5.1-3.3,14.1C155.1,231.9,164.1,228.3,158.4,217.8z M175.1,198.5c0,0-6.8,5.1-3.3,14.1C171.8,212.7,180.7,209,175.1,198.5   z M171.2,197.1c0,0-8.5,0.9-10,10.4C161.2,207.5,170.7,209,171.2,197.1z M146.8,202c0,0-8.5,0.9-10,10.4   C136.8,212.4,146.3,213.9,146.8,202z M146.4,202.2c0,0-7.9-3.2-13.8,4.4C132.6,206.6,140.4,212.4,146.4,202.2z M137.3,196.1   c0,0-7.9-3.2-13.8,4.4C123.5,200.6,131.2,206.4,137.3,196.1z M130.8,183.5c0,0-7.3,0.9-8.5,9.1   C122.2,192.6,130.5,193.7,130.8,183.5z M129.8,181.9c0,0-7.3-6.2-16.2-0.2C113.6,181.7,119.7,190.6,129.8,181.9z M117.4,171.1   c0,0-9.5-0.9-13.4,9.1C104,180.2,114.1,184,117.4,171.1L117.4,171.1z M128.8,151.3c0,0-8.8,3.7-7.4,14.4   C121.5,165.7,132.1,164.1,128.8,151.3z M108.8,151.3c0,0-0.3,9.5,9.9,12.8C118.7,164.1,121.8,153.8,108.8,151.3z M98.4,168   c0,0,6.9,6.6,16.1,1.1C114.5,169.1,109,159.9,98.4,168z M96,160c0,0,5.3,5.2,12.6,1C108.6,161.1,104.3,153.8,96,160z M127.7,167.8   c0,0,7.4,0.1,9.8-7.9C137.4,159.9,129.4,157.6,127.7,167.8z M136.1,176.3c0,0,7.4,0.1,9.8-7.9C145.9,168.3,137.8,166.1,136.1,176.3   z M139.4,180.9c0,0,7.7,4.7,15.1-2.3C154.5,178.6,147.4,171.3,139.4,180.9z M162.9,185.7c0,0,8-4.1,6-14   C168.9,171.7,159,173.8,162.9,185.7z M191.7,194.4c0,0-2.5-8.6-12.6-8.6C179,185.8,179.2,196,191.7,194.4L191.7,194.4z    M162.9,185.6c0,0,8.9,1.3,13-8C175.9,177.6,166.5,173.6,162.9,185.6z M210.3,185.1c0,0-6.4-6.3-15.2-1.2   C195.1,183.9,200.3,192.7,210.3,185.1z M210.3,185.1c0,0-1.6-8.8-11.8-9.7C198.5,175.4,197.7,185.5,210.3,185.1z M194.9,192   c0,0,1.1-7.4-6.7-10.8C188.2,181.1,184.9,188.9,194.9,192z M217.8,187.4c0,0,1.1-7.4-6.7-10.8C211.1,176.6,207.8,184.4,217.8,187.4   z M254.8,195.2c0,0,1.7-8.8-7.4-13.4C247.4,181.8,243,191,254.8,195.2z M275.6,195.4c0,0-2.9-8.5-13-8   C262.6,187.4,263.3,197.6,275.6,195.4z M275.6,195.4c0,0,2.5-8.6-6.1-14C269.5,181.4,264.2,190.1,275.6,195.4z M258.8,194.5   c0,0,4.3-6.1-1-12.7C257.8,181.8,251.3,187.3,258.8,194.5z M281.2,200.8c0,0,3.9-5.5-0.9-11.4C280.3,189.4,274.4,194.3,281.2,200.8   z M288.6,204.7c0,0,5.2-7.4-1.2-15.3C287.4,189.4,279.5,196,288.6,204.7z M254.1,184.8c0,0,4.3-6.1-1-12.7   C253.1,172.1,246.6,177.6,254.1,184.8z M231.6,84.6c0,0,2.9-8.5-5.6-14.2C226.1,70.4,220.5,78.9,231.6,84.6z M252.2,87.5   c0,0-1.7-8.8-11.9-9.6C240.4,77.9,239.7,88.1,252.2,87.5z M252.2,87.5c0,0,3.6-8.2-4.2-14.7C248,72.8,241.6,80.7,252.2,87.5z    M235.7,84.4c0,0,5.1-5.5,0.6-12.7C236.3,71.7,229.1,76.3,235.7,84.4z M257.1,93.6c0,0,5.1-5.5,0.6-12.7   C257.7,80.9,250.6,85.5,257.1,93.6z M217.8,162c0,0,1.1-7.4-6.7-10.8C211.1,151.2,207.8,159,217.8,162z M216,151.6   c0,0,0.9-5.9-5.3-8.7C210.6,142.9,208,149.1,216,151.6z M225.4,162.3c0,0,7.3-1.8,7.5-10.3C232.9,152,224.5,151.9,225.4,162.3z    M237.3,171.3c0,0,0.4,7.5,8.7,9.3C246,180.6,247.8,172.3,237.3,171.3z M240.4,169c0,0,5.1,5.5,12.6,1.6   C253,170.6,249.1,163.1,240.4,169z M241.1,165.7c0,0,7.5,0,9.8-8.1C250.9,157.5,242.7,155.3,241.1,165.7z M251.6,164.9   c0,0,3.1,3.4,7.8,1C259.3,165.9,256.9,161.2,251.6,164.9z M252,162.8c0,0,4.6,0,6-5C258,157.8,252.9,156.5,252,162.8z M265.6,184.2   c0,0,3.7-2.7,1.9-7.6C267.5,176.6,262.6,178.5,265.6,184.2z M263.6,183.5c0,0,0.5-4.6-4.3-6.6C259.4,177,257.4,181.8,263.6,183.5z    M269.1,133c0,0,5.6-1.6,5.5-8.2C274.6,124.7,268,124.9,269.1,133z M275.1,145.1c0,0,4.1-4.2,0.7-9.9   C275.9,135.2,270.2,138.6,275.1,145.1z M275.1,145c0,0,5.7-1.1,6.3-7.7C281.4,137.4,274.8,136.9,275.1,145z M270.6,135.1   c0,0,4.8,0.7,7-4.4C277.7,130.7,272.6,128.6,270.6,135.1z M276.1,123.3c0,0,4.8,0.7,7-4.4C283.1,119,278,116.8,276.1,123.3z    M322.2,173.1c0,0,3.3-2.4,1.7-6.7C323.9,166.5,319.6,168.1,322.2,173.1z M320.5,172.6c0,0,0.5-4-3.7-5.8   C316.7,166.8,315,171.1,320.5,172.6z M303.2,150.6c0,0,2.9,2.9,6.8,0.6C310.1,151.2,307.8,147.3,303.2,150.6z M303.5,148.8   c0,0,4-0.1,5.1-4.6C308.7,144.2,304.2,143.2,303.5,148.8z M304.8,118.2c0,0-2.3,3.3,0.7,6.8C305.5,125.1,308.9,122.1,304.8,118.2z    M306.6,118.2c0,0,0.9,3.9,5.5,4.2C312.1,122.4,312.3,117.8,306.6,118.2z M313,106.6c0,0,3.9-0.9,4.1-5.5   C317.1,101.2,312.6,101,313,106.6z M311.6,106.7c0,0,2-3.5-1.2-6.8C310.4,99.9,307.2,103.2,311.6,106.7z M319.4,153.9   c0,0,1.9-9.6-8-14.5C311.4,139.4,306.6,149.3,319.4,153.9z M342,154.2c0,0-3.1-9.2-14.1-8.7C327.9,145.5,328.6,156.5,342,154.2z    M323.7,153.2c0,0,4.7-6.6-1.1-13.8C322.6,139.4,315.5,145.3,323.7,153.2z M318.6,142.7c0,0,4.7-6.6-1.1-13.8   C317.5,128.9,310.5,134.8,318.6,142.7z M331.1,142c0,0,4-2.9,2.1-8.2C333.2,133.7,327.9,135.8,331.1,142z M328.9,141.3   c0,0,0.6-5-4.6-7.1C324.3,134.1,322.2,139.4,328.9,141.3z M360.7,73.1c0,0-6-4.8-13,0.3C347.8,73.4,352.9,80.3,360.7,73.1z    M369.1,57.5c0,0-7.5-1.2-11.1,6.7C357.9,64.2,365.8,67.7,369.1,57.5z M361.8,69.8c0,0-2.9-5.7-10-4.2   C351.8,65.6,353.4,72.7,361.8,69.8z M352.6,69.6c0,0-2.9-5.7-10-4.2C342.7,65.4,344.2,72.4,352.6,69.6z M356.7,60.6   c0,0-0.6-3.9-5-4.4C351.7,56.2,351.2,60.6,356.7,60.6z M355.4,61.9c0,0-3.2-2.2-6.6,0.6C348.8,62.5,351.7,65.9,355.4,61.9z    M347.8,122.5c0,0-5.1-5.2-12.3-1.2C335.5,121.3,339.6,128.5,347.8,122.5z M357.5,108.8c0,0-7-2-11.3,5   C346.2,113.8,353.3,118,357.5,108.8z M349.2,119.6c0,0-2.1-5.7-8.9-5.1C340.2,114.5,340.9,121.3,349.2,119.6z M345.4,110.3   c0,0-0.1-3.7-4.2-4.7C341.2,105.6,340.2,109.7,345.4,110.3z M344,111.3c0,0-2.8-2.5-6.3-0.2C337.7,111.2,340.1,114.7,344,111.3z    M283.2,187.9c0,0,3.7-2.7,1.9-7.6C285.1,180.3,280.3,182.1,283.2,187.9z M281.3,187.2c0,0,0.5-4.6-4.3-6.6   C277,180.6,275.1,185.5,281.3,187.2z M238.2,167.7c0,0,4.7-7.8-2.4-15.2C235.8,152.5,228.5,159.7,238.2,167.7z M178.1,146.5   c0,0-1.6-7.3-10.1-7.8C168,138.7,167.6,147.2,178.1,146.5z M175.4,149.3c0,0-5.9-4.6-12.7,0.4C162.7,149.7,167.8,156.5,175.4,149.3   z M156,186.9c0,0-5.9-4.6-12.7,0.4C143.3,187.3,148.4,194.1,156,186.9z M179.1,150c0,0-7.4,1.2-8.4,9.6   C170.7,159.5,179.1,160.4,179.1,150z M262.9,157.7c0,0,4.7-7.8-2.4-15.2C260.5,142.4,253.1,149.6,262.9,157.7z M252.1,151.8   c0,0,7.9-4.4,5.6-14.4C257.7,137.4,247.7,139.9,252.1,151.8z M242.1,157.2c0,0,7.9-4.4,5.6-14.4   C247.7,142.8,237.7,145.3,242.1,157.2z M233.5,149.5c0,0,7.3,0.3,9.9-7.6C243.4,141.8,235.4,139.4,233.5,149.5z M229.5,144.3   c0,0,7.8-4,5.8-13.7C235.4,130.6,225.7,132.7,229.5,144.3z M224.9,141.6c0,0,8.7-1,10.2-10.8C235.2,130.7,225.3,129.3,224.9,141.6z    M218.9,135.5c0,0,8.7-1,10.2-10.8C229.1,124.7,219.3,123.3,218.9,135.5z M213.1,134.4c0,0,6.2-6.2,1.3-14.8   C214.4,119.5,205.8,124.6,213.1,134.4z M203.8,120.6c0,0,4.7,2.5,8.8-1.9C212.6,118.6,208.2,114.6,203.8,120.6z M195.8,150.9   c0,0,8.4,1.2,12.2-7.6C208,143.3,199.2,139.6,195.8,150.9z M191.9,155.6c0,0,5.7,6.2,14.2,1.9C206.2,157.5,201.8,149,191.9,155.6z    M189.6,151.7c0,0,5.3-0.6,6.3-6.6C195.9,145.1,189.9,144.2,189.6,151.7z M176,117.6c0,0-6.7-5.2-14.4,0.5   C161.6,118,167.4,125.7,176,117.6z M181.7,115.4c0,0-1.8-8.3-11.4-8.8C170.3,106.6,169.9,116.2,181.7,115.4z M181.7,119.9   c0,0-4.9-2.1-8.7,2.6C173,122.5,177.7,126.3,181.7,119.9z M201.3,141.9c0,0,6.4-5.9,1.9-14.5C203.2,127.4,194.6,132,201.3,141.9z    M186.8,102.8c0,0,6.4-5.8,1.9-14.5C188.7,88.2,180.1,92.8,186.8,102.8z M223.3,161.1c0,0,4.8-8.9-3.5-16.8   C219.8,144.3,212,152.6,223.3,161.1z M98.7,148.3c0,0,0.4,7.4,8.6,9.2C107.3,157.5,109,149.3,98.7,148.3L98.7,148.3z M147.5,202.6   c0,0-1.8,4.6,2.6,7.9C150.2,210.5,153.4,206,147.5,202.6z M148.9,201.7c0,0,3.6,5.5,10.7,3.3C159.6,205,157.3,197.9,148.9,201.7z    M129.1,228.9c0,0,1.8,5.6,8.4,5.4C137.5,234.2,137.2,227.6,129.1,228.9z M187.8,164.7c0,0-6,4.5-2.9,12.4   C184.9,177.1,192.7,173.9,187.8,164.7z M181.7,173.4c0,0-4.8,3.6-2.4,9.9C179.4,183.2,185.7,180.7,181.7,173.4z M165.6,169.9   c0,0-7.1-2.3-11.8,4.7C153.8,174.7,160.9,179.3,165.6,169.9L165.6,169.9z M155,169.9c0,0-5.7-1.9-9.4,3.8   C145.6,173.7,151.3,177.4,155,169.9z M182.8,158.6c0,0-7.1-2.4-11.9,4.6C170.9,163.2,178,167.9,182.8,158.6z M183.3,161.4   c0,0-9.7,2.9-9.4,14.3C173.9,175.8,185.3,175.4,183.3,161.4z M252.8,121.6c0,0-6.6-3.6-12.5,2.6C240.3,124.2,246.5,130,252.8,121.6   z M235.9,113.2c0,0-5.3-2.8-10,2.1C225.9,115.3,230.9,119.9,235.9,113.2z M256.2,114.5c0,0-0.8-7.5-9.2-8.8   C247,105.7,245.7,114.1,256.2,114.5L256.2,114.5z M253.8,116.1c0,0-6.8-7.5-17-2.5C236.9,113.6,242,123.8,253.8,116.1z    M336.5,164.1c0,0-5.4-5.2-12.7-0.8C323.8,163.3,328.3,170.5,336.5,164.1z M327,159.6c0,0-4.4-4.1-10.1-0.7   C316.8,158.9,320.3,164.7,327,159.6z M315.1,174c0,0-1.5-5.8-8.2-6C306.9,168,306.8,174.8,315.1,174z M298.9,144.8   c0,0-1.1-4.4-6.2-4.5C292.7,140.3,292.6,145.4,298.9,144.8z M339,159.2c0,0-3.4-6.7-11.7-5.1C327.3,154.1,329,162.4,339,159.2z    M324.4,58.1c0,0-3.8,6.5,2.1,12.7C326.5,70.8,332.6,64.7,324.4,58.1z M346.3,63.9c0,0,0.2-7.6-7.9-10.1   C338.4,53.8,335.9,62,346.3,63.9z M313.7,79c0,0,1.9-9.6-8-14.5C305.7,64.5,300.9,74.4,313.7,79z M306.4,78.7c0,0-3.1-9.2-14.1-8.7   C292.3,70,293.1,81,306.4,78.7z M318.9,80.9c0,0,4.7-6.7-1.1-13.8C317.8,67.1,310.7,73,318.9,80.9z M335.4,71.9   c0,0,4.7-6.7-1.1-13.8C334.2,58.2,327.2,64.1,335.4,71.9z M329.1,78.1c0,0,4-2.9,2.1-8.2C331.1,69.8,325.9,71.9,329.1,78.1z    M326.9,77.4c0,0,0.6-5-4.6-7.1C322.3,70.2,320.2,75.5,326.9,77.4z M315.3,82.7c0,0-4.4-4.1-10.1-0.7   C305.1,82.1,308.7,87.8,315.3,82.7z M332.7,84.4c0,0-3.4-6.7-11.7-5.1C321.1,79.3,322.8,87.6,332.7,84.4z M334.1,99.4   c0,0,10.6-1.3,12.3-13.2C346.4,86.3,334.5,84.6,334.1,99.4z M339.1,80.1c0,0,6.1,6.5,14.9,1.8C354,81.9,349.3,73.1,339.1,80.1z    M338.6,78.7c0,0,5.4-3.8,2.9-10.7C341.5,68,334.5,70.5,338.6,78.7z M332.6,90.5c0,0,4.7-1.2,4.7-6.7   C337.4,83.8,331.9,83.8,332.6,90.5z M366.9,95.2c0,0-8.5-1.6-12.9,7.1C354,102.3,362.8,106.5,366.9,95.2z M354.7,96.7   c0,0-6.8-1.3-10.3,5.7C344.4,102.4,351.5,105.8,354.7,96.7z M368.1,86.1c0,0-3.5-7.9-13.2-6.6C355,79.5,356.4,89.2,368.1,86.1z    M366.1,88.8c0,0-10-6-19.6,3.1C346.5,91.8,355.7,101.3,366.1,88.8z M285.9,117.9c0,0,0-8.7-9.4-11.3   C276.5,106.6,274,116.1,285.9,117.9z M280.1,105.4c0,0,0-6.9-7.5-9C272.5,96.4,270.5,104,280.1,105.4z M294.2,113.7   c0,0,7.1-4.9,4-14.2C298.2,99.6,288.9,102.9,294.2,113.7z M290.4,114.3c0,0,4-11-6.7-18.7C283.7,95.7,276.1,106.5,290.4,114.3z    M372.6,138.2c0,0,4.1,7.3,13.3,5.1C385.9,143.3,383.6,134.1,372.6,138.2z M381.3,146.2c0,0,3.3,5.9,10.6,4.1   C391.9,150.3,390.1,142.9,381.3,146.2z M365.7,145.9c0,0-3.7,7.5,3.3,13.8C369.1,159.7,375.3,152.6,365.7,145.9z M368.4,142.7   c0,0,1.8,11.2,14.5,12.6C382.8,155.3,384.1,142.6,368.4,142.7z M388.6,202c0,0-11.3-1.6-16.4,10.2   C372.2,212.2,384.1,217.2,388.6,202z M387.5,175.6c0,0-10.6,4.2-9.2,17C378.3,192.6,391,191.1,387.5,175.6z M387.5,175.7   c0,0-11.1-2.6-17.3,8.6C370.2,184.3,381.5,190.4,387.5,175.7z M387.5,197c0,0-8-5.1-16,2.2C371.5,199.1,378.8,207,387.5,197z    M394,168.2c0,0-7.2-4.5-14.4,1.9C379.6,170.1,386.2,177.2,394,168.2z M398.4,158.6c0,0-9.7-6.1-19.2,2.6   C379.1,161.2,388,170.7,398.4,158.6z M375.5,203.6c0,0-8-5.1-16,2.2C359.6,205.7,366.9,213.6,375.5,203.6z M349,241.3   c0,0-2.8-9.1-13.5-8.8C335.5,232.5,335.9,243.2,349,241.3z M359.6,225.6c0,0,9.4-1,11.2-11.6C370.8,214,360.1,212.4,359.6,225.6z    M356.4,221.9c0,0,6.6-6.8,1.2-16.1C357.6,205.8,348.4,211.4,356.4,221.9L356.4,221.9z M352.2,221.3c0,0-0.5-9.5-11-11.8   C341.2,209.5,339,220,352.2,221.3z M350.5,208.1c0,0,4.1-4.2,0.7-9.9C351.2,198.2,345.6,201.6,350.5,208.1z M347.9,207.7   c0,0-0.3-5.8-6.7-7.3C341.1,200.5,339.8,206.9,347.9,207.7z M373.9,189.1c0,0-3.7-4.5-9.7-1.9C364.2,187.2,366.9,193.2,373.9,189.1   z M373.2,191.6c0,0-5.8-0.4-8,5.8C365.2,197.4,371.5,199.6,373.2,191.6z M377.4,166.5c0,0-3.7-4.5-9.7-1.9   C367.7,164.6,370.4,170.7,377.4,166.5z M376.7,169.1c0,0-5.8-0.4-8,5.8C368.7,174.9,375,177,376.7,169.1z M355,224.8   c0,0-10.2-5.4-19.1,4C335.9,228.8,345.5,237.7,355,224.8z M340.6,194.3c0,0-10.2-5.4-19.1,4C321.5,198.3,331.1,207.2,340.6,194.3z    M333.9,208.3c0,0-6.1-9.8-18.5-6.1C315.4,202.2,319.2,214.7,333.9,208.3z M341.5,220.6c0,0-6.1-9.8-18.5-6.1   C322.9,214.5,326.7,227,341.5,220.6z M332.2,231.9c0,0-0.2-9.3-10.3-11.9C321.9,220,319.4,230.2,332.2,231.9z M347.4,176.8   c0,0-7.5,5.8-3.5,15.7C343.9,192.5,353.8,188.4,347.4,176.8z M352,178.3c0,0-2.1,9.3,7.3,14.4C359.4,192.7,364.4,183.2,352,178.3z    M354.4,176.7c0,0,4.5,6.6,13.1,3.7C367.6,180.5,364.6,171.9,354.4,176.7z M351.8,175.1c0,0,11.5-0.7,14.2-13.4   C366,161.8,353.2,159.2,351.8,175.1z M394.7,194.2c0,0,7.9-5.1,4.7-15.2C399.4,179,389.3,182.3,394.7,194.2z M394.7,194.1   c0,0,9.4,0.3,12.5-9.8C407.2,184.4,397.1,181.3,394.7,194.1z M391.2,177c0,0,7.3,2.8,12.5-4.3C403.7,172.6,396.6,167.5,391.2,177z    M390.7,201.2c0,0,6.6,2.5,11.3-3.9C401.9,197.3,395.5,192.7,390.7,201.2z M388.7,209.7c0,0,8.8,3.3,15.1-5.2   C403.8,204.5,395.1,198.3,388.7,209.7z M403.4,181.2c0,0,3.7,3.1,8.1-0.1C411.6,181.1,408.4,176.7,403.4,181.2z M403.6,179   c0,0,4.8-0.6,5.5-6C409.1,173,403.7,172.3,403.6,179z M469.3,183.6c0,0,3.7,3.1,8.1-0.1C477.4,183.6,474.3,179.1,469.3,183.6z    M469.4,181.4c0,0,4.8-0.6,5.5-6C474.9,175.4,469.6,174.7,469.4,181.4z M425.9,224.2c0,0,4.5,3.7,9.8-0.1   C435.7,224.2,431.9,218.9,425.9,224.2z M426.1,221.6c0,0,5.7-0.8,6.6-7.2C432.7,214.4,426.2,213.6,426.1,221.6z M442.4,241.7   c0,0-0.9,5.7,5,8.4C447.4,250.1,450,244.2,442.4,241.7z M444.7,240.5c0,0,3.5,4.6,9.6,2.1C454.3,242.6,451.7,236.6,444.7,240.5z    M404.3,199.9c0,0,3.7,3.1,8.1-0.1C412.4,199.8,409.3,195.4,404.3,199.9z M404.4,197.7c0,0,4.8-0.6,5.5-6   C409.9,191.7,404.6,191,404.4,197.7z M397.3,152.4c0,0,5.1-5.9,0.3-13.2C397.6,139.1,390.3,144,397.3,152.4z M422.8,186.2   c0,0,0.2-7.8-8.2-10.4C414.6,175.8,412.1,184.3,422.8,186.2z M421.1,187.9c0,0-4.7-4.6-11.2-0.9C409.9,187,413.8,193.5,421.1,187.9   z M423.6,188.8c0,0-9.1,2.4-9.3,13.1C414.3,201.8,424.9,201.9,423.6,188.8z M412.9,121.2c0,0,1.1-7.4-6.7-10.8   C406.2,110.3,402.9,118.1,412.9,121.2z M411.1,110.7c0,0,0.9-5.9-5.3-8.7C405.7,102.1,403.1,108.3,411.1,110.7z M422,121.9   c0,0,6.7-3.3,5.1-11.6C427.1,110.3,418.8,111.9,422,121.9z M418.4,120.3c0,0,4.8-8.9-3.5-16.8C414.9,103.5,407.1,111.8,418.4,120.3   z M226.8,104.8c0,0-5.4,3.4-3.4,10.4C223.5,115.2,230.4,113.1,226.8,104.8z M276.4,163.7c0,0-4.3-6.2-12.3-3.4   C264.1,160.3,267,168.3,276.4,163.7z M275,167.3c0,0-7.2-2.1-11.6,5.2C263.3,172.5,270.6,176.8,275,167.3z M276.1,169.3   c0,0-5.4,3.3-3.5,10.2C272.6,179.5,279.5,177.5,276.1,169.3z M277.5,167.2c0,0,0,9.1,9.9,11.8C287.4,179,290,169.1,277.5,167.2z    M299.2,165c0,0-0.4,7.5,7.6,10.2C306.7,175.2,309.4,167.2,299.2,165z M302.5,163c0,0,4.5,6.1,12.4,3   C314.8,166.1,311.7,158.2,302.5,163z M302.7,160.8c0,0,6.3,0.7,9-5.9C311.8,154.8,305.1,152.2,302.7,160.8z M407.1,83.3   c0,0,1.4,3.8,6,3.4C413.1,86.7,412.6,82.2,407.1,83.3z M408.1,81.8c0,0,3.7,1.6,6.5-2C414.7,79.8,411,77,408.1,81.8z M420.4,93.1   c0,0,5.6-7.9-1.3-16.5C419.1,76.6,410.7,83.6,420.4,93.1z M440.9,102.6c0,0,1-9.7-9.3-13.7C431.6,88.9,427.7,99.2,440.9,102.6z    M424.7,94.2c0,0,7-4.1,4.7-13C429.3,81.2,420.5,83.7,424.7,94.2z M436,87c0,0,4.9-1,5.3-6.6C441.3,80.4,435.7,80,436,87z    M434.4,85.5c0,0,2.6-4.3-1.3-8.4C433.1,77.1,429,81,434.4,85.5z M425,101.3c0,0-2.2-5.6-9-4.8C416,96.6,416.8,103.3,425,101.3z    M436.1,106c0,0-0.3-7.5-8.5-9.5C427.6,96.5,425.7,104.8,436.1,106z M402.5,92.4c0,0,5.5,3.3,10.7-1.7   C413.1,90.8,408.1,85.6,402.5,92.4z M389.1,123.3c0,0,2.9-2.8,0.6-6.8C389.7,116.5,385.8,118.8,389.1,123.3z M387.3,123   c0,0-0.1-4-4.6-5.1C382.7,117.9,381.7,122.3,387.3,123z M399.3,123.8c0,0,0.7-6.3-5.9-9C393.4,114.8,390.7,121.5,399.3,123.8z    M300.4,161.5c0,0,5.5-7.2-0.6-15.4C299.8,146.1,291.6,152.4,300.4,161.5z M379.3,41.1c0,0,5.4,5.3,12.8,1.1   C392.1,42.2,387.7,34.8,379.3,41.1z M371.9,42.2c0,0,2.6,7.1,11.1,6.4C383,48.6,382.2,40.1,371.9,42.2z M382.8,58.3   c0,0,2.9,2.9,6.8,0.6C389.7,58.9,387.4,55,382.8,58.3z M383.1,56.5c0,0,4-0.1,5.1-4.6C388.3,51.9,383.8,50.9,383.1,56.5z M399,61.6   c0,0,1.9-9.6-8-14.5C391,47.1,386.2,57.1,399,61.6z M421.6,61.9c0,0-3.1-9.2-14.1-8.7C407.5,53.2,408.2,64.2,421.6,61.9z    M403.3,60.9c0,0,4.7-6.7-1.1-13.8C402.2,47.2,395.1,53.1,403.3,60.9z M398.2,50.4c0,0,4.7-6.7-1.1-13.8   C397.1,36.6,390.1,42.5,398.2,50.4z M410.7,49.7c0,0,4-3,2.1-8.2C412.8,41.4,407.5,43.5,410.7,49.7z M408.6,49c0,0,0.6-5-4.6-7.1   C403.9,41.8,401.8,47.1,408.6,49z M432.1,71.9c0,0-5.4-5.2-12.7-0.8C419.4,71,423.8,78.3,432.1,71.9z M406.6,67.3   c0,0-4.4-4.1-10.1-0.7C396.4,66.6,400,72.4,406.6,67.3z M378.5,52.5c0,0-1.1-4.4-6.2-4.5C372.3,48,372.2,53.1,378.5,52.5z    M382.1,70.7c0,0,4.5,6.1,12.4,3C394.5,73.8,391.4,65.9,382.1,70.7z M382.4,68.5c0,0,6.3,0.7,9-5.9   C391.4,62.6,384.7,59.9,382.4,68.5z M380,69.3c0,0,5.5-7.2-0.6-15.4C379.4,53.9,371.3,60.1,380,69.3z M382.8,257.6   c0,0-3.1-5-9.4-3.1C373.4,254.5,375.3,260.8,382.8,257.6z M381.8,260c0,0-5.7-1.1-8.7,4.8C373.1,264.8,379,267.7,381.8,260z    M350.5,261c0,0-8.2,4.8-5.5,15.1C345,276.2,355.4,273.4,350.5,261z M354.1,265.6c0,0-3.3,8.9,5.4,15.2   C359.5,280.8,365.7,272,354.1,265.6z M358.7,264.7c0,0,3.6,7.2,12.5,5.4C371.3,270.1,369.4,261.2,358.7,264.7z M356.3,262.8   c0,0,11.5,0.8,15.8-11.4C372.1,251.4,359.8,247.2,356.3,262.8z M426.7,177c0,0,3.1-9.4-6.2-15.6C420.5,161.4,414.4,170.8,426.7,177   z M426.7,254.3c0,0,3.1-9.4-6.2-15.6C420.5,238.7,414.4,248.1,426.7,254.3z M401.2,164c0,0,3.9,4.4,9.8,1.5   C411,165.5,408,159.6,401.2,164z M401.8,161.4c0,0,5.8,0.2,7.8-6.1C409.6,155.3,403.2,153.4,401.8,161.4z M457.7,171   c0,0,7.3-6.1,2.9-15.8C460.7,155.2,450.9,159.7,457.7,171z M453.1,169.7c0,0,1.8-9.3-7.9-14.1C445.2,155.6,440.6,165.3,453.1,169.7   L453.1,169.7z M450.7,171.4c0,0-4.8-6.5-13.3-3.2C437.5,168.1,440.8,176.6,450.7,171.4z M453.5,172.9c0,0-11.5,1.1-13.7,13.9   C439.7,186.8,452.6,188.9,453.5,172.9z M222.9,377.2c-8.4-0.3-14.3,0.9-19.6,6.5c-5.3,5.6-11.2,6.5-11.2,6.5s3.7,1.9,17.1-5   c13.4-6.9,23.2,9.4,43.7,1.6s14.9-15.6,18-21.9c3.1-6.2,6.2-5.3,10-11.5c3.7-6.2,4.4-10.9,10.3-18.4c5.9-7.5,0.6-29.9-5.3-39.9   c-5.9-10,6.2-43,7.5-53s1.9-18.4-5.6-29c-7.5-10.6-19.6-9-28.4-10c-8.7-0.9-14.6-4.7-18.7-6.9c-4.1-2.2-5.3-20.3-8.7-24.3   s-7.2-4.1-20.3-4.4c-13.1-0.3-19.3-2.2-24-10.3s7.9-12.4,8.4-22.1c0.3-5-6.6-10.9-9.4-14c-2.8-3.1-0.3-14.7-0.9-12.5   c-0.6,2.2-1.6,6.9-2.8,10.6c-1.2,3.7,5,8.7,6.9,13.7c1.9,5-4.4,8.7-6.6,11.9c-2.2,3.1-4.1,11.2,4.4,23.1   c8.4,11.9,33.7,3.7,39.3,8.7c5.6,5,5.6,17.5,5.6,17.5s-8.4-1.2-18.1-3.1s-23.7,10.3-26.5,10.9c-2.8,0.6-13.7-9-19.9-10.9   c-6.2-1.9-13.1,3.7-18.4,4.4c-5.3,0.6-10.6-4.1-12.2-7.8c-1.6-3.7-5.6-10-7.2-11.9c-1.6-1.9-4.5-4.1-9.8-5.1s-11.4-4.9-11.4-4.9   s7.3,7,14.5,10.4c5.8,2.7,9,12.3,13.4,20.4s12,3.2,19.8,2.3s8.1-3.4,16.2,1.2c8.1,4.7,10.6,5.6,10.6,5.6s-0.9,2.8-2.2,4.4   c-1.2,1.6-9,11.5-11.2,12.5c-2.2,0.9-7.2,6.2-7.2,9s-5,5-9,4.7c-4.1-0.3-5.9,3.1-6.6,6.2c-0.6,3.1-7.5,5-7.5,5s-2.5,0.3,1.2,0.6   s9-2.8,9.4-6.6c0.3-3.7,7.8-0.9,12.5-3.1c4.7-2.2,3.7-5,6.9-5s7.2,8.3,7.8,12.3c0.3,2.2-2.7,4.5-6.1,6.7c-3.4,2.2-1.3,6.9-1.3,6.9   c-0.1-5,5.6-5.9,8.4-7.8s4.1-9-0.9-14.6c-5-5.6,2.8-12.5,5-17.1c2.2-4.7,19.3-16.8,24.3-19.3c5-2.5,18.7-0.6,21.8,0.6   c3.1,1.2,15.9,8.1,19.6,8.7s15.9,0.6,15.9,0.6s-10.6,4.4-11.9,6.9s-1.9,6.9-1.2,12.2s-1.2,11.9-2.5,13.4c-1.2,1.6-8.7,1.6-12.2,6.2   c-3.4,4.7-0.6,10.9-0.6,10.9v-5.3c0-5.3,4.1-6.9,10-8.7c5.9-1.9,6.9-3.1,7.5-10.6c0.6-7.5,1.9-16.5,7.5-19.6   c5.6-3.1,15.3-4.7,22.5,9.7c7.2,14.3-4.4,31.8-7.5,41.5c-3.1,9.7,2.2,20.9,3.4,28.7s2.2,9.4-1.2,19c-3.4,9.7-5,13.7-3.4,24.3   s-4,11.2-10.9,17.8c-6.9,6.5-7.2,16.8-7.2,16.8C254.7,381.5,231.3,377.5,222.9,377.2L222.9,377.2z M288,289.8   c0.5,4.8,3.8,7.5,7.8,17.5c4,10,3.3,20.3,3.3,20.3l3.3-6.5c3.3-6.5-1.2-21.8-3.8-32.6c-2.5-10.8-2.4-16.4,1.8-27.1   c5.8-14.9-4-32.6-4-32.6s0.4,10.2,0.2,17.7s-4.2,15.1-4.2,15.1C286.5,276,287.5,285,288,289.8L288,289.8z M395.1,396.3   c6.3,3.5,30.8-1.2,20-2c-0.5,0-1-0.1-1.5-0.1c-9.7-0.5-14.5,0.9-23.8-7.7c-9.8-9-25.6-9.8-44.6-12c-19-2.3-25.6-13-23.6-22.3   s-7.5-21.8-6-30.1c1.5-8.3-2-14.5-4.3-19.5c-2.3-5-3.3-15.5-3-27.6s7.3-25.8,7.8-34.3s-2.5-12-7-28.8   c-4.5-16.8,10.3-21.1,16.3-22.1c6-1,16.8-10.8,20.8-13.3c4-2.5,11.3-19.3,12.8-22.1c1.5-2.8,2.8-16.3,0.8-23.1   c-2-6.8,10.3,3,11,2.8c0.8-0.2,11,3,17.8,4.8s13.8-2,21.8-6.8c8-4.8,10.5-3.3,10.5-3.3s1.2,1.2-0.5-1c-1.8-2.3-7.8-1.8-14,1.5   c-6.3,3.3-13.5,5.8-17.8,3.8s-14.8-5.8-15.8-5.8s-9.8-4.3-3.5-10.3c6.3-6,8.3-21.8,8.3-21.8s1.8-5.8,6-8.3c4.3-2.5,10.8,1,16.5,0.8   s4.3-5.5,5-8s1.5-3.5,5.8-4.8s5.5-5.8,5.5-5.8c-0.8,2.5-8,3.5-11.5,4.5s-1.8,6-5.5,8.3c-3.8,2.2-10.3-0.8-15-0.5s-10.3,4-10.3,4   s-2.8-5.5-6-8.8c-3.3-3.3,3.8-4.5,4.8-7.3c1-2.8-1.5-6-1.5-6c2.8,2.8-2.2,7-6.8,9.8c-4.5,2.8-1,6.8,4.3,11s1.2,16.3,1.2,22.3   s-10.3,8.3-13.8,12c-3.5,3.8-7.5,7.5-5.3,16.3c2.3,8.8-4,21.3-11.3,31.1c-7.3,9.8-12,10.5-23.1,12.5s-10.3,3-15,2.5   c-4.8-0.5-7.5-23.3-11.5-39.9s13.3-21.5,16.3-23.1c3-1.5,6.3-3,8.3,1.2c2,4.3,5.3,7.5,9,8.8c3.8,1.2,6.8,5,6.5,3.8s0.2-5.8-5.5-6.8   c-5.8-1-5.3-7.5-8.3-11.5c-3-4-8.8,1-10.8,0.5s-0.2-3.3,2-11.8c2.2-8.5-1.2-11.5-1.2-11.5s0.2,12.3-3.3,20s-9.3,6.3-17.8,12.8   c-8.5,6.5-5.3,11.5-3,18.8c2.3,7.3,1.5,12.3-4.5,10.8c-6-1.5-10.3-17.5-12.3-23.6c-2-6-4.8-18.3-4.8-18.3s-1.2-5-0.5-9   c0.8-4,5-4.8,6-10c1-5.3-1.5-7-1.5-7c1.8,3,1.5,7-3.8,10.8c-5.3,3.8-4.3,10.5-4.3,10.5s0-3.8-7.8-10c-7.8-6.3-19.3-5.5-23.6-6.5   c-4.3-1-2-7.3-2-7.3c-4.3,8-3,11.8,12.5,13.3s17.8,12.5,20.3,19.6c2.5,7,1.5,13.3,1.5,13.3c-9,1-11.3,9.5-13.3,9.8s-5.5-7.3-6.8-12   s-13-5.8-19.8-7.3c-6.8-1.5-7-6.8-7-6.8c-3.8,2-1.5,7.3,5,9.3c6.5,2,9.3,2.8,16.8,6.3s3.3,8.3,9,13c5.8,4.8,12.3-6,16.3-7.5   c4-1.5,4.8,8.3,7.8,19.1c3,10.8,13.5,8.8,19,13.3s9.8,27.1,11.3,40.4c1.5,13.3,9.8,33.6,10.3,41.4s-6.5,26.1-7.3,31.6   c-0.8,5.5,7.8,28.6,8.3,34.1s-3,12.3-3.3,18.5s4.8,10.8,6.8,18.3c2,7.5-1.8,11.5,0.2,20s11.8,18.5,28.6,13.3s35.6,6.5,35.6,6.5   C382.5,394.5,388.8,392.8,395.1,396.3L395.1,396.3z M311.4,284.8c-1,9.5,3.3,17.5,8.3,27.3c5,9.8-0.8,14,1,17.8s4.3,11.3,4.3,21.8   s1.5,14.3,13,18.5s26.6-1.5,43.9-0.8c17.3,0.8,24.6,8.8,30.1,12s26.3,0,33.3-1.5c7-1.5,22.3-2,22.3-2s6.5,1,1-0.8   c-5.5-1.8-27.1,2.3-40.9,2.3s-17-2.3-26.8-9.5c-9.8-7.3-23.8-3.5-36.1-4.3s-12.8-2.5-21-4.5s-13.8-25.3-14-33.6s-3.5-15-5.5-24.6   s9-23.6,11.3-32.6c2.2-9,5.5-3.5,16.3-13c10.8-9.5,13.8-4.5,26.3-8.3c12.5-3.8,12.3-7.5,17.3-17c5-9.5,19.5-7.3,19.5-7.3   s0.8,3.5,0.5,5s1.5,3.3,2.8,7.8c1.2,4.5,10.3,1.8,16,0c5.8-1.8,7.8,3.8,7.8,3.8s-0.2-3.8-3.3-7.3c-3-3.5-5.8-0.5-13,0   s-2-3.3-3.3-5.8c-1.2-2.5-2-9-1-12c1-3,8.8-7,13-10s14.3-7.5,18.5-9.5s8.3-7,10.8-12.8s6.8-8,5-7.8c-1.8,0.2-7.8,1.8-9.3,7   c-1.5,5.3-7.5,10-13.8,11.8c-6.3,1.8-7.5,3-7.5,3s-1.8-3.3-5.8-6.5c-4-3.3-4.8-1.8-2.8-4c2-2.3-0.2-8-0.2-8s-2,6.8-3.8,9   c-1.8,2.3,7.8,8,8.5,10.5s2.8,3.3-9,6.8c-11.8,3.5-9.8,9.5-15.5,11c-5.8,1.5-9,1-16.5,4.3c-7.5,3.3-12.8,16.8-21.3,20.8   c-8.5,4-26.1,5.8-35.1,7.3c-9,1.5-17.7,21.1-17.7,21.1s-0.5-2.3,1.2-9.8c1.8-7.5,1.2-20.6,1.2-20.6s-1.2,8.5-6.5,17.5   C309.9,265.9,311.4,284.8,311.4,284.8 M280.7,378.9c4.2-1.3,8,0.2,9.8,2.3c1.8,2.2,1.8,5.7,1.8,5.7c3-5.7-3.2-13.7-5-17.3   c-1.8-3.7,2.7-13.8,3.8-16.5c1.2-2.7,0.3-4.5,0.3-6.8s6.2-14.5,6.2-14.5s-1,2.2-3.7,5.2c-2.7,3-5.7,6.3-5.7,10.8   s-6.5,11.3-9.8,13.8s-6.3,5.8-6.2,9.7c0.2,3.8-3,10.8-3,10.8C272.5,380.9,276.5,380.2,280.7,378.9L280.7,378.9z M299.1,334.3   c0,0-4,7.2-4.3,10.3c-0.3,3.2,0.7,8.8-1.8,13.8s-3.2,7.8-1,11.7c2.2,3.8,3.3,9.8,3.3,9.8s8.3-1.3,13.7,0.3c5.3,1.7,7.3,1.7,7.3,1.7   s-7.5-2.8-8.3-6.8s0.5-13.7,0.3-17.7s-3-14.3-4.2-15.3C303,341.1,301.3,336.9,299.1,334.3z"
   style="fill:#1e3a8a;fill-opacity:1" />
	<g
   id="g2"
   style="fill:#1e3a8a;fill-opacity:1">
		<defs
   id="defs1">
			<path
   id="SVGID_1_"
   d="M278.8,224.7c-11.1,0.5-14.2-8.9-14.2-8.9C278.2,213.5,278.8,224.7,278.8,224.7z M268,225.1     c0,0-0.5,9.9,10.1,13.4C278.1,238.5,281.5,227.8,268,225.1z M257.6,235.5c0,0-0.5,9.9,10.1,13.4     C267.7,248.9,271.1,238.3,257.6,235.5z M254.1,240.9c0,0-4.9,8.6,3,16.5C257.1,257.4,264.9,249.4,254.1,240.9z M260.5,218.9     c0,0-4.6,8.8,3.5,16.4C264.1,235.3,271.6,227,260.5,218.9z M391.9,241c0,0,3.1,9.4,14.2,8.9C406.1,249.8,405.5,238.7,391.9,241z      M395.3,250.2c0,0-0.5,9.9,10.1,13.4C405.4,263.6,408.8,253,395.3,250.2z M462.9,188c0,0,3.1,9.4,14.2,8.9     C477.1,196.8,476.4,185.7,462.9,188z M466.3,197.3c0,0-0.5,9.9,10.1,13.4C476.4,210.6,479.8,200,466.3,197.3z M402.3,230.5     c0,0,3.1,9.4,14.2,8.9C416.6,239.4,415.9,228.2,402.3,230.5z M405.8,239.8c0,0-0.5,9.9,10.1,13.4     C415.8,253.2,419.2,242.6,405.8,239.8z M387.8,244c0,0-4.6,8.8,3.5,16.4C391.4,260.4,398.9,252.2,387.8,244z M450.8,197.4     c0,0,3.1,9.4,14.2,8.9C465,206.3,464.4,195.1,450.8,197.4z M454.2,206.7c0,0-0.5,9.9,10.1,13.4     C464.3,220.1,467.7,209.4,454.2,206.7z M446.7,200.5c0,0-4.6,8.8,3.5,16.4C450.3,216.9,457.8,208.6,446.7,200.5z M439.9,207.3     c0,0-5.8,11.1,4.5,20.7C444.4,228,453.9,217.6,439.9,207.3z M408.5,132.7c0,0,3.1,9.4,14.2,8.9     C422.7,141.5,422,130.4,408.5,132.7z M411.9,141.9c0,0-0.5,9.9,10.1,13.4C422,155.3,425.4,144.7,411.9,141.9z M404.4,135.8     c0,0-4.6,8.8,3.5,16.4C407.9,152.1,415.5,143.9,404.4,135.8z M385.6,89.3c0,0,4.6,8.8,15.5,6.5C401,95.8,398.6,84.9,385.6,89.3z      M390.4,97.9c0,0,1.1,9.8,12.1,11.6C402.5,109.6,404.2,98.5,390.4,97.9z M382,93c0,0-3.1,9.4,6.1,15.6     C388.1,108.6,394.3,99.3,382,93z M292.6,130.6c0,0,6.9,3,12.3-3.6C305,127,298.3,121.7,292.6,130.6z M299.6,133.4     c0,0,5.4,5.3,12.8,1.1C312.4,134.5,308.1,127.1,299.6,133.4z M292.3,134.5c0,0,2.6,7.1,11.1,6.4     C303.4,140.8,302.6,132.3,292.3,134.5z M299.6,96.3c0,0-1.4-7.4-9.9-8.2C289.7,88.1,289,96.6,299.6,96.3z M297.9,88.9     c0,0,1.4-7.4-6.3-11.2C291.7,77.7,288,85.4,297.9,88.9z M303,94.4c0,0,4.4-6.2-1-12.8C302,81.6,295.4,87.1,303,94.4z M312.3,89.1     c0,0,6.9,3,12.3-3.6C324.6,85.6,317.9,80.2,312.3,89.1z M319.3,91.9c0,0,5.4,5.3,12.8,1.1C332.1,93.1,327.8,85.7,319.3,91.9z      M311.9,93c0,0,2.6,7.1,11.1,6.4C323.1,99.4,322.2,90.9,311.9,93z M321.5,112.3c0,0,7.5-1,8.7-9.4     C330.2,102.9,321.7,101.7,321.5,112.3z M328.9,109.8c0,0,7.4,1.8,11.5-5.7C340.5,104.2,333,100.1,328.9,109.8z M323.2,115.8     c0,0,5.9,4.7,12.8-0.3C336,115.5,330.9,108.6,323.2,115.8z M346,143.9c0,0-2.2-6.3-9.8-5.8C336.2,138.1,336.8,145.7,346,143.9z      M343.3,136.9c0,0,0.2-7.6-7.9-10.1C335.3,126.8,332.9,135,343.3,136.9z M349.1,141.5c0,0,3.4-6.8-3-12.5     C346.1,129,340.5,135.4,349.1,141.5z M239,95.8c0,0-4.1,6.4,1.6,12.8C240.6,108.6,246.9,102.8,239,95.8z M225.1,91.6     c0,0-6.1,4.4-3.2,12.4C222,104.1,230,101,225.1,91.6z M225.2,91.8c0,0-7.1-2.6-12.1,4.3C213.1,96.1,220.1,101,225.2,91.8z      M188.7,115c0,0,6.9-3.1,5.7-11.5C194.4,103.4,185.9,104.8,188.7,115z M195.1,109.7c0,0,7.6,0,9.9-8.2     C205,101.5,196.8,99.3,195.1,109.7z M184.5,108.8c0,0-0.3-7.6-8.6-9.5C175.9,99.2,174.1,107.6,184.5,108.8z M188.7,114.8     c0,0,6.4,4,12.7-1.7C201.4,113.1,195.6,106.8,188.7,114.8z M188,131.2c0,0-7.4-1.6-11.4,5.9C176.6,137.1,184.2,141,188,131.2z      M179.7,131.5c0,0-6.1-4.5-12.8,0.7C166.9,132.3,172.2,139,179.7,131.5L179.7,131.5z M187.9,131.3c0,0-2.8-7-11.3-6.2     C176.6,125.1,177.6,133.6,187.9,131.3z M191.9,118.3c0,0,1.5,7.4,10,8C201.9,126.4,202.5,117.8,191.9,118.3z M212.2,106.7     c0,0,1.5,7.4,10,8C222.2,114.7,222.7,106.2,212.2,106.7z M235.2,94.9c0,0-7.4,1.5-8.1,10C227.1,104.9,235.7,105.4,235.2,94.9z      M240.3,249.8c0,0-0.3,9.9,10.3,13.2C250.6,263,253.8,252.3,240.3,249.8z M236,258.1c0,0-7,7-1.5,16.7     C234.5,274.8,244.1,269.1,236,258.1L236,258.1z M232.1,256.7c0,0-9.9-0.6-13.6,9.9C218.5,266.6,229.1,270.1,232.1,256.7z      M234.4,252.8c0,0-6.2-7.7-16.4-3.2C218,249.6,222.5,259.8,234.4,252.8z M237,241.8c0,0-6.2-7.7-16.4-3.2     C220.6,238.6,225.1,248.7,237,241.8z M246.1,234.8c0,0-4.7-5.7-12.3-2.4C233.8,232.3,237.2,240,246.1,234.8z M249.9,231.1     c0,0-1.4-10.2-12.9-11.8C237.1,219.3,235.6,230.8,249.9,231.1z M249.6,223.4c0,0,3.3-9.7-6.2-16.3     C243.3,207.1,236.9,216.7,249.6,223.4z M235.6,215.2c0,0,2.6-7.5-4.8-12.5C230.8,202.7,225.9,210.1,235.6,215.2z M234.7,225.6     c0,0,2.6-7.5-4.8-12.5C229.9,213.1,225,220.5,234.7,225.6z M223.4,219.3c0,0,7.1-6.5,2.2-16.2C225.6,203.1,216,208.1,223.4,219.3     z M209.6,208.9c0,0,9.5,1.6,14.1-8.2C223.7,200.7,213.9,196.2,209.6,208.9z M198.2,205.9c0,0-5.1,8.1,2.1,16.2     C200.3,222.1,208.3,214.7,198.2,205.9z M186.2,215.8c0,0-0.6,9.6,9.6,13.2C195.8,229,199.2,218.7,186.2,215.8z M178.6,227.7     c0,0,5.1,8.2,15.5,5.1C194.1,232.8,190.9,222.4,178.6,227.7z M183.2,240.5c0,0,7.1,6.5,16.3,0.8     C199.5,241.3,193.7,232.1,183.2,240.5z M183,245.1c0,0,1.6,9.5,12.3,10.7C195.3,255.8,196.4,245,183,245.1z M180.3,249     c0,0-4.2,7.4,2.5,14.3C182.8,263.3,189.6,256.4,180.3,249z M171.1,256.8c0,0-4.2,7.4,2.5,14.3     C173.7,271.1,180.5,264.2,171.1,256.8z M167.6,263c0,0-5.7,2.6-4.6,9.7C163,272.7,170,271.5,167.6,263z M169.6,254.1     c0,0-8.5,0.1-11,9.4C158.6,263.5,168,265.8,169.6,254.1L169.6,254.1z M174.6,244.6c0,0-2.3-8.2-11.9-8.2     C162.7,236.4,162.8,246,174.6,244.6z M164.4,251c0,0,4.7-7.1-1.6-14.4C162.9,236.6,155.6,243,164.4,251z M147,260     c0,0,4.7-7.1-1.6-14.4C145.5,245.6,138.2,252,147,260z M134.8,259.4c0,0,7.7-3.6,6.1-13.1C140.9,246.3,131.4,248,134.8,259.4z      M124.9,251.1c0,0,8.4,1.3,12.4-7.5C137.3,243.7,128.5,239.8,124.9,251.1z M129.7,236.5c0,0,4.3,7.4,13.6,5     C143.3,241.6,140.8,232.2,129.7,236.5z M141,225.8c0,0-3.9,7.6,3.1,14.2C144.1,240,150.6,232.8,141,225.8z M158.4,217.8     c0,0-6.8,5.1-3.3,14.1C155.1,231.9,164.1,228.3,158.4,217.8z M175.1,198.5c0,0-6.8,5.1-3.3,14.1     C171.8,212.7,180.7,209,175.1,198.5z M171.2,197.1c0,0-8.5,0.9-10,10.4C161.2,207.5,170.7,209,171.2,197.1z M146.8,202     c0,0-8.5,0.9-10,10.4C136.8,212.4,146.3,213.9,146.8,202z M146.4,202.2c0,0-7.9-3.2-13.8,4.4     C132.6,206.6,140.4,212.4,146.4,202.2z M137.3,196.1c0,0-7.9-3.2-13.8,4.4C123.5,200.6,131.2,206.4,137.3,196.1z M130.8,183.5     c0,0-7.3,0.9-8.5,9.1C122.2,192.6,130.5,193.7,130.8,183.5z M129.8,181.9c0,0-7.3-6.2-16.2-0.2     C113.6,181.7,119.7,190.6,129.8,181.9z M117.4,171.1c0,0-9.5-0.9-13.4,9.1C104,180.2,114.1,184,117.4,171.1L117.4,171.1z      M128.8,151.3c0,0-8.8,3.7-7.4,14.4C121.5,165.7,132.1,164.1,128.8,151.3z M108.8,151.3c0,0-0.3,9.5,9.9,12.8     C118.7,164.1,121.8,153.8,108.8,151.3z M98.4,168c0,0,6.9,6.6,16.1,1.1C114.5,169.1,109,159.9,98.4,168z M96,160     c0,0,5.3,5.2,12.6,1C108.6,161.1,104.3,153.8,96,160z M127.7,167.8c0,0,7.4,0.1,9.8-7.9C137.4,159.9,129.4,157.6,127.7,167.8z      M136.1,176.3c0,0,7.4,0.1,9.8-7.9C145.9,168.3,137.8,166.1,136.1,176.3z M139.4,180.9c0,0,7.7,4.7,15.1-2.3     C154.5,178.6,147.4,171.3,139.4,180.9z M162.9,185.7c0,0,8-4.1,6-14C168.9,171.7,159,173.8,162.9,185.7z M191.7,194.4     c0,0-2.5-8.6-12.6-8.6C179,185.8,179.2,196,191.7,194.4L191.7,194.4z M162.9,185.6c0,0,8.9,1.3,13-8     C175.9,177.6,166.5,173.6,162.9,185.6z M210.3,185.1c0,0-6.4-6.3-15.2-1.2C195.1,183.9,200.3,192.7,210.3,185.1z M210.3,185.1     c0,0-1.6-8.8-11.8-9.7C198.5,175.4,197.7,185.5,210.3,185.1z M194.9,192c0,0,1.1-7.4-6.7-10.8C188.2,181.1,184.9,188.9,194.9,192     z M217.8,187.4c0,0,1.1-7.4-6.7-10.8C211.1,176.6,207.8,184.4,217.8,187.4z M254.8,195.2c0,0,1.7-8.8-7.4-13.4     C247.4,181.8,243,191,254.8,195.2z M275.6,195.4c0,0-2.9-8.5-13-8C262.6,187.4,263.3,197.6,275.6,195.4z M275.6,195.4     c0,0,2.5-8.6-6.1-14C269.5,181.4,264.2,190.1,275.6,195.4z M258.8,194.5c0,0,4.3-6.1-1-12.7C257.8,181.8,251.3,187.3,258.8,194.5     z M281.2,200.8c0,0,3.9-5.5-0.9-11.4C280.3,189.4,274.4,194.3,281.2,200.8z M288.6,204.7c0,0,5.2-7.4-1.2-15.3     C287.4,189.4,279.5,196,288.6,204.7z M254.1,184.8c0,0,4.3-6.1-1-12.7C253.1,172.1,246.6,177.6,254.1,184.8z M231.6,84.6     c0,0,2.9-8.5-5.6-14.2C226.1,70.4,220.5,78.9,231.6,84.6z M252.2,87.5c0,0-1.7-8.8-11.9-9.6C240.4,77.9,239.7,88.1,252.2,87.5z      M252.2,87.5c0,0,3.6-8.2-4.2-14.7C248,72.8,241.6,80.7,252.2,87.5z M235.7,84.4c0,0,5.1-5.5,0.6-12.7     C236.3,71.7,229.1,76.3,235.7,84.4z M257.1,93.6c0,0,5.1-5.5,0.6-12.7C257.7,80.9,250.6,85.5,257.1,93.6z M217.8,162     c0,0,1.1-7.4-6.7-10.8C211.1,151.2,207.8,159,217.8,162z M216,151.6c0,0,0.9-5.9-5.3-8.7C210.6,142.9,208,149.1,216,151.6z      M225.4,162.3c0,0,7.3-1.8,7.5-10.3C232.9,152,224.5,151.9,225.4,162.3z M237.3,171.3c0,0,0.4,7.5,8.7,9.3     C246,180.6,247.8,172.3,237.3,171.3z M240.4,169c0,0,5.1,5.5,12.6,1.6C253,170.6,249.1,163.1,240.4,169z M241.1,165.7     c0,0,7.5,0,9.8-8.1C250.9,157.5,242.7,155.3,241.1,165.7z M251.6,164.9c0,0,3.1,3.4,7.8,1C259.3,165.9,256.9,161.2,251.6,164.9z      M252,162.8c0,0,4.6,0,6-5C258,157.8,252.9,156.5,252,162.8z M265.6,184.2c0,0,3.7-2.7,1.9-7.6     C267.5,176.6,262.6,178.5,265.6,184.2z M263.6,183.5c0,0,0.5-4.6-4.3-6.6C259.4,177,257.4,181.8,263.6,183.5z M269.1,133     c0,0,5.6-1.6,5.5-8.2C274.6,124.7,268,124.9,269.1,133z M275.1,145.1c0,0,4.1-4.2,0.7-9.9C275.9,135.2,270.2,138.6,275.1,145.1z      M275.1,145c0,0,5.7-1.1,6.3-7.7C281.4,137.4,274.8,136.9,275.1,145z M270.6,135.1c0,0,4.8,0.7,7-4.4     C277.7,130.7,272.6,128.6,270.6,135.1z M276.1,123.3c0,0,4.8,0.7,7-4.4C283.1,119,278,116.8,276.1,123.3z M322.2,173.1     c0,0,3.3-2.4,1.7-6.7C323.9,166.5,319.6,168.1,322.2,173.1z M320.5,172.6c0,0,0.5-4-3.7-5.8C316.7,166.8,315,171.1,320.5,172.6z      M303.2,150.6c0,0,2.9,2.9,6.8,0.6C310.1,151.2,307.8,147.3,303.2,150.6z M303.5,148.8c0,0,4-0.1,5.1-4.6     C308.7,144.2,304.2,143.2,303.5,148.8z M304.8,118.2c0,0-2.3,3.3,0.7,6.8C305.5,125.1,308.9,122.1,304.8,118.2z M306.6,118.2     c0,0,0.9,3.9,5.5,4.2C312.1,122.4,312.3,117.8,306.6,118.2z M313,106.6c0,0,3.9-0.9,4.1-5.5C317.1,101.2,312.6,101,313,106.6z      M311.6,106.7c0,0,2-3.5-1.2-6.8C310.4,99.9,307.2,103.2,311.6,106.7z M319.4,153.9c0,0,1.9-9.6-8-14.5     C311.4,139.4,306.6,149.3,319.4,153.9z M342,154.2c0,0-3.1-9.2-14.1-8.7C327.9,145.5,328.6,156.5,342,154.2z M323.7,153.2     c0,0,4.7-6.6-1.1-13.8C322.6,139.4,315.5,145.3,323.7,153.2z M318.6,142.7c0,0,4.7-6.6-1.1-13.8     C317.5,128.9,310.5,134.8,318.6,142.7z M331.1,142c0,0,4-2.9,2.1-8.2C333.2,133.7,327.9,135.8,331.1,142z M328.9,141.3     c0,0,0.6-5-4.6-7.1C324.3,134.1,322.2,139.4,328.9,141.3z M360.7,73.1c0,0-6-4.8-13,0.3C347.8,73.4,352.9,80.3,360.7,73.1z      M369.1,57.5c0,0-7.5-1.2-11.1,6.7C357.9,64.2,365.8,67.7,369.1,57.5z M361.8,69.8c0,0-2.9-5.7-10-4.2     C351.8,65.6,353.4,72.7,361.8,69.8z M352.6,69.6c0,0-2.9-5.7-10-4.2C342.7,65.4,344.2,72.4,352.6,69.6z M356.7,60.6     c0,0-0.6-3.9-5-4.4C351.7,56.2,351.2,60.6,356.7,60.6z M355.4,61.9c0,0-3.2-2.2-6.6,0.6C348.8,62.5,351.7,65.9,355.4,61.9z      M347.8,122.5c0,0-5.1-5.2-12.3-1.2C335.5,121.3,339.6,128.5,347.8,122.5z M357.5,108.8c0,0-7-2-11.3,5     C346.2,113.8,353.3,118,357.5,108.8z M349.2,119.6c0,0-2.1-5.7-8.9-5.1C340.2,114.5,340.9,121.3,349.2,119.6z M345.4,110.3     c0,0-0.1-3.7-4.2-4.7C341.2,105.6,340.2,109.7,345.4,110.3z M344,111.3c0,0-2.8-2.5-6.3-0.2C337.7,111.2,340.1,114.7,344,111.3z      M283.2,187.9c0,0,3.7-2.7,1.9-7.6C285.1,180.3,280.3,182.1,283.2,187.9z M281.3,187.2c0,0,0.5-4.6-4.3-6.6     C277,180.6,275.1,185.5,281.3,187.2z M238.2,167.7c0,0,4.7-7.8-2.4-15.2C235.8,152.5,228.5,159.7,238.2,167.7z M178.1,146.5     c0,0-1.6-7.3-10.1-7.8C168,138.7,167.6,147.2,178.1,146.5z M175.4,149.3c0,0-5.9-4.6-12.7,0.4     C162.7,149.7,167.8,156.5,175.4,149.3z M156,186.9c0,0-5.9-4.6-12.7,0.4C143.3,187.3,148.4,194.1,156,186.9z M179.1,150     c0,0-7.4,1.2-8.4,9.6C170.7,159.5,179.1,160.4,179.1,150z M262.9,157.7c0,0,4.7-7.8-2.4-15.2     C260.5,142.4,253.1,149.6,262.9,157.7z M252.1,151.8c0,0,7.9-4.4,5.6-14.4C257.7,137.4,247.7,139.9,252.1,151.8z M242.1,157.2     c0,0,7.9-4.4,5.6-14.4C247.7,142.8,237.7,145.3,242.1,157.2z M233.5,149.5c0,0,7.3,0.3,9.9-7.6     C243.4,141.8,235.4,139.4,233.5,149.5z M229.5,144.3c0,0,7.8-4,5.8-13.7C235.4,130.6,225.7,132.7,229.5,144.3z M224.9,141.6     c0,0,8.7-1,10.2-10.8C235.2,130.7,225.3,129.3,224.9,141.6z M218.9,135.5c0,0,8.7-1,10.2-10.8     C229.1,124.7,219.3,123.3,218.9,135.5z M213.1,134.4c0,0,6.2-6.2,1.3-14.8C214.4,119.5,205.8,124.6,213.1,134.4z M203.8,120.6     c0,0,4.7,2.5,8.8-1.9C212.6,118.6,208.2,114.6,203.8,120.6z M195.8,150.9c0,0,8.4,1.2,12.2-7.6     C208,143.3,199.2,139.6,195.8,150.9z M191.9,155.6c0,0,5.7,6.2,14.2,1.9C206.2,157.5,201.8,149,191.9,155.6z M189.6,151.7     c0,0,5.3-0.6,6.3-6.6C195.9,145.1,189.9,144.2,189.6,151.7z M176,117.6c0,0-6.7-5.2-14.4,0.5C161.6,118,167.4,125.7,176,117.6z      M181.7,115.4c0,0-1.8-8.3-11.4-8.8C170.3,106.6,169.9,116.2,181.7,115.4z M181.7,119.9c0,0-4.9-2.1-8.7,2.6     C173,122.5,177.7,126.3,181.7,119.9z M201.3,141.9c0,0,6.4-5.9,1.9-14.5C203.2,127.4,194.6,132,201.3,141.9z M186.8,102.8     c0,0,6.4-5.8,1.9-14.5C188.7,88.2,180.1,92.8,186.8,102.8z M223.3,161.1c0,0,4.8-8.9-3.5-16.8C219.8,144.3,212,152.6,223.3,161.1     z M98.7,148.3c0,0,0.4,7.4,8.6,9.2C107.3,157.5,109,149.3,98.7,148.3L98.7,148.3z M147.5,202.6c0,0-1.8,4.6,2.6,7.9     C150.2,210.5,153.4,206,147.5,202.6z M148.9,201.7c0,0,3.6,5.5,10.7,3.3C159.6,205,157.3,197.9,148.9,201.7z M129.1,228.9     c0,0,1.8,5.6,8.4,5.4C137.5,234.2,137.2,227.6,129.1,228.9z M187.8,164.7c0,0-6,4.5-2.9,12.4     C184.9,177.1,192.7,173.9,187.8,164.7z M181.7,173.4c0,0-4.8,3.6-2.4,9.9C179.4,183.2,185.7,180.7,181.7,173.4z M165.6,169.9     c0,0-7.1-2.3-11.8,4.7C153.8,174.7,160.9,179.3,165.6,169.9L165.6,169.9z M155,169.9c0,0-5.7-1.9-9.4,3.8     C145.6,173.7,151.3,177.4,155,169.9z M182.8,158.6c0,0-7.1-2.4-11.9,4.6C170.9,163.2,178,167.9,182.8,158.6z M183.3,161.4     c0,0-9.7,2.9-9.4,14.3C173.9,175.8,185.3,175.4,183.3,161.4z M252.8,121.6c0,0-6.6-3.6-12.5,2.6     C240.3,124.2,246.5,130,252.8,121.6z M235.9,113.2c0,0-5.3-2.8-10,2.1C225.9,115.3,230.9,119.9,235.9,113.2z M256.2,114.5     c0,0-0.8-7.5-9.2-8.8C247,105.7,245.7,114.1,256.2,114.5L256.2,114.5z M253.8,116.1c0,0-6.8-7.5-17-2.5     C236.9,113.6,242,123.8,253.8,116.1z M336.5,164.1c0,0-5.4-5.2-12.7-0.8C323.8,163.3,328.3,170.5,336.5,164.1z M327,159.6     c0,0-4.4-4.1-10.1-0.7C316.8,158.9,320.3,164.7,327,159.6z M315.1,174c0,0-1.5-5.8-8.2-6C306.9,168,306.8,174.8,315.1,174z      M298.9,144.8c0,0-1.1-4.4-6.2-4.5C292.7,140.3,292.6,145.4,298.9,144.8z M339,159.2c0,0-3.4-6.7-11.7-5.1     C327.3,154.1,329,162.4,339,159.2z M324.4,58.1c0,0-3.8,6.5,2.1,12.7C326.5,70.8,332.6,64.7,324.4,58.1z M346.3,63.9     c0,0,0.2-7.6-7.9-10.1C338.4,53.8,335.9,62,346.3,63.9z M313.7,79c0,0,1.9-9.6-8-14.5C305.7,64.5,300.9,74.4,313.7,79z      M306.4,78.7c0,0-3.1-9.2-14.1-8.7C292.3,70,293.1,81,306.4,78.7z M318.9,80.9c0,0,4.7-6.7-1.1-13.8     C317.8,67.1,310.7,73,318.9,80.9z M335.4,71.9c0,0,4.7-6.7-1.1-13.8C334.2,58.2,327.2,64.1,335.4,71.9z M329.1,78.1     c0,0,4-2.9,2.1-8.2C331.1,69.8,325.9,71.9,329.1,78.1z M326.9,77.4c0,0,0.6-5-4.6-7.1C322.3,70.2,320.2,75.5,326.9,77.4z      M315.3,82.7c0,0-4.4-4.1-10.1-0.7C305.1,82.1,308.7,87.8,315.3,82.7z M332.7,84.4c0,0-3.4-6.7-11.7-5.1     C321.1,79.3,322.8,87.6,332.7,84.4z M334.1,99.4c0,0,10.6-1.3,12.3-13.2C346.4,86.3,334.5,84.6,334.1,99.4z M339.1,80.1     c0,0,6.1,6.5,14.9,1.8C354,81.9,349.3,73.1,339.1,80.1z M338.6,78.7c0,0,5.4-3.8,2.9-10.7C341.5,68,334.5,70.5,338.6,78.7z      M332.6,90.5c0,0,4.7-1.2,4.7-6.7C337.4,83.8,331.9,83.8,332.6,90.5z M366.9,95.2c0,0-8.5-1.6-12.9,7.1     C354,102.3,362.8,106.5,366.9,95.2z M354.7,96.7c0,0-6.8-1.3-10.3,5.7C344.4,102.4,351.5,105.8,354.7,96.7z M368.1,86.1     c0,0-3.5-7.9-13.2-6.6C355,79.5,356.4,89.2,368.1,86.1z M366.1,88.8c0,0-10-6-19.6,3.1C346.5,91.8,355.7,101.3,366.1,88.8z      M285.9,117.9c0,0,0-8.7-9.4-11.3C276.5,106.6,274,116.1,285.9,117.9z M280.1,105.4c0,0,0-6.9-7.5-9     C272.5,96.4,270.5,104,280.1,105.4z M294.2,113.7c0,0,7.1-4.9,4-14.2C298.2,99.6,288.9,102.9,294.2,113.7z M290.4,114.3     c0,0,4-11-6.7-18.7C283.7,95.7,276.1,106.5,290.4,114.3z M372.6,138.2c0,0,4.1,7.3,13.3,5.1C385.9,143.3,383.6,134.1,372.6,138.2     z M381.3,146.2c0,0,3.3,5.9,10.6,4.1C391.9,150.3,390.1,142.9,381.3,146.2z M365.7,145.9c0,0-3.7,7.5,3.3,13.8     C369.1,159.7,375.3,152.6,365.7,145.9z M368.4,142.7c0,0,1.8,11.2,14.5,12.6C382.8,155.3,384.1,142.6,368.4,142.7z M388.6,202     c0,0-11.3-1.6-16.4,10.2C372.2,212.2,384.1,217.2,388.6,202z M387.5,175.6c0,0-10.6,4.2-9.2,17     C378.3,192.6,391,191.1,387.5,175.6z M387.5,175.7c0,0-11.1-2.6-17.3,8.6C370.2,184.3,381.5,190.4,387.5,175.7z M387.5,197     c0,0-8-5.1-16,2.2C371.5,199.1,378.8,207,387.5,197z M394,168.2c0,0-7.2-4.5-14.4,1.9C379.6,170.1,386.2,177.2,394,168.2z      M398.4,158.6c0,0-9.7-6.1-19.2,2.6C379.1,161.2,388,170.7,398.4,158.6z M375.5,203.6c0,0-8-5.1-16,2.2     C359.6,205.7,366.9,213.6,375.5,203.6z M349,241.3c0,0-2.8-9.1-13.5-8.8C335.5,232.5,335.9,243.2,349,241.3z M359.6,225.6     c0,0,9.4-1,11.2-11.6C370.8,214,360.1,212.4,359.6,225.6z M356.4,221.9c0,0,6.6-6.8,1.2-16.1     C357.6,205.8,348.4,211.4,356.4,221.9L356.4,221.9z M352.2,221.3c0,0-0.5-9.5-11-11.8C341.2,209.5,339,220,352.2,221.3z      M350.5,208.1c0,0,4.1-4.2,0.7-9.9C351.2,198.2,345.6,201.6,350.5,208.1z M347.9,207.7c0,0-0.3-5.8-6.7-7.3     C341.1,200.5,339.8,206.9,347.9,207.7z M373.9,189.1c0,0-3.7-4.5-9.7-1.9C364.2,187.2,366.9,193.2,373.9,189.1z M373.2,191.6     c0,0-5.8-0.4-8,5.8C365.2,197.4,371.5,199.6,373.2,191.6z M377.4,166.5c0,0-3.7-4.5-9.7-1.9C367.7,164.6,370.4,170.7,377.4,166.5     z M376.7,169.1c0,0-5.8-0.4-8,5.8C368.7,174.9,375,177,376.7,169.1z M355,224.8c0,0-10.2-5.4-19.1,4     C335.9,228.8,345.5,237.7,355,224.8z M340.6,194.3c0,0-10.2-5.4-19.1,4C321.5,198.3,331.1,207.2,340.6,194.3z M333.9,208.3     c0,0-6.1-9.8-18.5-6.1C315.4,202.2,319.2,214.7,333.9,208.3z M341.5,220.6c0,0-6.1-9.8-18.5-6.1     C322.9,214.5,326.7,227,341.5,220.6z M332.2,231.9c0,0-0.2-9.3-10.3-11.9C321.9,220,319.4,230.2,332.2,231.9z M347.4,176.8     c0,0-7.5,5.8-3.5,15.7C343.9,192.5,353.8,188.4,347.4,176.8z M352,178.3c0,0-2.1,9.3,7.3,14.4C359.4,192.7,364.4,183.2,352,178.3     z M354.4,176.7c0,0,4.5,6.6,13.1,3.7C367.6,180.5,364.6,171.9,354.4,176.7z M351.8,175.1c0,0,11.5-0.7,14.2-13.4     C366,161.8,353.2,159.2,351.8,175.1z M394.7,194.2c0,0,7.9-5.1,4.7-15.2C399.4,179,389.3,182.3,394.7,194.2z M394.7,194.1     c0,0,9.4,0.3,12.5-9.8C407.2,184.4,397.1,181.3,394.7,194.1z M391.2,177c0,0,7.3,2.8,12.5-4.3C403.7,172.6,396.6,167.5,391.2,177     z M390.7,201.2c0,0,6.6,2.5,11.3-3.9C401.9,197.3,395.5,192.7,390.7,201.2z M388.7,209.7c0,0,8.8,3.3,15.1-5.2     C403.8,204.5,395.1,198.3,388.7,209.7z M403.4,181.2c0,0,3.7,3.1,8.1-0.1C411.6,181.1,408.4,176.7,403.4,181.2z M403.6,179     c0,0,4.8-0.6,5.5-6C409.1,173,403.7,172.3,403.6,179z M469.3,183.6c0,0,3.7,3.1,8.1-0.1C477.4,183.6,474.3,179.1,469.3,183.6z      M469.4,181.4c0,0,4.8-0.6,5.5-6C474.9,175.4,469.6,174.7,469.4,181.4z M425.9,224.2c0,0,4.5,3.7,9.8-0.1     C435.7,224.2,431.9,218.9,425.9,224.2z M426.1,221.6c0,0,5.7-0.8,6.6-7.2C432.7,214.4,426.2,213.6,426.1,221.6z M442.4,241.7     c0,0-0.9,5.7,5,8.4C447.4,250.1,450,244.2,442.4,241.7z M444.7,240.5c0,0,3.5,4.6,9.6,2.1C454.3,242.6,451.7,236.6,444.7,240.5z      M404.3,199.9c0,0,3.7,3.1,8.1-0.1C412.4,199.8,409.3,195.4,404.3,199.9z M404.4,197.7c0,0,4.8-0.6,5.5-6     C409.9,191.7,404.6,191,404.4,197.7z M397.3,152.4c0,0,5.1-5.9,0.3-13.2C397.6,139.1,390.3,144,397.3,152.4z M422.8,186.2     c0,0,0.2-7.8-8.2-10.4C414.6,175.8,412.1,184.3,422.8,186.2z M421.1,187.9c0,0-4.7-4.6-11.2-0.9     C409.9,187,413.8,193.5,421.1,187.9z M423.6,188.8c0,0-9.1,2.4-9.3,13.1C414.3,201.8,424.9,201.9,423.6,188.8z M412.9,121.2     c0,0,1.1-7.4-6.7-10.8C406.2,110.3,402.9,118.1,412.9,121.2z M411.1,110.7c0,0,0.9-5.9-5.3-8.7     C405.7,102.1,403.1,108.3,411.1,110.7z M422,121.9c0,0,6.7-3.3,5.1-11.6C427.1,110.3,418.8,111.9,422,121.9z M418.4,120.3     c0,0,4.8-8.9-3.5-16.8C414.9,103.5,407.1,111.8,418.4,120.3z M226.8,104.8c0,0-5.4,3.4-3.4,10.4     C223.5,115.2,230.4,113.1,226.8,104.8z M276.4,163.7c0,0-4.3-6.2-12.3-3.4C264.1,160.3,267,168.3,276.4,163.7z M275,167.3     c0,0-7.2-2.1-11.6,5.2C263.3,172.5,270.6,176.8,275,167.3z M276.1,169.3c0,0-5.4,3.3-3.5,10.2     C272.6,179.5,279.5,177.5,276.1,169.3z M277.5,167.2c0,0,0,9.1,9.9,11.8C287.4,179,290,169.1,277.5,167.2z M299.2,165     c0,0-0.4,7.5,7.6,10.2C306.7,175.2,309.4,167.2,299.2,165z M302.5,163c0,0,4.5,6.1,12.4,3C314.8,166.1,311.7,158.2,302.5,163z      M302.7,160.8c0,0,6.3,0.7,9-5.9C311.8,154.8,305.1,152.2,302.7,160.8z M407.1,83.3c0,0,1.4,3.8,6,3.4     C413.1,86.7,412.6,82.2,407.1,83.3z M408.1,81.8c0,0,3.7,1.6,6.5-2C414.7,79.8,411,77,408.1,81.8z M420.4,93.1     c0,0,5.6-7.9-1.3-16.5C419.1,76.6,410.7,83.6,420.4,93.1z M440.9,102.6c0,0,1-9.7-9.3-13.7C431.6,88.9,427.7,99.2,440.9,102.6z      M424.7,94.2c0,0,7-4.1,4.7-13C429.3,81.2,420.5,83.7,424.7,94.2z M436,87c0,0,4.9-1,5.3-6.6C441.3,80.4,435.7,80,436,87z      M434.4,85.5c0,0,2.6-4.3-1.3-8.4C433.1,77.1,429,81,434.4,85.5z M425,101.3c0,0-2.2-5.6-9-4.8C416,96.6,416.8,103.3,425,101.3z      M436.1,106c0,0-0.3-7.5-8.5-9.5C427.6,96.5,425.7,104.8,436.1,106z M402.5,92.4c0,0,5.5,3.3,10.7-1.7     C413.1,90.8,408.1,85.6,402.5,92.4z M389.1,123.3c0,0,2.9-2.8,0.6-6.8C389.7,116.5,385.8,118.8,389.1,123.3z M387.3,123     c0,0-0.1-4-4.6-5.1C382.7,117.9,381.7,122.3,387.3,123z M399.3,123.8c0,0,0.7-6.3-5.9-9C393.4,114.8,390.7,121.5,399.3,123.8z      M300.4,161.5c0,0,5.5-7.2-0.6-15.4C299.8,146.1,291.6,152.4,300.4,161.5z M379.3,41.1c0,0,5.4,5.3,12.8,1.1     C392.1,42.2,387.7,34.8,379.3,41.1z M371.9,42.2c0,0,2.6,7.1,11.1,6.4C383,48.6,382.2,40.1,371.9,42.2z M382.8,58.3     c0,0,2.9,2.9,6.8,0.6C389.7,58.9,387.4,55,382.8,58.3z M383.1,56.5c0,0,4-0.1,5.1-4.6C388.3,51.9,383.8,50.9,383.1,56.5z      M399,61.6c0,0,1.9-9.6-8-14.5C391,47.1,386.2,57.1,399,61.6z M421.6,61.9c0,0-3.1-9.2-14.1-8.7     C407.5,53.2,408.2,64.2,421.6,61.9z M403.3,60.9c0,0,4.7-6.7-1.1-13.8C402.2,47.2,395.1,53.1,403.3,60.9z M398.2,50.4     c0,0,4.7-6.7-1.1-13.8C397.1,36.6,390.1,42.5,398.2,50.4z M410.7,49.7c0,0,4-3,2.1-8.2C412.8,41.4,407.5,43.5,410.7,49.7z      M408.6,49c0,0,0.6-5-4.6-7.1C403.9,41.8,401.8,47.1,408.6,49z M432.1,71.9c0,0-5.4-5.2-12.7-0.8C419.4,71,423.8,78.3,432.1,71.9     z M406.6,67.3c0,0-4.4-4.1-10.1-0.7C396.4,66.6,400,72.4,406.6,67.3z M378.5,52.5c0,0-1.1-4.4-6.2-4.5     C372.3,48,372.2,53.1,378.5,52.5z M382.1,70.7c0,0,4.5,6.1,12.4,3C394.5,73.8,391.4,65.9,382.1,70.7z M382.4,68.5     c0,0,6.3,0.7,9-5.9C391.4,62.6,384.7,59.9,382.4,68.5z M380,69.3c0,0,5.5-7.2-0.6-15.4C379.4,53.9,371.3,60.1,380,69.3z      M382.8,257.6c0,0-3.1-5-9.4-3.1C373.4,254.5,375.3,260.8,382.8,257.6z M381.8,260c0,0-5.7-1.1-8.7,4.8     C373.1,264.8,379,267.7,381.8,260z M350.5,261c0,0-8.2,4.8-5.5,15.1C345,276.2,355.4,273.4,350.5,261z M354.1,265.6     c0,0-3.3,8.9,5.4,15.2C359.5,280.8,365.7,272,354.1,265.6z M358.7,264.7c0,0,3.6,7.2,12.5,5.4     C371.3,270.1,369.4,261.2,358.7,264.7z M356.3,262.8c0,0,11.5,0.8,15.8-11.4C372.1,251.4,359.8,247.2,356.3,262.8z M426.7,177     c0,0,3.1-9.4-6.2-15.6C420.5,161.4,414.4,170.8,426.7,177z M426.7,254.3c0,0,3.1-9.4-6.2-15.6     C420.5,238.7,414.4,248.1,426.7,254.3z M401.2,164c0,0,3.9,4.4,9.8,1.5C411,165.5,408,159.6,401.2,164z M401.8,161.4     c0,0,5.8,0.2,7.8-6.1C409.6,155.3,403.2,153.4,401.8,161.4z M457.7,171c0,0,7.3-6.1,2.9-15.8C460.7,155.2,450.9,159.7,457.7,171z      M453.1,169.7c0,0,1.8-9.3-7.9-14.1C445.2,155.6,440.6,165.3,453.1,169.7L453.1,169.7z M450.7,171.4c0,0-4.8-6.5-13.3-3.2     C437.5,168.1,440.8,176.6,450.7,171.4z M453.5,172.9c0,0-11.5,1.1-13.7,13.9C439.7,186.8,452.6,188.9,453.5,172.9z M222.9,377.2     c-8.4-0.3-14.3,0.9-19.6,6.5c-5.3,5.6-11.2,6.5-11.2,6.5s3.7,1.9,17.1-5c13.4-6.9,23.2,9.4,43.7,1.6s14.9-15.6,18-21.9     c3.1-6.2,6.2-5.3,10-11.5c3.7-6.2,4.4-10.9,10.3-18.4c5.9-7.5,0.6-29.9-5.3-39.9c-5.9-10,6.2-43,7.5-53s1.9-18.4-5.6-29     c-7.5-10.6-19.6-9-28.4-10c-8.7-0.9-14.6-4.7-18.7-6.9c-4.1-2.2-5.3-20.3-8.7-24.3s-7.2-4.1-20.3-4.4c-13.1-0.3-19.3-2.2-24-10.3     s7.9-12.4,8.4-22.1c0.3-5-6.6-10.9-9.4-14c-2.8-3.1-0.3-14.7-0.9-12.5c-0.6,2.2-1.6,6.9-2.8,10.6c-1.2,3.7,5,8.7,6.9,13.7     c1.9,5-4.4,8.7-6.6,11.9c-2.2,3.1-4.1,11.2,4.4,23.1c8.4,11.9,33.7,3.7,39.3,8.7c5.6,5,5.6,17.5,5.6,17.5s-8.4-1.2-18.1-3.1     s-23.7,10.3-26.5,10.9c-2.8,0.6-13.7-9-19.9-10.9c-6.2-1.9-13.1,3.7-18.4,4.4c-5.3,0.6-10.6-4.1-12.2-7.8     c-1.6-3.7-5.6-10-7.2-11.9c-1.6-1.9-4.5-4.1-9.8-5.1s-11.4-4.9-11.4-4.9s7.3,7,14.5,10.4c5.8,2.7,9,12.3,13.4,20.4     s12,3.2,19.8,2.3s8.1-3.4,16.2,1.2c8.1,4.7,10.6,5.6,10.6,5.6s-0.9,2.8-2.2,4.4c-1.2,1.6-9,11.5-11.2,12.5     c-2.2,0.9-7.2,6.2-7.2,9s-5,5-9,4.7c-4.1-0.3-5.9,3.1-6.6,6.2c-0.6,3.1-7.5,5-7.5,5s-2.5,0.3,1.2,0.6s9-2.8,9.4-6.6     c0.3-3.7,7.8-0.9,12.5-3.1c4.7-2.2,3.7-5,6.9-5s7.2,8.3,7.8,12.3c0.3,2.2-2.7,4.5-6.1,6.7c-3.4,2.2-1.3,6.9-1.3,6.9     c-0.1-5,5.6-5.9,8.4-7.8s4.1-9-0.9-14.6c-5-5.6,2.8-12.5,5-17.1c2.2-4.7,19.3-16.8,24.3-19.3c5-2.5,18.7-0.6,21.8,0.6     c3.1,1.2,15.9,8.1,19.6,8.7s15.9,0.6,15.9,0.6s-10.6,4.4-11.9,6.9s-1.9,6.9-1.2,12.2s-1.2,11.9-2.5,13.4     c-1.2,1.6-8.7,1.6-12.2,6.2c-3.4,4.7-0.6,10.9-0.6,10.9v-5.3c0-5.3,4.1-6.9,10-8.7c5.9-1.9,6.9-3.1,7.5-10.6     c0.6-7.5,1.9-16.5,7.5-19.6c5.6-3.1,15.3-4.7,22.5,9.7c7.2,14.3-4.4,31.8-7.5,41.5c-3.1,9.7,2.2,20.9,3.4,28.7s2.2,9.4-1.2,19     c-3.4,9.7-5,13.7-3.4,24.3s-4,11.2-10.9,17.8c-6.9,6.5-7.2,16.8-7.2,16.8C254.7,381.5,231.3,377.5,222.9,377.2L222.9,377.2z      M288,289.8c0.5,4.8,3.8,7.5,7.8,17.5c4,10,3.3,20.3,3.3,20.3l3.3-6.5c3.3-6.5-1.2-21.8-3.8-32.6c-2.5-10.8-2.4-16.4,1.8-27.1     c5.8-14.9-4-32.6-4-32.6s0.4,10.2,0.2,17.7s-4.2,15.1-4.2,15.1C286.5,276,287.5,285,288,289.8L288,289.8z M395.1,396.3     c6.3,3.5,30.8-1.2,20-2c-0.5,0-1-0.1-1.5-0.1c-9.7-0.5-14.5,0.9-23.8-7.7c-9.8-9-25.6-9.8-44.6-12c-19-2.3-25.6-13-23.6-22.3     s-7.5-21.8-6-30.1c1.5-8.3-2-14.5-4.3-19.5c-2.3-5-3.3-15.5-3-27.6s7.3-25.8,7.8-34.3s-2.5-12-7-28.8     c-4.5-16.8,10.3-21.1,16.3-22.1c6-1,16.8-10.8,20.8-13.3c4-2.5,11.3-19.3,12.8-22.1c1.5-2.8,2.8-16.3,0.8-23.1     c-2-6.8,10.3,3,11,2.8c0.8-0.2,11,3,17.8,4.8s13.8-2,21.8-6.8c8-4.8,10.5-3.3,10.5-3.3s1.2,1.2-0.5-1c-1.8-2.3-7.8-1.8-14,1.5     c-6.3,3.3-13.5,5.8-17.8,3.8s-14.8-5.8-15.8-5.8s-9.8-4.3-3.5-10.3c6.3-6,8.3-21.8,8.3-21.8s1.8-5.8,6-8.3     c4.3-2.5,10.8,1,16.5,0.8s4.3-5.5,5-8s1.5-3.5,5.8-4.8s5.5-5.8,5.5-5.8c-0.8,2.5-8,3.5-11.5,4.5s-1.8,6-5.5,8.3     c-3.8,2.2-10.3-0.8-15-0.5s-10.3,4-10.3,4s-2.8-5.5-6-8.8c-3.3-3.3,3.8-4.5,4.8-7.3c1-2.8-1.5-6-1.5-6c2.8,2.8-2.2,7-6.8,9.8     c-4.5,2.8-1,6.8,4.3,11s1.2,16.3,1.2,22.3s-10.3,8.3-13.8,12c-3.5,3.8-7.5,7.5-5.3,16.3c2.3,8.8-4,21.3-11.3,31.1     c-7.3,9.8-12,10.5-23.1,12.5s-10.3,3-15,2.5c-4.8-0.5-7.5-23.3-11.5-39.9s13.3-21.5,16.3-23.1c3-1.5,6.3-3,8.3,1.2     c2,4.3,5.3,7.5,9,8.8c3.8,1.2,6.8,5,6.5,3.8s0.2-5.8-5.5-6.8c-5.8-1-5.3-7.5-8.3-11.5c-3-4-8.8,1-10.8,0.5s-0.2-3.3,2-11.8     c2.2-8.5-1.2-11.5-1.2-11.5s0.2,12.3-3.3,20s-9.3,6.3-17.8,12.8c-8.5,6.5-5.3,11.5-3,18.8c2.3,7.3,1.5,12.3-4.5,10.8     c-6-1.5-10.3-17.5-12.3-23.6c-2-6-4.8-18.3-4.8-18.3s-1.2-5-0.5-9c0.8-4,5-4.8,6-10c1-5.3-1.5-7-1.5-7c1.8,3,1.5,7-3.8,10.8     c-5.3,3.8-4.3,10.5-4.3,10.5s0-3.8-7.8-10c-7.8-6.3-19.3-5.5-23.6-6.5c-4.3-1-2-7.3-2-7.3c-4.3,8-3,11.8,12.5,13.3     s17.8,12.5,20.3,19.6c2.5,7,1.5,13.3,1.5,13.3c-9,1-11.3,9.5-13.3,9.8s-5.5-7.3-6.8-12s-13-5.8-19.8-7.3c-6.8-1.5-7-6.8-7-6.8     c-3.8,2-1.5,7.3,5,9.3c6.5,2,9.3,2.8,16.8,6.3s3.3,8.3,9,13c5.8,4.8,12.3-6,16.3-7.5c4-1.5,4.8,8.3,7.8,19.1     c3,10.8,13.5,8.8,19,13.3s9.8,27.1,11.3,40.4c1.5,13.3,9.8,33.6,10.3,41.4s-6.5,26.1-7.3,31.6c-0.8,5.5,7.8,28.6,8.3,34.1     s-3,12.3-3.3,18.5s4.8,10.8,6.8,18.3c2,7.5-1.8,11.5,0.2,20s11.8,18.5,28.6,13.3s35.6,6.5,35.6,6.5     C382.5,394.5,388.8,392.8,395.1,396.3L395.1,396.3z M311.4,284.8c-1,9.5,3.3,17.5,8.3,27.3c5,9.8-0.8,14,1,17.8     s4.3,11.3,4.3,21.8s1.5,14.3,13,18.5s26.6-1.5,43.9-0.8c17.3,0.8,24.6,8.8,30.1,12s26.3,0,33.3-1.5c7-1.5,22.3-2,22.3-2     s6.5,1,1-0.8c-5.5-1.8-27.1,2.3-40.9,2.3s-17-2.3-26.8-9.5c-9.8-7.3-23.8-3.5-36.1-4.3s-12.8-2.5-21-4.5s-13.8-25.3-14-33.6     s-3.5-15-5.5-24.6s9-23.6,11.3-32.6c2.2-9,5.5-3.5,16.3-13c10.8-9.5,13.8-4.5,26.3-8.3c12.5-3.8,12.3-7.5,17.3-17     c5-9.5,19.5-7.3,19.5-7.3s0.8,3.5,0.5,5s1.5,3.3,2.8,7.8c1.2,4.5,10.3,1.8,16,0c5.8-1.8,7.8,3.8,7.8,3.8s-0.2-3.8-3.3-7.3     c-3-3.5-5.8-0.5-13,0s-2-3.3-3.3-5.8c-1.2-2.5-2-9-1-12c1-3,8.8-7,13-10s14.3-7.5,18.5-9.5s8.3-7,10.8-12.8s6.8-8,5-7.8     c-1.8,0.2-7.8,1.8-9.3,7c-1.5,5.3-7.5,10-13.8,11.8c-6.3,1.8-7.5,3-7.5,3s-1.8-3.3-5.8-6.5c-4-3.3-4.8-1.8-2.8-4     c2-2.3-0.2-8-0.2-8s-2,6.8-3.8,9c-1.8,2.3,7.8,8,8.5,10.5s2.8,3.3-9,6.8c-11.8,3.5-9.8,9.5-15.5,11c-5.8,1.5-9,1-16.5,4.3     c-7.5,3.3-12.8,16.8-21.3,20.8c-8.5,4-26.1,5.8-35.1,7.3c-9,1.5-17.7,21.1-17.7,21.1s-0.5-2.3,1.2-9.8c1.8-7.5,1.2-20.6,1.2-20.6     s-1.2,8.5-6.5,17.5C309.9,265.9,311.4,284.8,311.4,284.8 M280.7,378.9c4.2-1.3,8,0.2,9.8,2.3c1.8,2.2,1.8,5.7,1.8,5.7     c3-5.7-3.2-13.7-5-17.3c-1.8-3.7,2.7-13.8,3.8-16.5c1.2-2.7,0.3-4.5,0.3-6.8s6.2-14.5,6.2-14.5s-1,2.2-3.7,5.2     c-2.7,3-5.7,6.3-5.7,10.8s-6.5,11.3-9.8,13.8s-6.3,5.8-6.2,9.7c0.2,3.8-3,10.8-3,10.8C272.5,380.9,276.5,380.2,280.7,378.9     L280.7,378.9z M299.1,334.3c0,0-4,7.2-4.3,10.3c-0.3,3.2,0.7,8.8-1.8,13.8s-3.2,7.8-1,11.7c2.2,3.8,3.3,9.8,3.3,9.8     s8.3-1.3,13.7,0.3c5.3,1.7,7.3,1.7,7.3,1.7s-7.5-2.8-8.3-6.8s0.5-13.7,0.3-17.7s-3-14.3-4.2-15.3     C303,341.1,301.3,336.9,299.1,334.3z" />
		</defs>
		<use
   xlink:href="#SVGID_1_"
   style="overflow:visible;fill:#1e3a8a;fill-opacity:1"
   id="use1" />
		<clipPath
   id="SVGID_00000050662261277576648460000008651504311501920907_">
			<use
   xlink:href="#SVGID_1_"
   style="overflow:visible;"
   id="use2" />
		</clipPath>
		<g
   id="g71"
   style="clip-path:url(#SVGID_00000050662261277576648460000008651504311501920907_);fill:#1e3a8a;fill-opacity:1"
   clip-path="url(#SVGID_00000050662261277576648460000008651504311501920907_)">
			<g
   id="g69"
   style="fill:#1e3a8a;fill-opacity:1">
				<rect
   id="rect59"
   x="3.5"
   y="327.1"
   class="st0"
   width="593.1"
   height="86.1"
   style="fill:#1e3a8a;fill-opacity:1" />
				<rect
   id="rect61"
   x="3.5"
   y="246.3"
   class="st0"
   width="593.1"
   height="86.1"
   style="fill:#1e3a8a;fill-opacity:1" />
				<rect
   id="rect63"
   x="3.5"
   y="165.4"
   class="st0"
   width="593.1"
   height="86.1"
   style="fill:#1e3a8a;fill-opacity:1" />
				<rect
   id="rect65"
   x="3.5"
   y="84.6"
   class="st0"
   width="593.1"
   height="86.1"
   style="fill:#1e3a8a;fill-opacity:1" />
				<rect
   id="rect67"
   x="3.5"
   y="3.8"
   class="st0"
   width="593.1"
   height="86.2"
   style="fill:#1e3a8a;fill-opacity:1" />
			</g>
		</g>
	</g>
</g>
</svg>
